<svg width="25" height="24" viewBox="0 0 25 24" fill="none" xmlns="http://www.w3.org/2000/svg">
<path d="M20.832 12V18C20.832 20.21 19.042 22 16.832 22H8.83203C6.62203 22 4.83203 20.21 4.83203 18V12C4.83203 11.45 5.28203 11 5.83203 11H7.80203C8.35203 11 8.80203 11.45 8.80203 12V15.14C8.80203 15.88 9.21203 16.56 9.86203 16.91C10.152 17.07 10.472 17.15 10.802 17.15C11.182 17.15 11.562 17.04 11.892 16.82L12.842 16.2L13.722 16.79C14.332 17.2 15.112 17.25 15.762 16.9C16.422 16.55 16.832 15.88 16.832 15.13V12C16.832 11.45 17.282 11 17.832 11H19.832C20.382 11 20.832 11.45 20.832 12Z" fill="#768192"/>
<path d="M22.332 7V8C22.332 9.1 21.802 10 20.332 10H5.33203C3.80203 10 3.33203 9.1 3.33203 8V7C3.33203 5.9 3.80203 5 5.33203 5H20.332C21.802 5 22.332 5.9 22.332 7Z" fill="#768192"/>
<path d="M12.4728 5.00043H6.95279C6.61279 4.63043 6.62279 4.06043 6.98279 3.70043L8.40279 2.28043C8.77279 1.91043 9.38279 1.91043 9.75279 2.28043L12.4728 5.00043Z" fill="#768192"/>
<path d="M18.7016 5.00043H13.1816L15.9016 2.28043C16.2716 1.91043 16.8816 1.91043 17.2516 2.28043L18.6716 3.70043C19.0316 4.06043 19.0416 4.63043 18.7016 5.00043Z" fill="#768192"/>
<path opacity="0.4" d="M14.8015 11C15.3515 11 15.8015 11.45 15.8015 12V15.13C15.8015 15.93 14.9115 16.41 14.2515 15.96L13.3515 15.36C13.0215 15.14 12.5915 15.14 12.2515 15.36L11.3115 15.98C10.6515 16.42 9.77148 15.94 9.77148 15.15V12C9.77148 11.45 10.2215 11 10.7715 11H14.8015Z" fill="#768192"/>
</svg>
