<svg width="32" height="32" viewBox="0 0 32 32" fill="none" xmlns="http://www.w3.org/2000/svg">
<g clip-path="url(#clip0_4305_3255)">
<path d="M24.685 10.7066H21.8653C21.5395 10.7066 21.2269 10.5669 21.0075 10.3209L19.8637 9.03076C19.6908 8.8379 19.4514 8.72485 19.192 8.72485C18.9327 8.72485 18.6933 8.8379 18.5204 9.03076L17.5362 10.1413C17.217 10.5004 16.7515 10.7132 16.2726 10.7132H0.837905C0.399002 11.9568 0.113051 13.2801 0 14.6567H14.5702C14.8296 14.6567 15.069 14.5503 15.2485 14.3641L16.6052 12.9476C16.7714 12.7681 17.0108 12.6683 17.2502 12.6683H17.3034C17.5628 12.6683 17.8022 12.7814 17.9751 12.9742L19.1189 14.2643C19.3383 14.5104 19.6509 14.65 19.9767 14.65H31.867C31.7539 13.2801 31.468 11.9501 31.0291 10.6999L24.685 10.7066Z" fill="white"/>
<path d="M8.81725 22.9561C9.0766 22.9561 9.31601 22.8497 9.49556 22.6635L10.8522 21.247C11.0251 21.0674 11.2578 20.9677 11.5039 20.9677H11.5571C11.8164 20.9677 12.0625 21.0807 12.2287 21.2669L13.3725 22.5571C13.592 22.8031 13.9045 22.9428 14.2304 22.9428H30.3501C30.9552 21.6925 31.3941 20.3559 31.6601 18.9527H16.1855C15.8596 18.9527 15.5471 18.8131 15.3276 18.567L14.1838 17.2902C14.0109 17.0974 13.7715 16.991 13.5122 16.991C13.2528 16.991 13.0068 17.104 12.8405 17.2902L11.8563 18.4008C11.5371 18.7665 11.0716 18.9727 10.5862 18.9727H0.21875C0.484752 20.3758 0.923654 21.7125 1.52881 22.9627L8.81725 22.9561Z" fill="white"/>
<path d="M20.2484 6.39069C20.5078 6.39069 20.7472 6.28429 20.9267 6.09809L22.2833 4.68163C22.4496 4.50208 22.689 4.40233 22.9351 4.40233H22.9883C23.2476 4.40233 23.487 4.51538 23.6599 4.70823L24.8037 6.00499C25.0232 6.25104 25.3357 6.39069 25.6616 6.39069H28.7272C25.8079 2.50707 21.1661 0 15.9392 0C10.7123 0 6.0639 2.50707 3.14453 6.39069H20.2484Z" fill="white"/>
<path d="M14.0975 26.9128H9.90802C9.58217 26.9128 9.26962 26.7732 9.05017 26.5271L7.90636 25.237C7.73346 25.0441 7.49406 24.9377 7.23471 24.9377C6.97535 24.9377 6.7293 25.0508 6.56305 25.237L5.57885 26.3476C5.25964 26.7133 4.79414 26.9195 4.30869 26.9195H4.24219C7.16156 30.045 11.3178 32.0067 15.9396 32.0067C20.5614 32.0067 24.711 30.045 27.637 26.9195L14.0975 26.9128Z" fill="white"/>
</g>
<defs>
<clipPath id="clip0_4305_3255">
<rect width="31.8736" height="32" fill="white"/>
</clipPath>
</defs>
</svg>
