<svg width="32" height="32" viewBox="0 0 32 32" fill="none" xmlns="http://www.w3.org/2000/svg">
<g clip-path="url(#clip0_4305_3238)">
<path d="M16 32C24.8366 32 32 24.8366 32 16C32 7.16344 24.8366 0 16 0C7.16344 0 0 7.16344 0 16C0 24.8366 7.16344 32 16 32Z" fill="#F0B90B"/>
<path fill-rule="evenodd" clip-rule="evenodd" d="M21.6841 8.25887L15.9998 4.97705L10.2017 8.32458L12.3792 9.59393L15.9994 7.50378L19.5112 9.53129L21.6841 8.25887ZM22.9297 8.97801L20.7568 10.2504L23.145 11.6293V14.127L25.3336 12.8813V10.3659L22.9297 8.97801ZM25.3336 14.3196L23.145 15.5653V19.8803L19.2973 22.1018L19.3079 24.6226L25.3336 21.1437V14.3196ZM18.0609 25.3426L18.0503 22.8217L15.9994 24.0058L13.7498 22.707L13.7392 25.2274L15.9998 26.5325L18.0609 25.3426ZM12.4922 24.5074L12.5028 21.987L8.85387 19.8803V15.6787L6.66602 14.4335V21.1437L12.4922 24.5074ZM6.66602 12.9952L8.85387 14.2404V11.6293L11.1322 10.3139L8.95473 9.04453L6.66602 10.3659V12.9952ZM12.5302 11.1288L10.2586 12.4403V15.04L13.7735 17.0406L13.7566 21.0887L15.9994 22.3836L18.0435 21.2034L18.0261 17.0406L21.7402 14.9266V12.4403L19.362 11.0672L15.9011 13.0939L12.5302 11.1288ZM18.1164 10.3481L15.9994 9.12585L13.7771 10.4089L15.8997 11.6462L18.1164 10.3481ZM21.7402 16.3649L19.2791 17.7656L19.2905 20.4835L21.7402 19.0692V16.3649ZM12.5096 20.3688L12.5205 17.7656L10.2586 16.4783V19.0692L12.5096 20.3688Z" fill="white"/>
</g>
<defs>
<clipPath id="clip0_4305_3238">
<rect width="32" height="32" fill="white"/>
</clipPath>
</defs>
</svg>
