<svg width="24" height="24" viewBox="0 0 24 24" fill="none" xmlns="http://www.w3.org/2000/svg">
<circle cx="12" cy="12" r="12" fill="url(#paint0_linear_5571_9481)"/>
<circle cx="11.9984" cy="12.0004" r="9.6" stroke="black" stroke-width="0.5"/>
<path fill-rule="evenodd" clip-rule="evenodd" d="M11.99 5L17.9951 8.44576L17.9971 10.7968L15.8427 12.0504L17.9979 13.3004L18 15.4431L12.0096 19L10.0883 17.8963L10.0758 15.4061L7.92611 16.657L6.00632 15.5541L6 8.55833L7.88804 7.43723L10.0419 8.68633L10.0292 6.16608L11.99 5ZM10.0484 9.98608L7.89468 8.73703L7.11674 9.19896L7.12189 14.9021L7.92255 15.362L10.0693 14.1129L10.0484 9.98608ZM11.1822 13.4653L11.1679 10.6353L13.6109 12.0521L11.1822 13.4653ZM11.1887 14.7585L11.2012 17.2427L12.0004 17.7018L16.8832 14.8025L16.8824 13.9494L14.7273 12.6995L11.1887 14.7585ZM14.7263 11.403L11.1613 9.33554L11.1486 6.80463L12 6.2983L16.8795 9.09816L16.8804 10.1496L14.7263 11.403Z" fill="#181616"/>
<defs>
<linearGradient id="paint0_linear_5571_9481" x1="0" y1="0" x2="30" y2="27.5" gradientUnits="userSpaceOnUse">
<stop stop-color="white"/>
<stop offset="1" stop-color="white" stop-opacity="0.54"/>
</linearGradient>
</defs>
</svg>
