<svg width="32" height="32" viewBox="0 0 32 32" fill="none" xmlns="http://www.w3.org/2000/svg">
<g clip-path="url(#clip0_4305_3217)">
<path d="M16 32C24.8366 32 32 24.8366 32 16C32 7.16344 24.8366 0 16 0C7.16344 0 0 7.16344 0 16C0 24.8366 7.16344 32 16 32Z" fill="white"/>
<path d="M16.0423 2.82355V2.83667C16.0554 2.90229 16.0554 2.98103 16.0554 3.05976V12.5215C16.0423 12.574 16.0029 12.5871 15.9635 12.6134C15.688 12.7446 15.4255 12.8627 15.1499 12.9808C14.7693 13.1514 14.3756 13.3351 13.9951 13.5058L12.6171 14.1357C12.2365 14.3062 11.856 14.4769 11.4885 14.6475C11.0424 14.8574 10.583 15.0543 10.1369 15.2642C9.75628 15.4349 9.37571 15.6186 8.98202 15.7892C8.66709 15.9335 8.35211 16.0648 8.05029 16.2091C8.02403 16.2222 7.9978 16.2353 7.97154 16.2353C7.95842 16.2353 7.95842 16.2353 7.94531 16.2222L8.29962 15.6317C8.98202 14.5031 9.65131 13.3877 10.3337 12.2591C11.0555 11.0517 11.7904 9.84439 12.5121 8.63707C13.1814 7.5216 13.8638 6.40616 14.5331 5.29069C15.0187 4.47706 15.5173 3.66343 16.0029 2.8498C16.016 2.82355 16.0291 2.81043 16.0291 2.78418H16.0423C16.0291 2.7973 16.0423 2.81043 16.0423 2.82355Z" fill="#828384"/>
<path d="M24.1014 16.2219L24.1146 16.235L22.1855 17.3768L16.1226 20.9594C16.0963 20.9725 16.0701 20.9856 16.057 20.9987C16.0176 20.9987 16.0176 20.9594 16.0176 20.9462V20.8281V12.7181C16.0176 12.6787 16.0176 12.6262 16.0307 12.5868C16.0438 12.5343 16.0832 12.5474 16.1226 12.5606C16.2932 12.6393 16.4769 12.7181 16.6475 12.7968C17.1593 13.033 17.6711 13.2692 18.1829 13.4923C18.6291 13.6892 19.0621 13.8991 19.5084 14.096C19.9545 14.2928 20.4007 14.5028 20.8469 14.6997C21.2275 14.8702 21.6212 15.054 22.0017 15.2245C22.3823 15.3952 22.776 15.5789 23.1566 15.7495C23.4584 15.8807 23.7602 16.0251 24.0621 16.1563C24.0621 16.1956 24.0752 16.2088 24.1014 16.2219Z" fill="#131313"/>
<path d="M16.0423 29.1483C16.0423 29.1615 16.0291 29.1746 16.0291 29.1877H16.016C16.016 29.1615 15.9898 29.1483 15.9767 29.1221C15.163 27.9804 14.3494 26.8256 13.5357 25.6839C12.709 24.5159 11.8691 23.3348 11.0424 22.1669C10.2418 21.0383 9.42824 19.8966 8.62771 18.768C8.41775 18.4661 8.20776 18.1775 7.9978 17.8756C7.98469 17.8494 7.97158 17.8362 7.94531 17.7969C7.98469 17.7969 8.01091 17.8231 8.02407 17.8362C9.16575 18.5055 10.2944 19.1748 11.4361 19.8441C12.7484 20.6183 14.0476 21.3926 15.3599 22.1669L16.0291 22.5605C16.0554 22.5868 16.0554 22.613 16.0554 22.6393V28.9646C16.0554 29.0303 16.0554 29.0959 16.0423 29.1483Z" fill="#828384"/>
<path d="M7.93359 16.2488V16.2357C8.35351 16.0519 8.76035 15.8551 9.18026 15.6714C9.7183 15.422 10.2563 15.1858 10.7944 14.9365C11.2012 14.7528 11.6212 14.5559 12.028 14.3722C12.6317 14.0966 13.2222 13.8341 13.8258 13.5586C14.2327 13.3748 14.6395 13.1911 15.0594 12.9943C15.3481 12.863 15.65 12.7318 15.9387 12.6006C15.9649 12.5875 16.0043 12.5743 16.0174 12.5481C16.0305 12.5481 16.0305 12.5612 16.0174 12.5743V20.9075C16.0174 20.9469 16.0043 20.9862 16.0305 21.0125C16.0043 21.0518 15.9781 21.0125 15.9649 20.9994C15.8468 20.9338 15.7287 20.8682 15.6106 20.7894C13.0778 19.2934 10.5319 17.7842 7.99919 16.2882C7.98608 16.2751 7.95982 16.2619 7.93359 16.2488Z" fill="#343535"/>
<path d="M24.0738 17.7969H24.0869C24.0869 17.8231 24.0606 17.8494 24.0475 17.8756C21.6329 21.2745 19.2182 24.6865 16.8036 28.0854C16.5542 28.4397 16.2917 28.794 16.0424 29.1483C16.0293 29.1352 16.0293 29.1221 16.0293 29.109V29.0303V22.6655V22.5474C16.5805 22.2193 17.1185 21.9044 17.6697 21.5763C19.7956 20.3165 21.9216 19.0698 24.0344 17.81C24.0475 17.8231 24.0606 17.81 24.0738 17.7969Z" fill="#343535"/>
<path d="M16.0302 12.5742V12.548V12.4693V2.9419C16.0302 2.90253 16.017 2.87628 16.0433 2.83691C18.7073 7.25938 21.3713 11.6687 24.0221 16.0913C24.0484 16.1306 24.0877 16.1831 24.1009 16.2356C23.9171 16.17 23.7465 16.0781 23.5759 15.9994C23.366 15.9075 23.1429 15.8025 22.9329 15.7107C22.8017 15.6451 22.6573 15.5925 22.5261 15.5269C22.303 15.422 22.0799 15.3301 21.8568 15.2251C21.7256 15.1726 21.5943 15.107 21.4631 15.0414L20.597 14.6477C20.4526 14.5821 20.3083 14.5165 20.1508 14.4509L19.5209 14.1753C19.3897 14.1228 19.2584 14.0572 19.1272 13.9915L18.2611 13.5978C18.1167 13.5322 17.9724 13.4666 17.8149 13.401L17.185 13.1254C17.0406 13.0598 16.9094 12.9942 16.7651 12.9286C16.5157 12.8105 16.2664 12.6924 16.0039 12.5874C16.0433 12.5742 16.0302 12.5742 16.0302 12.5742Z" fill="#343535"/>
</g>
<defs>
<clipPath id="clip0_4305_3217">
<rect width="32" height="32" fill="white"/>
</clipPath>
</defs>
</svg>
