<svg width="798" height="157" viewBox="0 0 798 157" fill="none" xmlns="http://www.w3.org/2000/svg">
<mask id="mask0_4457_6028" style="mask-type:alpha" maskUnits="userSpaceOnUse" x="0" y="0" width="798" height="157">
<rect width="798" height="157" rx="12" fill="url(#paint0_linear_4457_6028)"/>
<rect x="0.5" y="0.5" width="797" height="156" rx="11.5" stroke="url(#paint1_linear_4457_6028)" stroke-opacity="0.15"/>
</mask>
<g mask="url(#mask0_4457_6028)">
<g opacity="0.4">
<mask id="path-3-inside-1_4457_6028" fill="white">
<path fill-rule="evenodd" clip-rule="evenodd" d="M48 286C139.127 286 213 212.127 213 121C213 29.873 139.127 -44 48 -44C-43.127 -44 -117 29.873 -117 121C-117 212.127 -43.127 286 48 286ZM48 269.242C129.872 269.242 196.242 202.872 196.242 121C196.242 39.1281 129.872 -27.2422 48 -27.2422C-33.8719 -27.2422 -100.242 39.1281 -100.242 121C-100.242 202.872 -33.8719 269.242 48 269.242Z"/>
</mask>
<path fill-rule="evenodd" clip-rule="evenodd" d="M48 286C139.127 286 213 212.127 213 121C213 29.873 139.127 -44 48 -44C-43.127 -44 -117 29.873 -117 121C-117 212.127 -43.127 286 48 286ZM48 269.242C129.872 269.242 196.242 202.872 196.242 121C196.242 39.1281 129.872 -27.2422 48 -27.2422C-33.8719 -27.2422 -100.242 39.1281 -100.242 121C-100.242 202.872 -33.8719 269.242 48 269.242Z" fill="url(#paint2_linear_4457_6028)"/>
<path d="M212 121C212 211.575 138.575 285 48 285V287C139.679 287 214 212.679 214 121H212ZM48 -43C138.575 -43 212 30.4253 212 121H214C214 29.3207 139.679 -45 48 -45V-43ZM-116 121C-116 30.4253 -42.5747 -43 48 -43V-45C-43.6793 -45 -118 29.3207 -118 121H-116ZM48 285C-42.5747 285 -116 211.575 -116 121H-118C-118 212.679 -43.6793 287 48 287V285ZM195.242 121C195.242 202.32 129.32 268.242 48 268.242V270.242C130.424 270.242 197.242 203.424 197.242 121H195.242ZM48 -26.2422C129.32 -26.2422 195.242 39.6804 195.242 121H197.242C197.242 38.5758 130.424 -28.2422 48 -28.2422V-26.2422ZM-99.2422 121C-99.2422 39.6804 -33.3196 -26.2422 48 -26.2422V-28.2422C-34.4242 -28.2422 -101.242 38.5758 -101.242 121H-99.2422ZM48 268.242C-33.3196 268.242 -99.2422 202.32 -99.2422 121H-101.242C-101.242 203.424 -34.4242 270.242 48 270.242V268.242Z" fill="url(#paint3_linear_4457_6028)" mask="url(#path-3-inside-1_4457_6028)"/>
<mask id="path-5-inside-2_4457_6028" fill="white">
<path fill-rule="evenodd" clip-rule="evenodd" d="M25.535 116.734C25.4511 122.169 25.5233 133.237 25.5233 133.237L25.525 133.238L43.443 124.717C43.443 124.717 44.034 101.897 44.3195 87.1015C44.4854 78.4854 44.6273 69.8682 44.7691 61.2512C44.8755 54.7877 44.9819 48.3242 45.0985 41.8614C45.1522 38.8678 50.1405 35.9279 52.6606 37.3802C76.796 51.2839 100.93 65.1925 125.048 79.1264C125.74 79.526 126.754 80.2026 126.781 80.7886C126.812 81.4446 126.853 82.1057 126.894 82.7687C127.071 85.6214 127.251 88.5098 126.615 91.1882C126.367 92.2324 124.823 92.9797 123.298 93.7181C122.653 94.0304 122.011 94.3411 121.472 94.672C120.332 95.3709 119.166 96.0263 118 96.6815C117.771 96.8102 117.542 96.9389 117.313 97.0679C111.443 100.376 99.5696 107.056 99.5696 107.056L118.409 117.968C118.409 117.968 132.241 109.6 143.027 103.628C144.541 102.788 145.146 101.848 145.127 100.092C145.114 98.7752 145.098 97.4583 145.083 96.1413C144.997 88.782 144.911 81.418 145.196 74.071C145.335 70.4628 143.922 68.8258 141.003 67.1737C128.856 60.2953 116.773 53.3037 104.689 46.3119C100.32 43.784 95.9513 41.2561 91.5794 38.7335C89.5853 37.583 87.5916 36.4322 85.5979 35.2814C74.7192 29.0019 63.8412 22.7229 52.9226 16.5122C52.0461 16.0135 50.4847 15.797 49.6788 16.2402C42.6707 20.1019 35.7382 24.1029 28.8577 28.1895C28.0636 28.6613 27.34 29.8752 27.2543 30.8054C26.9454 34.1784 26.8631 37.5767 26.8044 40.9665C26.3628 66.2217 25.9313 91.4769 25.535 116.734ZM75.0557 141.59C75.0557 141.59 68.5413 145.41 65.3026 147.223C47.6373 157.112 29.9659 166.991 12.2947 176.869C7.2132 179.71 2.13171 182.55 -2.94962 185.391C-4.16715 186.072 -5.38749 186.748 -6.60783 187.425C-9.50375 189.029 -12.3997 190.634 -15.2582 192.302C-16.5158 193.036 -17.4426 193.168 -18.7925 192.369C-25.997 188.101 -33.2569 183.927 -40.5487 179.812C-42.1806 178.89 -42.9899 177.895 -42.9866 175.873C-42.9261 141.271 -42.9312 106.669 -43 72.0668C-43.0033 70.1712 -42.2864 69.1386 -40.7686 68.274C-38.1847 66.8028 -35.6072 65.3201 -33.0296 63.8373L-33.0281 63.8364C-28.7578 61.3798 -24.4874 58.9232 -20.1877 56.5194C-19.4607 56.1131 -18.141 56.046 -17.4308 56.4338C-8.30861 61.4048 -2.50411 64.6234 4.51994 68.5183L4.52022 68.5184L4.52217 68.5195C7.7391 70.3033 11.2119 72.229 15.3764 74.5298C15.6921 74.7044 14.7821 94.9009 14.7821 94.9009C14.7821 94.9009 5.14642 89.6608 0.406658 87.055C-1.92411 85.7729 -4.25194 84.4855 -6.57982 83.1981L-6.58014 83.1979C-10.0961 81.2534 -13.6122 79.3088 -17.1387 77.3824C-17.6759 77.0886 -18.4936 76.7629 -18.952 76.9677C-19.2302 77.0919 -19.5162 77.2134 -19.8046 77.336C-21.2013 77.9295 -22.6548 78.5472 -23.5524 79.602C-24.4506 80.6581 -24.6487 82.5621 -24.6521 84.0916C-24.6785 95.8547 -24.6841 107.618 -24.6897 119.381C-24.6969 134.582 -24.7041 149.783 -24.7562 164.985C-24.7646 167.22 -23.8009 168.158 -22.1773 169.414C-18.497 172.262 -15.5017 171.676 -11.598 169.448C13.8855 154.898 55.0155 131.741 55.0155 131.741L75.0557 141.59ZM54.7411 118.247L55.3523 96.4651C55.3523 96.4651 70.0031 104.457 77.2478 108.441C83.1846 111.707 89.1197 114.975 95.0549 118.244L95.068 118.251C110.802 126.916 126.536 135.582 142.302 144.187C144.385 145.323 145.205 146.529 145.159 148.965C144.99 158.011 145.052 167.063 145.126 176.113C145.139 177.721 144.652 178.613 143.228 179.429C129.731 187.163 116.261 194.946 102.792 202.73C99.6475 204.547 96.5027 206.364 93.3577 208.181C90.2589 209.971 87.1587 211.758 84.0586 213.546L84.0397 213.557C73.9436 219.377 63.8477 225.198 53.8009 231.104C51.7324 232.32 50.2599 232.284 48.2099 231.054C40.8547 226.64 33.3817 222.42 25.9095 218.201L25.9085 218.2L25.4732 217.954C23.994 217.118 23.4785 216.265 23.5407 214.42C23.9352 202.743 24.3466 186.751 24.3466 186.751L42.6307 176.235C42.6307 176.235 42.6642 179.905 42.6256 181.648C42.6001 182.77 42.5751 183.891 42.55 185.013C42.4065 191.427 42.2631 197.842 42.043 204.254C41.9859 205.898 42.7599 206.564 43.9654 207.55C48.7858 211.499 52.8254 210.881 58.173 207.664C76.461 196.662 94.9995 186.074 113.536 175.487L113.536 175.487C117.05 173.48 120.563 171.473 124.075 169.464C126.235 168.226 126.736 166.821 127.051 164.425C127.842 158.409 125.376 155.476 120.06 152.674C98.5088 141.311 54.7428 118.25 54.7428 118.25L54.7411 118.247Z"/>
</mask>
<path fill-rule="evenodd" clip-rule="evenodd" d="M25.535 116.734C25.4511 122.169 25.5233 133.237 25.5233 133.237L25.525 133.238L43.443 124.717C43.443 124.717 44.034 101.897 44.3195 87.1015C44.4854 78.4854 44.6273 69.8682 44.7691 61.2512C44.8755 54.7877 44.9819 48.3242 45.0985 41.8614C45.1522 38.8678 50.1405 35.9279 52.6606 37.3802C76.796 51.2839 100.93 65.1925 125.048 79.1264C125.74 79.526 126.754 80.2026 126.781 80.7886C126.812 81.4446 126.853 82.1057 126.894 82.7687C127.071 85.6214 127.251 88.5098 126.615 91.1882C126.367 92.2324 124.823 92.9797 123.298 93.7181C122.653 94.0304 122.011 94.3411 121.472 94.672C120.332 95.3709 119.166 96.0263 118 96.6815C117.771 96.8102 117.542 96.9389 117.313 97.0679C111.443 100.376 99.5696 107.056 99.5696 107.056L118.409 117.968C118.409 117.968 132.241 109.6 143.027 103.628C144.541 102.788 145.146 101.848 145.127 100.092C145.114 98.7752 145.098 97.4583 145.083 96.1413C144.997 88.782 144.911 81.418 145.196 74.071C145.335 70.4628 143.922 68.8258 141.003 67.1737C128.856 60.2953 116.773 53.3037 104.689 46.3119C100.32 43.784 95.9513 41.2561 91.5794 38.7335C89.5853 37.583 87.5916 36.4322 85.5979 35.2814C74.7192 29.0019 63.8412 22.7229 52.9226 16.5122C52.0461 16.0135 50.4847 15.797 49.6788 16.2402C42.6707 20.1019 35.7382 24.1029 28.8577 28.1895C28.0636 28.6613 27.34 29.8752 27.2543 30.8054C26.9454 34.1784 26.8631 37.5767 26.8044 40.9665C26.3628 66.2217 25.9313 91.4769 25.535 116.734ZM75.0557 141.59C75.0557 141.59 68.5413 145.41 65.3026 147.223C47.6373 157.112 29.9659 166.991 12.2947 176.869C7.2132 179.71 2.13171 182.55 -2.94962 185.391C-4.16715 186.072 -5.38749 186.748 -6.60783 187.425C-9.50375 189.029 -12.3997 190.634 -15.2582 192.302C-16.5158 193.036 -17.4426 193.168 -18.7925 192.369C-25.997 188.101 -33.2569 183.927 -40.5487 179.812C-42.1806 178.89 -42.9899 177.895 -42.9866 175.873C-42.9261 141.271 -42.9312 106.669 -43 72.0668C-43.0033 70.1712 -42.2864 69.1386 -40.7686 68.274C-38.1847 66.8028 -35.6072 65.3201 -33.0296 63.8373L-33.0281 63.8364C-28.7578 61.3798 -24.4874 58.9232 -20.1877 56.5194C-19.4607 56.1131 -18.141 56.046 -17.4308 56.4338C-8.30861 61.4048 -2.50411 64.6234 4.51994 68.5183L4.52022 68.5184L4.52217 68.5195C7.7391 70.3033 11.2119 72.229 15.3764 74.5298C15.6921 74.7044 14.7821 94.9009 14.7821 94.9009C14.7821 94.9009 5.14642 89.6608 0.406658 87.055C-1.92411 85.7729 -4.25194 84.4855 -6.57982 83.1981L-6.58014 83.1979C-10.0961 81.2534 -13.6122 79.3088 -17.1387 77.3824C-17.6759 77.0886 -18.4936 76.7629 -18.952 76.9677C-19.2302 77.0919 -19.5162 77.2134 -19.8046 77.336C-21.2013 77.9295 -22.6548 78.5472 -23.5524 79.602C-24.4506 80.6581 -24.6487 82.5621 -24.6521 84.0916C-24.6785 95.8547 -24.6841 107.618 -24.6897 119.381C-24.6969 134.582 -24.7041 149.783 -24.7562 164.985C-24.7646 167.22 -23.8009 168.158 -22.1773 169.414C-18.497 172.262 -15.5017 171.676 -11.598 169.448C13.8855 154.898 55.0155 131.741 55.0155 131.741L75.0557 141.59ZM54.7411 118.247L55.3523 96.4651C55.3523 96.4651 70.0031 104.457 77.2478 108.441C83.1846 111.707 89.1197 114.975 95.0549 118.244L95.068 118.251C110.802 126.916 126.536 135.582 142.302 144.187C144.385 145.323 145.205 146.529 145.159 148.965C144.99 158.011 145.052 167.063 145.126 176.113C145.139 177.721 144.652 178.613 143.228 179.429C129.731 187.163 116.261 194.946 102.792 202.73C99.6475 204.547 96.5027 206.364 93.3577 208.181C90.2589 209.971 87.1587 211.758 84.0586 213.546L84.0397 213.557C73.9436 219.377 63.8477 225.198 53.8009 231.104C51.7324 232.32 50.2599 232.284 48.2099 231.054C40.8547 226.64 33.3817 222.42 25.9095 218.201L25.9085 218.2L25.4732 217.954C23.994 217.118 23.4785 216.265 23.5407 214.42C23.9352 202.743 24.3466 186.751 24.3466 186.751L42.6307 176.235C42.6307 176.235 42.6642 179.905 42.6256 181.648C42.6001 182.77 42.5751 183.891 42.55 185.013C42.4065 191.427 42.2631 197.842 42.043 204.254C41.9859 205.898 42.7599 206.564 43.9654 207.55C48.7858 211.499 52.8254 210.881 58.173 207.664C76.461 196.662 94.9995 186.074 113.536 175.487L113.536 175.487C117.05 173.48 120.563 171.473 124.075 169.464C126.235 168.226 126.736 166.821 127.051 164.425C127.842 158.409 125.376 155.476 120.06 152.674C98.5088 141.311 54.7428 118.25 54.7428 118.25L54.7411 118.247Z" fill="url(#paint4_linear_4457_6028)"/>
<path d="M25.5233 133.237L24.5233 133.243L24.526 133.653L24.8162 133.944L25.5233 133.237ZM25.535 116.734L24.5352 116.718L24.5352 116.718L25.535 116.734ZM25.525 133.238L24.8179 133.945L25.317 134.444L25.9544 134.141L25.525 133.238ZM43.443 124.717L43.8725 125.62L44.4268 125.357L44.4427 124.743L43.443 124.717ZM44.3195 87.1015L45.3193 87.1208L45.3193 87.1208L44.3195 87.1015ZM44.7691 61.2512L43.7693 61.2347L43.7693 61.2347L44.7691 61.2512ZM45.0985 41.8614L46.0983 41.8795L46.0983 41.8794L45.0985 41.8614ZM52.6606 37.3802L52.1613 38.2467L52.1615 38.2467L52.6606 37.3802ZM125.048 79.1264L124.548 79.9923L124.548 79.9923L125.048 79.1264ZM126.781 80.7886L125.782 80.8344L125.782 80.8353L126.781 80.7886ZM126.894 82.7687L127.892 82.7067L127.892 82.7067L126.894 82.7687ZM126.615 91.1882L125.642 90.9571L125.642 90.9573L126.615 91.1882ZM123.298 93.7181L123.734 94.6182L123.734 94.6182L123.298 93.7181ZM121.472 94.672L121.995 95.5245L121.995 95.5243L121.472 94.672ZM118 96.6815L118.49 97.5533L118.49 97.5533L118 96.6815ZM117.313 97.0679L117.804 97.9391L117.804 97.939L117.313 97.0679ZM99.5696 107.056L99.0793 106.185L97.5526 107.044L99.0684 107.922L99.5696 107.056ZM118.409 117.968L117.908 118.833L118.421 119.13L118.927 118.823L118.409 117.968ZM143.027 103.628L143.511 104.503L143.511 104.502L143.027 103.628ZM145.127 100.092L144.127 100.102L144.127 100.102L145.127 100.092ZM145.083 96.1413L146.083 96.1296L146.083 96.1296L145.083 96.1413ZM145.196 74.071L146.195 74.1097L146.195 74.1096L145.196 74.071ZM141.003 67.1737L140.511 68.0439L140.511 68.0439L141.003 67.1737ZM104.689 46.3119L104.188 47.1774L104.188 47.1774L104.689 46.3119ZM91.5794 38.7335L92.0791 37.8673L92.0791 37.8673L91.5794 38.7335ZM85.5979 35.2814L86.0978 34.4153L86.0978 34.4153L85.5979 35.2814ZM52.9226 16.5122L52.428 17.3814L52.4281 17.3814L52.9226 16.5122ZM49.6788 16.2402L49.1968 15.364L49.1962 15.3644L49.6788 16.2402ZM28.8577 28.1895L28.3471 27.3297L28.347 27.3298L28.8577 28.1895ZM27.2543 30.8054L26.2585 30.7137L26.2585 30.7142L27.2543 30.8054ZM26.8044 40.9665L27.8042 40.984L27.8042 40.9839L26.8044 40.9665ZM65.3026 147.223L65.791 148.095L65.7911 148.095L65.3026 147.223ZM75.0557 141.59L75.5616 142.453L77.1651 141.512L75.4968 140.692L75.0557 141.59ZM12.2947 176.869L11.8068 175.996L11.8068 175.996L12.2947 176.869ZM-2.94962 185.391L-3.43761 184.518L-3.43774 184.518L-2.94962 185.391ZM-6.60783 187.425L-6.12315 188.299L-6.12314 188.299L-6.60783 187.425ZM-15.2582 192.302L-14.7543 193.166L-14.7543 193.166L-15.2582 192.302ZM-18.7925 192.369L-19.3021 193.229L-19.3019 193.229L-18.7925 192.369ZM-40.5487 179.812L-41.0405 180.683L-41.0402 180.683L-40.5487 179.812ZM-42.9866 175.873L-43.9866 175.871L-43.9866 175.871L-42.9866 175.873ZM-43 72.0668L-44 72.0685L-44 72.0688L-43 72.0668ZM-40.7686 68.274L-41.2634 67.4049L-41.2636 67.4051L-40.7686 68.274ZM-33.0296 63.8373L-33.5265 62.9694L-33.5283 62.9705L-33.0296 63.8373ZM-33.0281 63.8364L-32.5313 64.7042L-32.5294 64.7032L-33.0281 63.8364ZM-20.1877 56.5194L-20.6756 55.6465L-20.6757 55.6466L-20.1877 56.5194ZM-17.4308 56.4338L-17.9101 57.3115L-17.9093 57.3119L-17.4308 56.4338ZM4.51994 68.5183L5.00854 67.6458L5.00487 67.6437L4.51994 68.5183ZM4.52022 68.5184L4.03161 69.391L4.03633 69.3936L4.52022 68.5184ZM4.52217 68.5195L5.00711 67.645L5.00606 67.6444L4.52217 68.5195ZM15.3764 74.5298L15.8605 73.6548L15.86 73.6545L15.3764 74.5298ZM14.7821 94.9009L14.3043 95.7794L15.7091 96.5433L15.7811 94.9459L14.7821 94.9009ZM0.406658 87.055L-0.0753071 87.9312L-0.0751065 87.9313L0.406658 87.055ZM-6.57982 83.1981L-7.07601 84.0664L-7.06379 84.0732L-6.57982 83.1981ZM-6.58014 83.1979L-6.08395 82.3296L-6.09617 82.3228L-6.58014 83.1979ZM-17.1387 77.3824L-17.6185 78.2598L-17.6181 78.26L-17.1387 77.3824ZM-18.952 76.9677L-18.5444 77.8809L-18.544 77.8807L-18.952 76.9677ZM-19.8046 77.336L-19.4135 78.2563L-19.4135 78.2563L-19.8046 77.336ZM-23.5524 79.602L-24.314 78.954L-24.3141 78.9541L-23.5524 79.602ZM-24.6521 84.0916L-23.6521 84.0939L-23.6521 84.0938L-24.6521 84.0916ZM-24.6897 119.381L-23.6897 119.381L-24.6897 119.381ZM-24.7562 164.985L-23.7562 164.989L-23.7562 164.988L-24.7562 164.985ZM-22.1773 169.414L-21.5653 168.623L-21.5654 168.623L-22.1773 169.414ZM-11.598 169.448L-11.1023 170.316L-11.1022 170.316L-11.598 169.448ZM55.0155 131.741L55.4565 130.844L54.9838 130.611L54.5249 130.87L55.0155 131.741ZM55.3523 96.4651L55.8312 95.5872L54.3984 94.8057L54.3527 96.4371L55.3523 96.4651ZM54.7411 118.247L53.7415 118.218L53.7345 118.469L53.8463 118.693L54.7411 118.247ZM77.2478 108.441L77.7298 107.565L77.7297 107.565L77.2478 108.441ZM95.0549 118.244L94.5724 119.12L94.5727 119.12L95.0549 118.244ZM95.068 118.251L95.5505 117.375L95.5502 117.375L95.068 118.251ZM142.302 144.187L141.822 145.065L141.823 145.065L142.302 144.187ZM145.159 148.965L146.159 148.984L146.159 148.984L145.159 148.965ZM145.126 176.113L144.126 176.121L144.126 176.121L145.126 176.113ZM143.228 179.429L143.726 180.296L143.726 180.296L143.228 179.429ZM102.792 202.73L103.293 203.596L103.293 203.596L102.792 202.73ZM93.3577 208.181L93.8578 209.047L93.8578 209.047L93.3577 208.181ZM84.0586 213.546L84.5579 214.412L84.5581 214.412L84.0586 213.546ZM84.0397 213.557L83.5404 212.69L83.5402 212.69L84.0397 213.557ZM53.8009 231.104L54.3076 231.966L54.3077 231.966L53.8009 231.104ZM48.2099 231.054L48.7246 230.196L48.7245 230.196L48.2099 231.054ZM25.9095 218.201L25.4133 219.069L25.4178 219.072L25.9095 218.201ZM25.9085 218.2L26.4047 217.332L26.4002 217.329L25.9085 218.2ZM25.4732 217.954L24.9811 218.825L24.9815 218.825L25.4732 217.954ZM23.5407 214.42L22.5412 214.386L22.5412 214.386L23.5407 214.42ZM24.3466 186.751L23.848 185.884L23.3613 186.164L23.3469 186.725L24.3466 186.751ZM42.6307 176.235L43.6306 176.226L43.615 174.515L42.1321 175.368L42.6307 176.235ZM42.6256 181.648L43.6254 181.671L43.6254 181.67L42.6256 181.648ZM42.55 185.013L43.5497 185.035L43.5497 185.035L42.55 185.013ZM42.043 204.254L43.0424 204.289L43.0424 204.288L42.043 204.254ZM43.9654 207.55L44.5992 206.776L44.5984 206.776L43.9654 207.55ZM58.173 207.664L58.6884 208.521L58.6885 208.521L58.173 207.664ZM113.536 175.487L113.089 174.592L113.064 174.605L113.04 174.618L113.536 175.487ZM113.536 175.487L113.983 176.381L114.008 176.369L114.032 176.355L113.536 175.487ZM124.075 169.464L124.571 170.332L124.572 170.332L124.075 169.464ZM127.051 164.425L128.043 164.556L128.043 164.555L127.051 164.425ZM120.06 152.674L119.594 153.559L119.594 153.559L120.06 152.674ZM54.7428 118.25L53.848 118.696L53.9917 118.984L54.2767 119.135L54.7428 118.25ZM25.5233 133.237C26.5233 133.23 26.5233 133.23 26.5233 133.23C26.5233 133.23 26.5233 133.23 26.5233 133.23C26.5233 133.229 26.5233 133.229 26.5233 133.228C26.5232 133.227 26.5232 133.225 26.5232 133.222C26.5232 133.217 26.5231 133.209 26.5231 133.198C26.5229 133.177 26.5227 133.146 26.5225 133.105C26.522 133.022 26.5212 132.901 26.5203 132.745C26.5185 132.432 26.516 131.978 26.5133 131.417C26.5079 130.296 26.5015 128.743 26.4977 127.021C26.4901 123.574 26.4931 119.457 26.5349 116.749L24.5352 116.718C24.493 119.446 24.4901 123.579 24.4977 127.025C24.5015 128.75 24.5079 130.304 24.5133 131.427C24.5161 131.989 24.5186 132.443 24.5204 132.756C24.5213 132.913 24.522 133.035 24.5225 133.117C24.5228 133.158 24.523 133.19 24.5231 133.211C24.5232 133.222 24.5232 133.23 24.5233 133.235C24.5233 133.238 24.5233 133.24 24.5233 133.241C24.5233 133.242 24.5233 133.242 24.5233 133.243C24.5233 133.243 24.5233 133.243 24.5233 133.243C24.5233 133.243 24.5233 133.243 25.5233 133.237ZM26.2321 132.531L26.2304 132.529L24.8162 133.944L24.8179 133.945L26.2321 132.531ZM43.0136 123.814L25.0955 132.335L25.9544 134.141L43.8725 125.62L43.0136 123.814ZM43.3197 87.0822C43.177 94.4772 42.9579 103.879 42.7745 111.433C42.6828 115.21 42.6 118.525 42.5402 120.895C42.5102 122.08 42.486 123.03 42.4693 123.682C42.461 124.009 42.4545 124.261 42.4501 124.432C42.4479 124.517 42.4462 124.582 42.4451 124.626C42.4445 124.647 42.4441 124.664 42.4438 124.675C42.4437 124.68 42.4435 124.685 42.4435 124.687C42.4434 124.689 42.4434 124.69 42.4434 124.69C42.4434 124.691 42.4434 124.691 42.4434 124.691C42.4434 124.691 42.4434 124.691 43.443 124.717C44.4427 124.743 44.4427 124.743 44.4427 124.743C44.4427 124.743 44.4427 124.743 44.4427 124.742C44.4427 124.742 44.4428 124.74 44.4428 124.739C44.4429 124.736 44.443 124.732 44.4431 124.727C44.4434 124.716 44.4438 124.699 44.4444 124.677C44.4455 124.634 44.4472 124.569 44.4494 124.483C44.4538 124.312 44.4603 124.06 44.4687 123.734C44.4854 123.081 44.5096 122.131 44.5395 120.946C44.5994 118.575 44.6822 115.26 44.7739 111.482C44.9574 103.927 45.1765 94.521 45.3193 87.1208L43.3197 87.0822ZM43.7693 61.2347C43.6274 69.852 43.4856 78.4678 43.3197 87.0823L45.3193 87.1208C45.4853 78.503 45.6272 69.8844 45.769 61.2676L43.7693 61.2347ZM44.0987 41.8434C43.9821 48.3071 43.8757 54.7713 43.7693 61.2347L45.769 61.2676C45.8754 54.804 45.9818 48.3413 46.0983 41.8795L44.0987 41.8434ZM53.1599 36.5138C52.2779 36.0055 51.2488 35.918 50.2813 36.0569C49.3083 36.1966 48.3233 36.5739 47.4457 37.0928C45.76 38.0896 44.1348 39.8308 44.0987 41.8435L46.0983 41.8794C46.1159 40.8984 47.0118 39.6729 48.4636 38.8144C49.1548 38.4057 49.8928 38.1332 50.5656 38.0366C51.2438 37.9392 51.7833 38.0288 52.1613 38.2467L53.1599 36.5138ZM125.548 78.2605C101.429 64.3263 77.2952 50.4174 53.1598 36.5137L52.1615 38.2467C76.2967 52.1503 100.43 66.0587 124.548 79.9923L125.548 78.2605ZM127.78 80.7428C127.761 80.3246 127.574 79.985 127.407 79.753C127.233 79.512 127.018 79.3013 126.812 79.1262C126.4 78.7755 125.913 78.471 125.548 78.2605L124.548 79.9923C124.875 80.1814 125.241 80.415 125.516 80.649C125.653 80.7662 125.739 80.8595 125.785 80.9227C125.837 80.9949 125.788 80.9595 125.782 80.8344L127.78 80.7428ZM127.892 82.7067C127.851 82.0423 127.81 81.3889 127.78 80.7418L125.782 80.8353C125.813 81.5003 125.855 82.1691 125.896 82.8308L127.892 82.7067ZM127.588 91.4193C128.264 88.5704 128.067 85.528 127.892 82.7067L125.896 82.8308C126.075 85.7148 126.237 88.4492 125.642 90.9571L127.588 91.4193ZM123.734 94.6182C124.478 94.2577 125.316 93.8545 125.994 93.3969C126.643 92.9597 127.372 92.3286 127.588 91.419L125.642 90.9573C125.61 91.0919 125.443 91.3566 124.876 91.7387C124.34 92.1005 123.643 92.4402 122.862 92.818L123.734 94.6182ZM121.995 95.5243C122.483 95.2246 123.077 94.9361 123.734 94.6182L122.862 92.818C122.229 93.1248 121.539 93.4577 120.949 93.8198L121.995 95.5243ZM118.49 97.5533C119.653 96.8997 120.836 96.235 121.995 95.5245L120.949 93.8196C119.829 94.5068 118.679 95.153 117.51 95.8097L118.49 97.5533ZM117.804 97.939C118.032 97.8104 118.261 97.6821 118.49 97.5533L117.51 95.8097C117.281 95.9384 117.051 96.0674 116.822 96.1969L117.804 97.939ZM99.5696 107.056C100.06 107.928 100.06 107.928 100.06 107.928C100.06 107.928 100.06 107.928 100.061 107.927C100.061 107.927 100.061 107.927 100.062 107.927C100.064 107.926 100.066 107.924 100.069 107.923C100.074 107.92 100.083 107.915 100.094 107.908C100.117 107.896 100.151 107.877 100.195 107.852C100.283 107.802 100.414 107.729 100.582 107.634C100.918 107.445 101.405 107.171 102.007 106.832C103.212 106.154 104.88 105.216 106.731 104.174C110.433 102.09 114.869 99.5931 117.804 97.9391L116.822 96.1967C113.888 97.8504 109.452 100.347 105.75 102.431C103.899 103.473 102.231 104.411 101.026 105.089C100.424 105.428 99.937 105.702 99.6009 105.891C99.4329 105.986 99.3024 106.059 99.214 106.109C99.1698 106.134 99.1362 106.153 99.1135 106.165C99.1022 106.172 99.0936 106.177 99.0879 106.18C99.085 106.181 99.0829 106.183 99.0814 106.183C99.0807 106.184 99.0802 106.184 99.0798 106.184C99.0796 106.184 99.0795 106.185 99.0794 106.185C99.0793 106.185 99.0793 106.185 99.5696 107.056ZM118.911 117.103L100.071 106.191L99.0684 107.922L117.908 118.833L118.911 117.103ZM142.542 102.753C137.137 105.746 130.974 109.336 126.165 112.176C123.76 113.597 121.692 114.831 120.225 115.709C119.492 116.149 118.909 116.499 118.509 116.74C118.309 116.86 118.155 116.953 118.051 117.016C117.998 117.048 117.959 117.072 117.932 117.088C117.919 117.096 117.909 117.102 117.902 117.106C117.899 117.108 117.896 117.11 117.894 117.111C117.894 117.111 117.893 117.112 117.892 117.112C117.892 117.112 117.892 117.112 117.892 117.112C117.892 117.112 117.892 117.112 118.409 117.968C118.927 118.823 118.927 118.823 118.927 118.823C118.927 118.823 118.927 118.823 118.928 118.823C118.928 118.823 118.929 118.823 118.93 118.822C118.931 118.821 118.934 118.82 118.937 118.818C118.944 118.814 118.954 118.808 118.967 118.8C118.993 118.784 119.032 118.76 119.084 118.729C119.188 118.666 119.341 118.573 119.541 118.453C119.939 118.213 120.521 117.863 121.253 117.425C122.717 116.548 124.781 115.316 127.182 113.898C131.985 111.061 138.13 107.482 143.511 104.503L142.542 102.753ZM144.127 100.102C144.135 100.865 144.007 101.337 143.796 101.686C143.582 102.041 143.215 102.38 142.542 102.753L143.511 104.502C144.352 104.036 145.046 103.485 145.508 102.721C145.973 101.951 146.137 101.075 146.127 100.081L144.127 100.102ZM144.083 96.153C144.098 97.4701 144.114 98.7862 144.127 100.102L146.127 100.082C146.114 98.7642 146.098 97.4465 146.083 96.1296L144.083 96.153ZM144.197 74.0322C143.911 81.4087 143.997 88.7979 144.083 96.153L146.083 96.1296C145.997 88.766 145.911 81.4273 146.195 74.1097L144.197 74.0322ZM140.511 68.0439C141.922 68.8431 142.84 69.5699 143.41 70.4379C143.965 71.2822 144.261 72.37 144.197 74.0324L146.195 74.1096C146.27 72.1638 145.929 70.629 145.082 69.3398C144.251 68.0742 143.003 67.1564 141.496 66.3035L140.511 68.0439ZM104.188 47.1774C116.271 54.1688 128.358 61.1628 140.511 68.0439L141.496 66.3035C129.353 59.4278 117.274 52.4385 105.19 45.4463L104.188 47.1774ZM91.0796 39.5997C95.4509 42.1219 99.8193 44.6495 104.188 47.1774L105.19 45.4463C100.821 42.9185 96.4517 40.3903 92.0791 37.8673L91.0796 39.5997ZM85.0979 36.1474C87.0916 37.2983 89.0855 38.4492 91.0796 39.5997L92.0791 37.8673C90.0852 36.7169 88.0915 35.5661 86.0978 34.4153L85.0979 36.1474ZM52.4281 17.3814C63.3436 23.5903 74.2188 29.8677 85.0979 36.1474L86.0978 34.4153C75.2195 28.1361 64.3389 21.8555 53.417 15.643L52.4281 17.3814ZM50.1607 17.1164C50.3041 17.0376 50.6556 16.9653 51.1731 17.0179C51.6661 17.068 52.1351 17.2147 52.428 17.3814L53.4171 15.643C52.8336 15.3111 52.0836 15.1001 51.3754 15.0281C50.6915 14.9586 49.8594 14.9996 49.1968 15.364L50.1607 17.1164ZM29.3684 29.0493C36.2418 24.9668 43.1648 20.9714 50.1614 17.116L49.1962 15.3644C42.1767 19.2323 35.2346 23.2389 28.3471 27.3297L29.3684 29.0493ZM28.2501 30.897C28.2752 30.6242 28.4086 30.2339 28.6449 29.8448C28.8831 29.4529 29.1574 29.1747 29.3685 29.0492L28.347 27.3298C27.764 27.6762 27.2793 28.2408 26.9357 28.8063C26.5904 29.3747 26.319 30.0564 26.2585 30.7137L28.2501 30.897ZM27.8042 40.9839C27.863 37.5944 27.9449 34.2291 28.2502 30.8966L26.2585 30.7142C25.9458 34.1278 25.8633 37.5589 25.8045 40.9492L27.8042 40.9839ZM26.5349 116.75C26.9311 91.4935 27.3626 66.239 27.8042 40.984L25.8045 40.9491C25.3629 66.2045 24.9314 91.4604 24.5352 116.718L26.5349 116.75ZM65.7911 148.095C67.4183 147.184 69.8629 145.773 71.8961 144.591C72.9137 144 73.8299 143.465 74.4918 143.079C74.8227 142.885 75.0901 142.729 75.2747 142.621C75.3671 142.567 75.4387 142.525 75.4873 142.496C75.5116 142.482 75.5302 142.471 75.5426 142.464C75.5489 142.46 75.5536 142.457 75.5568 142.455C75.5583 142.454 75.5595 142.454 75.5603 142.453C75.5607 142.453 75.561 142.453 75.5612 142.453C75.5613 142.453 75.5614 142.453 75.5615 142.453C75.5615 142.453 75.5616 142.453 75.0557 141.59C74.5499 140.727 74.5499 140.727 74.5499 140.727C74.5498 140.727 74.5498 140.727 74.5497 140.727C74.5495 140.728 74.5492 140.728 74.5488 140.728C74.548 140.728 74.5468 140.729 74.5453 140.73C74.5422 140.732 74.5375 140.735 74.5313 140.738C74.5189 140.745 74.5005 140.756 74.4763 140.77C74.4279 140.799 74.3564 140.841 74.2643 140.895C74.08 141.002 73.8132 141.159 73.4828 141.352C72.8219 141.738 71.9071 142.272 70.8913 142.862C68.8576 144.044 66.4256 145.448 64.814 146.35L65.7911 148.095ZM12.7827 177.742C30.4538 167.864 48.1254 157.985 65.791 148.095L64.8141 146.35C47.1491 156.24 29.478 166.118 11.8068 175.996L12.7827 177.742ZM-2.46163 186.264C2.61967 183.423 7.70114 180.583 12.7827 177.742L11.8068 175.996C6.72526 178.837 1.64374 181.677 -3.43761 184.518L-2.46163 186.264ZM-6.12314 188.299C-4.90309 187.623 -3.68103 186.946 -2.4615 186.264L-3.43774 184.518C-4.65327 185.198 -5.87189 185.873 -7.09252 186.55L-6.12314 188.299ZM-14.7543 193.166C-11.9069 191.504 -9.02068 189.905 -6.12315 188.299L-7.09251 186.55C-9.98681 188.154 -12.8925 189.764 -15.7622 191.438L-14.7543 193.166ZM-19.3019 193.229C-18.5179 193.694 -17.756 193.946 -16.946 193.909C-16.1534 193.874 -15.4418 193.567 -14.7543 193.166L-15.7622 191.438C-16.3322 191.771 -16.7128 191.897 -17.0355 191.911C-17.3407 191.925 -17.7171 191.844 -18.283 191.508L-19.3019 193.229ZM-41.0402 180.683C-33.7529 184.795 -26.4993 188.966 -19.3021 193.229L-18.2828 191.509C-25.4947 187.236 -32.7608 183.059 -40.0572 178.941L-41.0402 180.683ZM-43.9866 175.871C-43.9885 177.021 -43.7572 177.982 -43.2162 178.805C-42.6853 179.611 -41.9195 180.186 -41.0405 180.683L-40.0569 178.941C-40.8098 178.516 -41.2646 178.132 -41.5455 177.705C-41.8163 177.294 -41.988 176.746 -41.9866 175.875L-43.9866 175.871ZM-44 72.0688C-43.9312 106.67 -43.9261 141.27 -43.9866 175.871L-41.9866 175.875C-41.9261 141.271 -41.9311 106.668 -42 72.0648L-44 72.0688ZM-41.2636 67.4051C-42.1092 67.8868 -42.8212 68.4655 -43.3081 69.2624C-43.7983 70.0648 -44.0019 70.992 -44 72.0685L-42 72.065C-42.0014 71.2459 -41.8483 70.7092 -41.6014 70.3052C-41.3512 69.8957 -40.9459 69.5258 -40.2736 69.1428L-41.2636 67.4051ZM-33.5283 62.9705C-36.1061 64.4534 -38.6817 65.9351 -41.2634 67.4049L-40.2739 69.143C-37.6877 67.6706 -35.1082 66.1867 -32.531 64.7041L-33.5283 62.9705ZM-33.5249 62.9685L-33.5265 62.9694L-32.5328 64.7051L-32.5313 64.7042L-33.5249 62.9685ZM-20.6757 55.6466C-24.9817 58.0538 -29.2573 60.5135 -33.5267 62.9696L-32.5294 64.7032C-28.2583 62.2461 -23.9932 59.7925 -19.6997 57.3923L-20.6757 55.6466ZM-16.9515 55.5561C-17.5246 55.2432 -18.2339 55.1568 -18.8404 55.1795C-19.4549 55.2025 -20.1341 55.3439 -20.6756 55.6465L-19.6998 57.3923C-19.5143 57.2887 -19.1702 57.1933 -18.7655 57.1781C-18.3529 57.1626 -18.0473 57.2365 -17.9101 57.3115L-16.9515 55.5561ZM5.00487 67.6437C-2.01958 63.7487 -7.82673 60.5286 -16.9523 55.5557L-17.9093 57.3119C-8.79049 62.2811 -2.98863 65.4982 4.035 69.3928L5.00487 67.6437ZM5.00883 67.6459L5.00854 67.6458L4.03133 69.3908L4.03162 69.3909L5.00883 67.6459ZM5.00606 67.6444L5.00412 67.6433L4.03633 69.3936L4.03827 69.3946L5.00606 67.6444ZM15.86 73.6545C11.6963 71.3541 8.22405 69.4288 5.00711 67.645L4.03723 69.3941C7.25416 71.1779 10.7276 73.1039 14.8928 75.4051L15.86 73.6545ZM14.7821 94.9009C15.7811 94.9459 15.7811 94.9458 15.7811 94.9457C15.7811 94.9455 15.7811 94.9453 15.7811 94.9449C15.7811 94.9443 15.7812 94.9434 15.7812 94.9422C15.7813 94.9397 15.7815 94.936 15.7817 94.9311C15.7822 94.9214 15.7828 94.9069 15.7837 94.8877C15.7854 94.8494 15.7879 94.7926 15.7912 94.7185C15.7978 94.5704 15.8075 94.3531 15.8196 94.0766C15.8439 93.5236 15.8782 92.7335 15.9184 91.7848C15.9989 89.8877 16.1028 87.3558 16.1969 84.8179C16.291 82.2812 16.3754 79.7339 16.4165 77.8078C16.437 76.8463 16.447 76.0307 16.4415 75.4459C16.4388 75.1563 16.4322 74.907 16.4195 74.7198C16.4134 74.6302 16.4043 74.5275 16.3877 74.4323C16.3801 74.3885 16.3648 74.3093 16.3338 74.2209C16.3183 74.177 16.2888 74.101 16.2367 74.0158C16.1921 73.9428 16.0786 73.7755 15.8605 73.6548L14.8924 75.4049C14.6792 75.2869 14.5705 75.1247 14.5305 75.0593C14.4831 74.9818 14.458 74.9157 14.4469 74.8842C14.4246 74.8205 14.4174 74.7754 14.4173 74.775C14.4158 74.7664 14.4195 74.787 14.4241 74.855C14.4327 74.9828 14.4389 75.1853 14.4416 75.4646C14.4467 76.0178 14.4374 76.8086 14.417 77.7651C14.3762 79.675 14.2923 82.2095 14.1983 84.7438C14.1044 87.2769 14.0006 89.805 13.9202 91.7001C13.8801 92.6476 13.8458 93.4367 13.8215 93.9889C13.8094 94.2649 13.7998 94.4818 13.7932 94.6295C13.7899 94.7034 13.7874 94.7601 13.7857 94.7982C13.7848 94.8173 13.7842 94.8317 13.7837 94.8414C13.7835 94.8462 13.7834 94.8498 13.7833 94.8523C13.7832 94.8535 13.7832 94.8544 13.7831 94.855C13.7831 94.8553 13.7831 94.8555 13.7831 94.8557C13.7831 94.8558 13.7831 94.8559 14.7821 94.9009ZM-0.0751065 87.9313C2.29657 89.2352 5.89191 91.1975 8.89323 92.8332C10.3941 93.6512 11.7469 94.3877 12.7244 94.9197C13.2132 95.1858 13.6081 95.4007 13.8809 95.5491C14.0173 95.6233 14.1231 95.6808 14.1949 95.7199C14.2308 95.7394 14.2581 95.7543 14.2765 95.7643C14.2857 95.7693 14.2927 95.773 14.2973 95.7756C14.2996 95.7768 14.3014 95.7778 14.3026 95.7784C14.3031 95.7787 14.3036 95.779 14.3039 95.7791C14.304 95.7792 14.3041 95.7793 14.3042 95.7793C14.3043 95.7794 14.3043 95.7794 14.7821 94.9009C15.2598 94.0224 15.2598 94.0224 15.2597 94.0223C15.2596 94.0223 15.2595 94.0222 15.2594 94.0222C15.2591 94.022 15.2587 94.0218 15.2581 94.0214C15.2569 94.0208 15.2552 94.0199 15.2528 94.0186C15.2482 94.0161 15.2412 94.0123 15.2321 94.0073C15.2137 93.9973 15.1864 93.9824 15.1505 93.9629C15.0788 93.9239 14.973 93.8664 14.8367 93.7922C14.564 93.6439 14.1691 93.429 13.6805 93.1631C12.7032 92.6312 11.3508 91.8948 9.85032 91.0771C6.84888 89.4413 3.2565 87.4806 0.888423 86.1787L-0.0751065 87.9313ZM-7.06379 84.0732C-4.73608 85.3605 -2.40724 86.6485 -0.075307 87.9312L0.888623 86.1788C-1.44097 84.8974 -3.76781 83.6105 -6.09585 82.323L-7.06379 84.0732ZM-7.07628 84.0661L-7.07596 84.0663L-6.08368 82.3298L-6.084 82.3297L-7.07628 84.0661ZM-17.6181 78.26C-14.0943 80.1849 -10.5805 82.1282 -7.06411 84.073L-6.09617 82.3228C-9.6118 80.3785 -13.1302 78.4326 -16.6593 76.5048L-17.6181 78.26ZM-18.544 77.8807C-18.6162 77.913 -18.6467 77.9016 -18.5931 77.9039C-18.5438 77.906 -18.4616 77.9181 -18.3458 77.9507C-18.1125 78.0163 -17.8457 78.1355 -17.6185 78.2598L-16.6589 76.505C-16.9689 76.3355 -17.3796 76.1449 -17.804 76.0255C-18.1761 75.9208 -18.7921 75.801 -19.36 76.0547L-18.544 77.8807ZM-19.4135 78.2563C-19.1266 78.1344 -18.8322 78.0093 -18.5444 77.8809L-19.3595 76.0545C-19.6281 76.1744 -19.9058 76.2924 -20.1957 76.4156L-19.4135 78.2563ZM-22.7908 80.2501C-22.0763 79.4104 -20.871 78.8757 -19.4135 78.2563L-20.1957 76.4156C-21.5316 76.9833 -23.2333 77.684 -24.314 78.954L-22.7908 80.2501ZM-23.6521 84.0938C-23.6505 83.3644 -23.6019 82.5783 -23.4578 81.8682C-23.3106 81.143 -23.0824 80.5929 -22.7906 80.2499L-24.3141 78.9541C-24.9206 79.6672 -25.2406 80.5972 -25.4178 81.4703C-25.5982 82.3587 -25.6503 83.2893 -25.6521 84.0894L-23.6521 84.0938ZM-23.6897 119.381C-23.6841 107.618 -23.6785 95.8559 -23.6521 84.0939L-25.6521 84.0894C-25.6785 95.8535 -25.6841 107.617 -25.6897 119.38L-23.6897 119.381ZM-23.7562 164.988C-23.7041 149.785 -23.6969 134.582 -23.6897 119.381L-25.6897 119.38C-25.6969 134.582 -25.7041 149.782 -25.7562 164.981L-23.7562 164.988ZM-21.5654 168.623C-22.3782 167.994 -22.9022 167.534 -23.2441 167.016C-23.5602 166.537 -23.7598 165.945 -23.7562 164.989L-25.7562 164.981C-25.761 166.26 -25.4829 167.254 -24.9133 168.117C-24.3696 168.941 -23.5999 169.578 -22.7891 170.205L-21.5654 168.623ZM-12.0937 168.579C-14.0022 169.668 -15.5575 170.276 -17.0121 170.335C-18.4226 170.392 -19.8666 169.937 -21.5653 168.623L-22.7892 170.205C-20.8077 171.738 -18.9139 172.414 -16.9307 172.333C-14.9916 172.254 -13.0975 171.455 -11.1023 170.316L-12.0937 168.579ZM55.0155 131.741C54.5249 130.87 54.5247 130.87 54.5244 130.87C54.5241 130.87 54.5236 130.87 54.523 130.871C54.5217 130.871 54.5198 130.872 54.5173 130.874C54.5123 130.877 54.5049 130.881 54.4949 130.887C54.4751 130.898 54.4454 130.914 54.406 130.937C54.3274 130.981 54.2104 131.047 54.0566 131.133C53.7491 131.307 53.2948 131.562 52.7076 131.893C51.5331 132.555 49.8268 133.516 47.6996 134.715C43.4453 137.114 37.5075 140.463 30.7732 144.267C17.3051 151.875 0.650007 161.303 -12.0939 168.579L-11.1022 170.316C1.63745 163.042 18.2892 153.616 31.7569 146.009C38.4905 142.205 44.4279 138.856 48.6818 136.458C50.8088 135.259 52.5149 134.297 53.6892 133.636C54.2764 133.305 54.7306 133.049 55.038 132.876C55.1917 132.789 55.3088 132.724 55.3873 132.679C55.4266 132.657 55.4563 132.64 55.4762 132.629C55.4861 132.624 55.4936 132.619 55.4986 132.617C55.5011 132.615 55.5029 132.614 55.5042 132.613C55.5048 132.613 55.5053 132.613 55.5056 132.613C55.5059 132.613 55.5061 132.612 55.0155 131.741ZM75.4968 140.692L55.4565 130.844L54.5744 132.639L74.6147 142.487L75.4968 140.692ZM54.3527 96.4371L53.7415 118.218L55.7407 118.275L56.3519 96.4932L54.3527 96.4371ZM77.7297 107.565C74.106 105.572 68.631 102.578 64.0627 100.082C61.7784 98.8335 59.7206 97.7099 58.2338 96.8984C57.4904 96.4926 56.8897 96.1648 56.4749 95.9385C56.2675 95.8253 56.1066 95.7375 55.9975 95.678C55.943 95.6482 55.9014 95.6256 55.8734 95.6103C55.8595 95.6027 55.8489 95.5969 55.8418 95.5931C55.8383 95.5911 55.8356 95.5897 55.8338 95.5887C55.8329 95.5882 55.8323 95.5879 55.8318 95.5876C55.8316 95.5875 55.8314 95.5874 55.8313 95.5873C55.8312 95.5873 55.8312 95.5872 55.3523 96.4651C54.8734 97.343 54.8735 97.343 54.8736 97.3431C54.8737 97.3432 54.8738 97.3432 54.8741 97.3434C54.8745 97.3436 54.8752 97.344 54.8761 97.3445C54.8778 97.3454 54.8805 97.3469 54.884 97.3488C54.8911 97.3527 54.9017 97.3584 54.9156 97.366C54.9436 97.3813 54.9851 97.404 55.0397 97.4337C55.1487 97.4932 55.3096 97.581 55.517 97.6941C55.9317 97.9204 56.5322 98.2482 57.2756 98.6539C58.7622 99.4653 60.8198 100.589 63.1038 101.837C67.6721 104.333 73.1449 107.326 76.766 109.318L77.7297 107.565ZM95.5373 117.368C89.6021 114.099 83.6668 110.831 77.7298 107.565L76.7659 109.317C82.7024 112.583 88.6372 115.851 94.5724 119.12L95.5373 117.368ZM95.5502 117.375L95.537 117.368L94.5727 119.12L94.5859 119.127L95.5502 117.375ZM142.781 143.309C127.017 134.705 111.284 126.041 95.5505 117.375L94.5856 119.127C110.319 127.792 126.055 136.458 141.822 145.065L142.781 143.309ZM146.159 148.984C146.184 147.653 145.975 146.532 145.381 145.565C144.792 144.606 143.895 143.917 142.78 143.309L141.823 145.065C142.792 145.593 143.347 146.075 143.677 146.612C144.002 147.141 144.18 147.841 144.159 148.947L146.159 148.984ZM146.126 176.104C146.052 167.054 145.99 158.015 146.159 148.984L144.159 148.946C143.99 158.008 144.052 167.072 144.126 176.121L146.126 176.104ZM143.726 180.296C144.528 179.836 145.169 179.297 145.586 178.561C146.002 177.826 146.133 177.006 146.126 176.104L144.126 176.121C144.132 176.828 144.026 177.258 143.846 177.575C143.667 177.89 143.352 178.205 142.731 178.561L143.726 180.296ZM103.293 203.596C116.762 195.812 130.23 188.029 143.726 180.296L142.731 178.561C129.232 186.296 115.761 194.081 102.292 201.864L103.293 203.596ZM93.8578 209.047C97.003 207.23 100.148 205.413 103.293 203.596L102.292 201.864C99.1471 203.681 96.0024 205.499 92.8575 207.315L93.8578 209.047ZM84.5581 214.412C87.6582 212.625 90.7587 210.837 93.8578 209.047L92.8575 207.315C89.7591 209.105 86.6593 210.892 83.5591 212.679L84.5581 214.412ZM84.539 214.423L84.5579 214.412L83.5593 212.679L83.5404 212.69L84.539 214.423ZM54.3077 231.966C64.3502 226.063 74.4424 220.244 84.5392 214.423L83.5402 212.69C73.4447 218.511 63.3452 224.333 53.2941 230.242L54.3077 231.966ZM47.6952 231.911C48.8016 232.575 49.859 232.983 50.9864 232.996C52.1166 233.01 53.1838 232.627 54.3076 231.966L53.2943 230.242C52.3495 230.797 51.6462 231.004 51.0106 230.996C50.3721 230.989 49.6682 230.763 48.7246 230.196L47.6952 231.911ZM25.4178 219.072C32.8919 223.292 40.3534 227.505 47.6954 231.911L48.7245 230.196C41.3561 225.775 33.8714 221.548 26.4012 217.33L25.4178 219.072ZM25.4124 219.068L25.4134 219.069L26.4056 217.333L26.4047 217.332L25.4124 219.068ZM24.9815 218.825L25.4169 219.071L26.4002 217.329L25.9649 217.084L24.9815 218.825ZM22.5412 214.386C22.5072 215.396 22.6241 216.279 23.0557 217.053C23.4888 217.829 24.1659 218.364 24.9811 218.825L25.9653 217.084C25.3013 216.708 24.9811 216.399 24.8022 216.078C24.6218 215.755 24.512 215.289 24.5401 214.454L22.5412 214.386ZM24.3466 186.751C23.3469 186.725 23.3469 186.725 23.3469 186.725C23.3469 186.725 23.3469 186.725 23.3469 186.726C23.3469 186.726 23.3469 186.727 23.3468 186.728C23.3468 186.73 23.3467 186.733 23.3466 186.736C23.3464 186.744 23.3461 186.756 23.3457 186.771C23.3449 186.802 23.3437 186.847 23.3422 186.907C23.3391 187.027 23.3345 187.204 23.3285 187.434C23.3165 187.894 23.2988 188.565 23.2765 189.405C23.2318 191.087 23.168 193.45 23.092 196.178C22.9398 201.636 22.7384 208.551 22.5412 214.386L24.5401 214.454C24.7375 208.612 24.939 201.693 25.0912 196.234C25.1673 193.505 25.231 191.14 25.2758 189.458C25.2982 188.617 25.3158 187.947 25.3278 187.487C25.3338 187.257 25.3384 187.079 25.3415 186.959C25.3431 186.899 25.3443 186.853 25.345 186.823C25.3454 186.807 25.3457 186.796 25.3459 186.788C25.346 186.784 25.3461 186.781 25.3462 186.779C25.3462 186.778 25.3462 186.777 25.3462 186.777C25.3462 186.777 25.3462 186.777 25.3462 186.776C25.3462 186.776 25.3462 186.776 24.3466 186.751ZM42.1321 175.368L23.848 185.884L24.8451 187.617L43.1292 177.102L42.1321 175.368ZM43.6254 181.67C43.645 180.785 43.6462 179.42 43.6426 178.285C43.6408 177.716 43.6378 177.201 43.6353 176.829C43.634 176.643 43.6328 176.492 43.632 176.388C43.6316 176.336 43.6312 176.296 43.631 176.268C43.6309 176.254 43.6308 176.244 43.6307 176.237C43.6307 176.233 43.6307 176.231 43.6306 176.229C43.6306 176.228 43.6306 176.227 43.6306 176.227C43.6306 176.226 43.6306 176.226 43.6306 176.226C43.6306 176.226 43.6306 176.226 43.6306 176.226C43.6306 176.226 43.6306 176.226 42.6307 176.235C41.6307 176.244 41.6307 176.244 41.6307 176.244C41.6307 176.244 41.6307 176.244 41.6307 176.244C41.6307 176.244 41.6307 176.245 41.6307 176.245C41.6307 176.245 41.6307 176.246 41.6307 176.247C41.6307 176.249 41.6308 176.251 41.6308 176.255C41.6309 176.262 41.6309 176.272 41.6311 176.285C41.6313 176.313 41.6316 176.353 41.6321 176.404C41.6329 176.508 41.6341 176.657 41.6353 176.843C41.6379 177.213 41.6408 177.725 41.6426 178.291C41.6462 179.427 41.6449 180.769 41.6259 181.626L43.6254 181.67ZM43.5497 185.035C43.5748 183.913 43.5999 182.792 43.6254 181.671L41.6259 181.625C41.6004 182.747 41.5753 183.869 41.5502 184.99L43.5497 185.035ZM43.0424 204.288C43.2628 197.869 43.4063 191.448 43.5497 185.035L41.5502 184.99C41.4068 191.405 41.2634 197.814 41.0436 204.22L43.0424 204.288ZM44.5984 206.776C43.9721 206.264 43.5985 205.94 43.3575 205.586C43.1537 205.287 43.0204 204.924 43.0424 204.289L41.0436 204.219C41.0086 205.228 41.2337 206.02 41.704 206.711C42.1372 207.348 42.7533 207.85 43.3325 208.324L44.5984 206.776ZM57.6575 206.807C55.0354 208.384 52.8675 209.239 50.8439 209.294C48.8628 209.349 46.875 208.641 44.5992 206.776L43.3317 208.323C45.8762 210.408 48.3184 211.365 50.8991 211.294C53.4373 211.224 55.963 210.16 58.6884 208.521L57.6575 206.807ZM113.04 174.618C94.5051 185.204 75.9569 195.798 57.6575 206.807L58.6885 208.521C76.9652 197.525 95.4938 186.943 114.032 176.355L113.04 174.618ZM113.089 174.592L113.089 174.592L113.983 176.381L113.983 176.381L113.089 174.592ZM123.578 168.596C120.067 170.605 116.554 172.611 113.04 174.618L114.032 176.355C117.545 174.348 121.059 172.341 124.571 170.332L123.578 168.596ZM126.06 164.295C125.905 165.469 125.719 166.267 125.375 166.904C125.048 167.51 124.535 168.048 123.578 168.596L124.572 170.332C125.775 169.642 126.593 168.859 127.135 167.854C127.661 166.88 127.882 165.777 128.043 164.556L126.06 164.295ZM119.594 153.559C122.202 154.933 123.963 156.268 125.005 157.886C126.024 159.469 126.434 161.449 126.06 164.295L128.043 164.555C128.46 161.385 128.031 158.891 126.686 156.803C125.364 154.75 123.234 153.217 120.526 151.789L119.594 153.559ZM54.7428 118.25C54.2767 119.135 54.2768 119.135 54.2772 119.135C54.2775 119.135 54.278 119.135 54.2787 119.136C54.28 119.136 54.282 119.137 54.2846 119.139C54.2899 119.142 54.2979 119.146 54.3085 119.151C54.3296 119.162 54.3611 119.179 54.4029 119.201C54.4863 119.245 54.6105 119.311 54.7734 119.396C55.0992 119.568 55.5799 119.821 56.1993 120.148C57.4381 120.8 59.2319 121.746 61.4518 122.915C65.8916 125.255 72.0358 128.493 78.8535 132.085C92.4889 139.271 108.818 147.877 119.594 153.559L120.527 151.789C109.751 146.108 93.4213 137.502 79.7859 130.316C72.9682 126.723 66.824 123.485 62.3842 121.146C60.1643 119.976 58.3705 119.031 57.1316 118.378C56.5122 118.052 56.0316 117.799 55.7057 117.627C55.5428 117.541 55.4186 117.476 55.3352 117.432C55.2934 117.41 55.2619 117.393 55.2408 117.382C55.2302 117.376 55.2223 117.372 55.217 117.369C55.2143 117.368 55.2123 117.367 55.211 117.366C55.2103 117.366 55.2098 117.366 55.2095 117.365C55.2091 117.365 55.209 117.365 54.7428 118.25ZM53.8463 118.693L53.848 118.696L55.6376 117.803L55.636 117.8L53.8463 118.693Z" fill="url(#paint5_linear_4457_6028)" mask="url(#path-5-inside-2_4457_6028)"/>
</g>
<g style="mix-blend-mode:screen" filter="url(#filter0_f_4457_6028)">
<path d="M-14.2361 342.927C63.4421 123.245 230.659 18.942 272.603 -9.99996L-262.098 155.528L-183.451 625.162C-68.4419 598.722 -87.64 550.522 -14.2361 342.927Z" fill="url(#paint6_radial_4457_6028)" fill-opacity="0.2"/>
</g>
</g>
<defs>
<filter id="filter0_f_4457_6028" x="-336.072" y="-83.9747" width="682.651" height="783.111" filterUnits="userSpaceOnUse" color-interpolation-filters="sRGB">
<feFlood flood-opacity="0" result="BackgroundImageFix"/>
<feBlend mode="normal" in="SourceGraphic" in2="BackgroundImageFix" result="shape"/>
<feGaussianBlur stdDeviation="36.9873" result="effect1_foregroundBlur_4457_6028"/>
</filter>
<linearGradient id="paint0_linear_4457_6028" x1="-73.5" y1="79" x2="798" y2="78.5" gradientUnits="userSpaceOnUse">
<stop stop-color="#1B1B1F"/>
<stop offset="1" stop-color="#17171A"/>
</linearGradient>
<linearGradient id="paint1_linear_4457_6028" x1="399" y1="0" x2="399" y2="157" gradientUnits="userSpaceOnUse">
<stop stop-color="white" stop-opacity="0.29"/>
<stop offset="1" stop-color="white" stop-opacity="0.78"/>
</linearGradient>
<linearGradient id="paint2_linear_4457_6028" x1="48" y1="-103.297" x2="48" y2="345.297" gradientUnits="userSpaceOnUse">
<stop stop-color="#1A1A1D"/>
<stop offset="1" stop-color="#292930"/>
</linearGradient>
<linearGradient id="paint3_linear_4457_6028" x1="48" y1="-103.297" x2="48" y2="345.297" gradientUnits="userSpaceOnUse">
<stop stop-color="#1A1A1D"/>
<stop offset="1" stop-color="#404048"/>
</linearGradient>
<linearGradient id="paint4_linear_4457_6028" x1="51.1026" y1="16" x2="51.1026" y2="231.997" gradientUnits="userSpaceOnUse">
<stop stop-color="#1A1A1D"/>
<stop offset="1" stop-color="#292930"/>
</linearGradient>
<linearGradient id="paint5_linear_4457_6028" x1="51.1026" y1="16" x2="51.1026" y2="231.997" gradientUnits="userSpaceOnUse">
<stop stop-color="#1A1A1D"/>
<stop offset="1" stop-color="#404048"/>
</linearGradient>
<radialGradient id="paint6_radial_4457_6028" cx="0" cy="0" r="1" gradientUnits="userSpaceOnUse" gradientTransform="translate(130.938 291.978) rotate(-150.409) scale(306.983 306.992)">
<stop offset="0.409332" stop-color="#4193FF"/>
<stop offset="1" stop-opacity="0"/>
<stop offset="1" stop-color="#2D2E32" stop-opacity="0"/>
</radialGradient>
</defs>
</svg>
