<svg width="48" height="48" viewBox="0 0 48 48" fill="none" xmlns="http://www.w3.org/2000/svg">
<g filter="url(#filter0_b_4794_10127)">
<rect width="48" height="48" rx="8" fill="#224BFF"/>
</g>
<path d="M33.0101 15.5017C31.3529 14.7413 29.5759 14.1811 27.7179 13.8602C27.6841 13.854 27.6503 13.8695 27.6328 13.9005C27.4043 14.3069 27.1511 14.8372 26.9739 15.254C24.9754 14.9549 22.9873 14.9549 21.0298 15.254C20.8525 14.828 20.5902 14.3069 20.3606 13.9005C20.3432 13.8705 20.3094 13.8551 20.2756 13.8602C18.4186 14.1801 16.6415 14.7403 14.9833 15.5017C14.969 15.5079 14.9567 15.5182 14.9485 15.5316C11.5778 20.5673 10.6545 25.4793 11.1074 30.3303C11.1095 30.354 11.1228 30.3767 11.1413 30.3912C13.3651 32.0243 15.5194 33.0158 17.6336 33.673C17.6674 33.6833 17.7032 33.6709 17.7248 33.6431C18.2249 32.9601 18.6707 32.24 19.0529 31.4827C19.0755 31.4384 19.054 31.3857 19.0079 31.3682C18.3007 31.0999 17.6274 30.7729 16.9797 30.4015C16.9285 30.3716 16.9244 30.2983 16.9715 30.2632C17.1078 30.1611 17.2441 30.0548 17.3743 29.9475C17.3978 29.9279 17.4306 29.9238 17.4583 29.9362C21.7134 31.8789 26.32 31.8789 30.5249 29.9362C30.5526 29.9228 30.5854 29.9269 30.6099 29.9465C30.7401 30.0538 30.8764 30.1611 31.0137 30.2632C31.0609 30.2983 31.0578 30.3716 31.0066 30.4015C30.3589 30.7801 29.6855 31.0999 28.9774 31.3672C28.9313 31.3847 28.9108 31.4384 28.9333 31.4827C29.3238 32.2389 29.7696 32.9591 30.2605 33.6421C30.281 33.6709 30.3179 33.6833 30.3517 33.673C32.4761 33.0158 34.6303 32.0243 36.8542 30.3912C36.8737 30.3767 36.886 30.3551 36.8881 30.3313C37.4302 24.723 35.98 19.8513 33.0439 15.5326C33.0367 15.5182 33.0245 15.5079 33.0101 15.5017ZM19.6884 27.3765C18.4073 27.3765 17.3517 26.2004 17.3517 24.756C17.3517 23.3116 18.3868 22.1355 19.6884 22.1355C21.0001 22.1355 22.0455 23.322 22.025 24.756C22.025 26.2004 20.9899 27.3765 19.6884 27.3765ZM28.3276 27.3765C27.0466 27.3765 25.9911 26.2004 25.9911 24.756C25.9911 23.3116 27.0261 22.1355 28.3276 22.1355C29.6394 22.1355 30.6847 23.322 30.6643 24.756C30.6643 26.2004 29.6394 27.3765 28.3276 27.3765Z" fill="white"/>
<defs>
<filter id="filter0_b_4794_10127" x="-79.6" y="-79.6" width="207.2" height="207.2" filterUnits="userSpaceOnUse" color-interpolation-filters="sRGB">
<feFlood flood-opacity="0" result="BackgroundImageFix"/>
<feGaussianBlur in="BackgroundImageFix" stdDeviation="39.8"/>
<feComposite in2="SourceAlpha" operator="in" result="effect1_backgroundBlur_4794_10127"/>
<feBlend mode="normal" in="SourceGraphic" in2="effect1_backgroundBlur_4794_10127" result="shape"/>
</filter>
</defs>
</svg>
