<svg width="16" height="16" viewBox="0 0 16 16" fill="none" xmlns="http://www.w3.org/2000/svg">
<path d="M5 5.56055H9.93333C10.5267 5.56055 11 6.04053 11 6.6272V7.80721" stroke="#2A2828" stroke-width="1.2" stroke-linecap="round" stroke-linejoin="round"/>
<path d="M6.12667 4.44043L5 5.56047L6.12667 6.68713" stroke="#292D32" stroke-width="1.5" stroke-miterlimit="10" stroke-linecap="round" stroke-linejoin="round"/>
<path d="M11 10.44H6.06667C5.47334 10.44 5 9.96004 5 9.37337V8.19336" stroke="#292D32" stroke-width="1.5" stroke-miterlimit="10" stroke-linecap="round" stroke-linejoin="round"/>
<path d="M9.87305 11.5602L10.9997 10.4401L9.87305 9.31348" stroke="#2A2828" stroke-width="1.2" stroke-linecap="round" stroke-linejoin="round"/>
<path d="M8.00065 14.6663C11.6825 14.6663 14.6673 11.6816 14.6673 7.99967C14.6673 4.31778 11.6825 1.33301 8.00065 1.33301C4.31875 1.33301 1.33398 4.31778 1.33398 7.99967C1.33398 11.6816 4.31875 14.6663 8.00065 14.6663Z" stroke="#2A2828" stroke-width="1.2" stroke-linecap="round" stroke-linejoin="round"/>
</svg>
