<svg width="16" height="16" viewBox="0 0 16 16" fill="none" xmlns="http://www.w3.org/2000/svg">
<path d="M11.8674 1.40002L5.24738 3.06002C4.28071 3.30002 3.30071 4.28002 3.06071 5.24669L1.40071 11.8667C0.900713 13.8667 2.12738 15.1 4.13405 14.6L10.754 12.9467C11.714 12.7067 12.7007 11.72 12.9407 10.76L14.6007 4.13335C15.1007 2.13335 13.8674 0.900021 11.8674 1.40002Z" stroke="#7B46FF" stroke-width="1.2" stroke-linecap="round" stroke-linejoin="round"/>
<path d="M7.99935 10.3334C9.28801 10.3334 10.3327 9.28868 10.3327 8.00002C10.3327 6.71136 9.28801 5.66669 7.99935 5.66669C6.71068 5.66669 5.66602 6.71136 5.66602 8.00002C5.66602 9.28868 6.71068 10.3334 7.99935 10.3334Z" stroke="#7B46FF" stroke-width="1.2" stroke-linecap="round" stroke-linejoin="round"/>
</svg>
