<svg width="34" height="34" viewBox="0 0 34 34" fill="none" xmlns="http://www.w3.org/2000/svg">
<g id="Group 58">
<circle id="Ellipse 7" cx="17" cy="17" r="17" fill="#4A4A4A"/>
<g id="Vector" filter="url(#filter0_d_470_198)">
<path d="M27.2538 16.2532L23.3567 10.4652C23.2634 10.3193 23.1354 10.2003 22.9847 10.1195C22.8341 10.0387 22.6659 9.99871 22.4961 10.0034H11.1188C10.95 10.0044 10.7838 10.0469 10.6341 10.1272C10.4844 10.2075 10.3555 10.3234 10.2582 10.4652L6.36111 16.307C6.05801 16.7169 6.15904 17.3307 6.51267 17.6905L16.1237 27.119C16.5296 27.5289 17.134 27.5289 17.54 27.119L27.0987 17.6423C27.5046 17.2807 27.5569 16.7169 27.2538 16.2532ZM21.1321 20.0476L17.5923 23.5286C17.4059 23.723 17.1523 23.8337 16.8869 23.8365H16.683C16.5939 23.8169 16.5086 23.7825 16.4304 23.7345C16.3365 23.681 16.2518 23.6121 16.1796 23.5305L12.6343 20.0421C12.5556 19.9756 12.4909 19.8933 12.4442 19.8002C12.3975 19.7071 12.3699 19.6052 12.363 19.5007C12.3561 19.3962 12.37 19.2913 12.404 19.1926C12.438 19.0938 12.4912 19.0033 12.5605 18.9265C12.6298 18.8497 12.7136 18.7883 12.8069 18.746C12.9001 18.7038 13.0008 18.6816 13.1027 18.6808C13.2046 18.68 13.3055 18.7007 13.3994 18.7415C13.4932 18.7823 13.5779 18.8425 13.6483 18.9182L16.8345 22.0932L20.1218 18.9201C20.2608 18.7915 20.44 18.7185 20.627 18.7142C21.2837 18.7142 21.6391 19.5858 21.1321 20.0458V20.0476Z" fill="#777777"/>
</g>
</g>
<defs>
<filter id="filter0_d_470_198" x="4.18164" y="8.00305" width="25.2661" height="21.4233" filterUnits="userSpaceOnUse" color-interpolation-filters="sRGB">
<feFlood flood-opacity="0" result="BackgroundImageFix"/>
<feColorMatrix in="SourceAlpha" type="matrix" values="0 0 0 0 0 0 0 0 0 0 0 0 0 0 0 0 0 0 127 0" result="hardAlpha"/>
<feOffset/>
<feGaussianBlur stdDeviation="1"/>
<feComposite in2="hardAlpha" operator="out"/>
<feColorMatrix type="matrix" values="0 0 0 0 0 0 0 0 0 0 0 0 0 0 0 0 0 0 0.25 0"/>
<feBlend mode="normal" in2="BackgroundImageFix" result="effect1_dropShadow_470_198"/>
<feBlend mode="normal" in="SourceGraphic" in2="effect1_dropShadow_470_198" result="shape"/>
</filter>
</defs>
</svg>
