<svg width="18" height="18" viewBox="0 0 18 18" fill="none" xmlns="http://www.w3.org/2000/svg">
<path d="M15.9526 6.88522C15.7351 6.54022 15.5026 6.21772 15.2626 5.91772C14.9851 5.56522 14.4601 5.53522 14.1451 5.85022L11.8951 8.10022C12.0601 8.59522 12.0901 9.16522 11.9401 9.75772C11.6776 10.8152 10.8226 11.6702 9.76508 11.9327C9.17258 12.0827 8.60258 12.0527 8.10758 11.8877C8.10758 11.8877 7.03508 12.9602 6.26258 13.7327C5.88758 14.1077 6.00758 14.7677 6.51008 14.9627C7.31258 15.2702 8.14508 15.4277 9.00008 15.4277C10.3351 15.4277 11.6326 15.0377 12.8176 14.3102C14.0251 13.5602 15.1126 12.4577 15.9901 11.0552C16.7026 9.92272 16.6651 8.01772 15.9526 6.88522Z" fill="#8B8B8C"/>
<path d="M10.5155 7.48498L7.48547 10.515C7.10297 10.125 6.85547 9.58498 6.85547 8.99998C6.85547 7.82248 7.81547 6.85498 9.00047 6.85498C9.58547 6.85498 10.1255 7.10248 10.5155 7.48498Z" fill="#8B8B8C"/>
<path d="M13.6875 4.31227L11.145 6.85477C10.5975 6.29977 9.84 5.96977 9 5.96977C7.32 5.96977 5.97 7.32727 5.97 8.99977C5.97 9.83977 6.3075 10.5973 6.855 11.1448L4.32 13.6873H4.3125C3.48 13.0123 2.715 12.1498 2.0625 11.1298C1.3125 9.95227 1.3125 8.03977 2.0625 6.86227C2.9325 5.49727 3.9975 4.42477 5.1825 3.68977C6.3675 2.96977 7.665 2.57227 9 2.57227C10.6725 2.57227 12.2925 3.18727 13.6875 4.31227Z" fill="#8B8B8C"/>
<path d="M11.1436 9.00006C11.1436 10.1776 10.1836 11.1451 8.99859 11.1451C8.95359 11.1451 8.91609 11.1451 8.87109 11.1301L11.1286 8.87256C11.1436 8.91756 11.1436 8.95506 11.1436 9.00006Z" fill="#8B8B8C"/>
<path d="M16.3277 1.67266C16.1027 1.44766 15.7352 1.44766 15.5102 1.67266L1.67266 15.5177C1.44766 15.7427 1.44766 16.1102 1.67266 16.3352C1.78516 16.4402 1.92766 16.5002 2.07766 16.5002C2.22766 16.5002 2.37016 16.4402 2.48266 16.3277L16.3277 2.48266C16.5602 2.25766 16.5602 1.89766 16.3277 1.67266Z" fill="#8B8B8C"/>
</svg>
