<svg width="25" height="24" viewBox="0 0 25 24" fill="none" xmlns="http://www.w3.org/2000/svg">
<path d="M22.8322 10.9702V13.0302C22.8322 13.5802 22.3922 14.0302 21.8322 14.0502H19.8723C18.7923 14.0502 17.8022 13.2602 17.7122 12.1802C17.6522 11.5502 17.8922 10.9602 18.3122 10.5502C18.6822 10.1702 19.1922 9.9502 19.7522 9.9502H21.8322C22.3922 9.9702 22.8322 10.4202 22.8322 10.9702Z" fill="white" fill-opacity="0.5"/>
<path d="M21.302 15.55H19.872C17.972 15.55 16.372 14.12 16.212 12.3C16.122 11.26 16.502 10.22 17.262 9.48C17.902 8.82 18.792 8.45 19.752 8.45H21.302C21.592 8.45 21.832 8.21 21.802 7.92C21.582 5.49 19.972 3.83 17.582 3.55C17.342 3.51 17.092 3.5 16.832 3.5H7.83203C7.55203 3.5 7.28203 3.52 7.02203 3.56C4.47203 3.88 2.83203 5.78 2.83203 8.5V15.5C2.83203 18.26 5.07203 20.5 7.83203 20.5H16.832C19.632 20.5 21.562 18.75 21.802 16.08C21.832 15.79 21.592 15.55 21.302 15.55ZM13.832 9.75H7.83203C7.42203 9.75 7.08203 9.41 7.08203 9C7.08203 8.59 7.42203 8.25 7.83203 8.25H13.832C14.242 8.25 14.582 8.59 14.582 9C14.582 9.41 14.242 9.75 13.832 9.75Z" fill="white"/>
</svg>
