<svg width="18" height="18" viewBox="0 0 18 18" fill="none" xmlns="http://www.w3.org/2000/svg">
<path d="M9.05157 2.5054C5.71175 2.48659 0.702842 10.6676 2.37275 13.388C4.04266 16.1077 14.4238 16.2787 15.7328 13.388C17.0395 10.4982 12.3922 2.5234 9.05157 2.5054ZM8.99511 13.7178C8.43548 13.7178 7.98384 13.276 7.98384 12.7163C7.98384 12.1477 8.43548 11.696 8.99511 11.696C9.55475 11.696 10.0162 12.1477 10.0162 12.7163C10.0149 12.8491 9.98749 12.9804 9.93548 13.1026C9.88347 13.2248 9.8079 13.3355 9.71308 13.4285C9.61826 13.5215 9.50606 13.5949 9.38287 13.6446C9.25968 13.6942 9.12792 13.7191 8.99511 13.7178ZM9.53717 11.0382H8.42526L8.24854 5.00331H9.71308L9.53717 11.0382Z" fill="#D47509"/>
</svg>
