<svg width="18" height="19" viewBox="0 0 18 19" fill="none" xmlns="http://www.w3.org/2000/svg">
<path d="M9.08906 10.0851C9.03656 10.0776 8.96906 10.0776 8.90906 10.0851C7.58906 10.0401 6.53906 8.96011 6.53906 7.63261C6.53906 6.27511 7.63406 5.17261 8.99906 5.17261C10.3566 5.17261 11.4591 6.27511 11.4591 7.63261C11.4516 8.96011 10.4091 10.0401 9.08906 10.0851Z" stroke="#BDBDBF" stroke-width="1.5" stroke-miterlimit="10" stroke-linecap="round" stroke-linejoin="round"/>
<path d="M14.0553 15.0349C12.7203 16.2574 10.9503 16.9999 9.00031 16.9999C7.05031 16.9999 5.28031 16.2574 3.94531 15.0349C4.02031 14.3299 4.47031 13.6399 5.27281 13.0999C7.32781 11.7349 10.6878 11.7349 12.7278 13.0999C13.5303 13.6399 13.9803 14.3299 14.0553 15.0349Z" stroke="#BDBDBF" stroke-width="1.5" stroke-miterlimit="10" stroke-linecap="round" stroke-linejoin="round"/>
<path d="M9 17C13.1421 17 16.5 13.6421 16.5 9.5C16.5 5.35786 13.1421 2 9 2C4.85786 2 1.5 5.35786 1.5 9.5C1.5 13.6421 4.85786 17 9 17Z" stroke="#BDBDBF" stroke-width="1.5" stroke-miterlimit="10" stroke-linecap="round" stroke-linejoin="round"/>
</svg>
