<svg width="12" height="12" viewBox="0 0 12 12" fill="none" xmlns="http://www.w3.org/2000/svg">
<g clip-path="url(#clip0_5571_9513)">
<path d="M6.075 11.6627C2.98125 11.6627 0.46875 9.1502 0.46875 6.05645C0.46875 2.9627 2.98125 0.450195 6.075 0.450195C9.16875 0.450195 11.6812 2.9627 11.6812 6.05645C11.6812 9.1502 9.16875 11.6627 6.075 11.6627ZM6.075 1.18145C3.39375 1.18145 1.2 3.3752 1.2 6.05645C1.2 8.7377 3.39375 10.9314 6.075 10.9314C8.75625 10.9314 10.95 8.7377 10.95 6.05645C10.95 3.35645 8.775 1.18145 6.075 1.18145Z" fill="white" fill-opacity="0.49"/>
<path d="M7.27422 7.65039C7.19922 7.65039 7.12422 7.63164 7.06797 7.57539L5.58672 6.56289C5.49297 6.48789 5.41797 6.37539 5.41797 6.26289V3.71289C5.41797 3.50664 5.58672 3.33789 5.79297 3.33789C5.99922 3.33789 6.16797 3.50664 6.16797 3.71289V6.05664L7.48047 6.97539C7.64922 7.08789 7.68672 7.33164 7.57422 7.50039C7.51797 7.59414 7.38672 7.65039 7.27422 7.65039Z" fill="white" fill-opacity="0.49"/>
</g>
<defs>
<clipPath id="clip0_5571_9513">
<rect width="12" height="12" fill="white"/>
</clipPath>
</defs>
</svg>
