<svg width="25" height="24" viewBox="0 0 25 24" fill="none" xmlns="http://www.w3.org/2000/svg">
<path d="M19.5015 2H17.6015C15.4215 2 14.2715 3.15 14.2715 5.33V7.23C14.2715 9.41 15.4215 10.56 17.6015 10.56H19.5015C21.6815 10.56 22.8315 9.41 22.8315 7.23V5.33C22.8315 3.15 21.6815 2 19.5015 2Z" fill="#768192"/>
<path d="M8.07203 13.4297H6.17203C3.98203 13.4297 2.83203 14.5797 2.83203 16.7597V18.6597C2.83203 20.8497 3.98203 21.9997 6.16203 21.9997H8.06203C10.242 21.9997 11.392 20.8497 11.392 18.6697V16.7697C11.402 14.5797 10.252 13.4297 8.07203 13.4297Z" fill="#768192"/>
<path d="M7.12203 10.58C9.49133 10.58 11.412 8.6593 11.412 6.29C11.412 3.9207 9.49133 2 7.12203 2C4.75273 2 2.83203 3.9207 2.83203 6.29C2.83203 8.6593 4.75273 10.58 7.12203 10.58Z" fill="#768192"/>
<path opacity="0.4" d="M18.542 21.9999C20.9113 21.9999 22.832 20.0792 22.832 17.7099C22.832 15.3406 20.9113 13.4199 18.542 13.4199C16.1727 13.4199 14.252 15.3406 14.252 17.7099C14.252 20.0792 16.1727 21.9999 18.542 21.9999Z" fill="#768192"/>
</svg>
