<svg width="798" height="157" viewBox="0 0 798 157" fill="none" xmlns="http://www.w3.org/2000/svg">
<mask id="mask0_4457_5947" style="mask-type:alpha" maskUnits="userSpaceOnUse" x="0" y="0" width="798" height="157">
<rect width="798" height="157" rx="12" fill="url(#paint0_linear_4457_5947)"/>
<rect x="0.5" y="0.5" width="797" height="156" rx="11.5" stroke="url(#paint1_linear_4457_5947)" stroke-opacity="0.15"/>
</mask>
<g mask="url(#mask0_4457_5947)">
<g opacity="0.4">
<mask id="path-3-inside-1_4457_5947" fill="white">
<path fill-rule="evenodd" clip-rule="evenodd" d="M48 290C139.127 290 213 216.127 213 125C213 33.873 139.127 -40 48 -40C-43.127 -40 -117 33.873 -117 125C-117 216.127 -43.127 290 48 290ZM48 273.242C129.872 273.242 196.242 206.872 196.242 125C196.242 43.1281 129.872 -23.2422 48 -23.2422C-33.8719 -23.2422 -100.242 43.1281 -100.242 125C-100.242 206.872 -33.8719 273.242 48 273.242Z"/>
</mask>
<path fill-rule="evenodd" clip-rule="evenodd" d="M48 290C139.127 290 213 216.127 213 125C213 33.873 139.127 -40 48 -40C-43.127 -40 -117 33.873 -117 125C-117 216.127 -43.127 290 48 290ZM48 273.242C129.872 273.242 196.242 206.872 196.242 125C196.242 43.1281 129.872 -23.2422 48 -23.2422C-33.8719 -23.2422 -100.242 43.1281 -100.242 125C-100.242 206.872 -33.8719 273.242 48 273.242Z" fill="url(#paint2_linear_4457_5947)"/>
<path d="M212 125C212 215.575 138.575 289 48 289V291C139.679 291 214 216.679 214 125H212ZM48 -39C138.575 -39 212 34.4253 212 125H214C214 33.3207 139.679 -41 48 -41V-39ZM-116 125C-116 34.4253 -42.5747 -39 48 -39V-41C-43.6793 -41 -118 33.3207 -118 125H-116ZM48 289C-42.5747 289 -116 215.575 -116 125H-118C-118 216.679 -43.6793 291 48 291V289ZM195.242 125C195.242 206.32 129.32 272.242 48 272.242V274.242C130.424 274.242 197.242 207.424 197.242 125H195.242ZM48 -22.2422C129.32 -22.2422 195.242 43.6804 195.242 125H197.242C197.242 42.5758 130.424 -24.2422 48 -24.2422V-22.2422ZM-99.2422 125C-99.2422 43.6804 -33.3196 -22.2422 48 -22.2422V-24.2422C-34.4242 -24.2422 -101.242 42.5758 -101.242 125H-99.2422ZM48 272.242C-33.3196 272.242 -99.2422 206.32 -99.2422 125H-101.242C-101.242 207.424 -34.4242 274.242 48 274.242V272.242Z" fill="url(#paint3_linear_4457_5947)" mask="url(#path-3-inside-1_4457_5947)"/>
<path d="M57.5712 46.4096V46.9096H58.0712H125.212C126.605 46.9096 127.569 47.3147 128.195 48.0219C128.83 48.74 129.188 49.8513 129.188 51.4087V72.1547C129.188 73.7121 128.83 74.8234 128.195 75.5415C127.569 76.2487 126.605 76.6538 125.212 76.6538H58.0712H57.5712V77.1538V110.147V110.647H58.0712H97.1124C110.591 110.647 120.07 113.941 126.188 120.305C132.31 126.672 135.156 136.207 135.156 148.89V164.387C135.156 175.953 132.742 185.621 126.795 192.396C120.859 199.158 111.321 203.13 96.8637 203.13H58.0712H57.5712V203.63V223.626C57.5712 225.049 57.2174 226.025 56.5977 226.648C55.9784 227.27 55.0094 227.625 53.5951 227.625H42.1562C40.742 227.625 39.7729 227.27 39.1537 226.648C38.5339 226.025 38.1802 225.049 38.1802 223.626V203.63V203.13H37.6802H-34.9315C-36.3258 203.13 -37.3617 202.723 -38.0518 202.003C-38.7449 201.279 -39.1562 200.17 -39.1562 198.631V177.885C-39.1562 176.346 -38.7449 175.236 -38.0518 174.512C-37.3617 173.792 -36.3258 173.386 -34.9315 173.386H37.6802H38.1802V172.886V135.893V135.393H37.6802H-0.863697C-14.2191 135.393 -23.7641 132.161 -29.9758 125.886C-36.1884 119.611 -39.1562 110.202 -39.1562 97.6499V85.4022C-39.1562 73.9651 -36.6811 64.359 -30.703 57.6142C-24.7351 50.8811 -15.1953 46.9096 -0.863697 46.9096H37.6802H38.1802V46.4096V27.6632C38.1802 26.2399 38.5339 25.2644 39.1537 24.6415C39.7729 24.019 40.742 23.6641 42.1562 23.6641H53.5951C55.0094 23.6641 55.9784 24.019 56.5977 24.6415C57.2174 25.2644 57.5712 26.2399 57.5712 27.6632V46.4096ZM58.0712 135.393H57.5712V135.893V172.886V173.386H58.0712H87.1656C91.9818 173.386 95.4344 172.045 97.6723 169.531C99.9003 167.028 100.845 163.449 100.845 159.138V149.39C100.845 144.95 99.8364 141.428 97.5699 139.018C95.2977 136.602 91.8472 135.393 87.1656 135.393H58.0712ZM37.6802 110.647H38.1802V110.147V77.1538V76.6538H37.6802H9.08311C4.14633 76.6538 0.691635 77.9919 -1.51718 80.4772C-3.71563 82.9508 -4.59641 86.469 -4.59641 90.6512V97.3999C-4.59641 101.718 -3.58607 105.06 -1.30883 107.316C0.967293 109.571 4.41573 110.647 9.08311 110.647H37.6802Z" fill="url(#paint4_linear_4457_5947)" stroke="url(#paint5_linear_4457_5947)"/>
</g>
<g style="mix-blend-mode:screen" filter="url(#filter0_f_4457_5947)">
<path d="M-14.2361 342.927C63.4421 123.245 230.659 18.942 272.603 -9.99996L-262.098 155.528L-183.451 625.162C-68.4419 598.722 -87.64 550.522 -14.2361 342.927Z" fill="url(#paint6_radial_4457_5947)" fill-opacity="0.2"/>
</g>
</g>
<defs>
<filter id="filter0_f_4457_5947" x="-336.072" y="-83.9747" width="682.651" height="783.111" filterUnits="userSpaceOnUse" color-interpolation-filters="sRGB">
<feFlood flood-opacity="0" result="BackgroundImageFix"/>
<feBlend mode="normal" in="SourceGraphic" in2="BackgroundImageFix" result="shape"/>
<feGaussianBlur stdDeviation="36.9873" result="effect1_foregroundBlur_4457_5947"/>
</filter>
<linearGradient id="paint0_linear_4457_5947" x1="-73.5" y1="79" x2="798" y2="78.5" gradientUnits="userSpaceOnUse">
<stop stop-color="#1B1B1F"/>
<stop offset="1" stop-color="#17171A"/>
</linearGradient>
<linearGradient id="paint1_linear_4457_5947" x1="399" y1="0" x2="399" y2="157" gradientUnits="userSpaceOnUse">
<stop stop-color="white" stop-opacity="0.29"/>
<stop offset="1" stop-color="white" stop-opacity="0.78"/>
</linearGradient>
<linearGradient id="paint2_linear_4457_5947" x1="48" y1="-99.2969" x2="48" y2="349.297" gradientUnits="userSpaceOnUse">
<stop stop-color="#1A1A1D"/>
<stop offset="1" stop-color="#292930"/>
</linearGradient>
<linearGradient id="paint3_linear_4457_5947" x1="48" y1="-99.2969" x2="48" y2="349.297" gradientUnits="userSpaceOnUse">
<stop stop-color="#1A1A1D"/>
<stop offset="1" stop-color="#404048"/>
</linearGradient>
<linearGradient id="paint4_linear_4457_5947" x1="48" y1="23.1641" x2="48" y2="228.125" gradientUnits="userSpaceOnUse">
<stop stop-color="#1A1A1D"/>
<stop offset="1" stop-color="#292930"/>
</linearGradient>
<linearGradient id="paint5_linear_4457_5947" x1="48" y1="23.1641" x2="48" y2="228.125" gradientUnits="userSpaceOnUse">
<stop stop-color="#1A1A1D"/>
<stop offset="1" stop-color="#404048"/>
</linearGradient>
<radialGradient id="paint6_radial_4457_5947" cx="0" cy="0" r="1" gradientUnits="userSpaceOnUse" gradientTransform="translate(130.938 291.978) rotate(-150.409) scale(306.983 306.992)">
<stop offset="0.409332" stop-color="#6041FF"/>
<stop offset="1" stop-opacity="0"/>
<stop offset="1" stop-color="#2D2E32" stop-opacity="0"/>
</radialGradient>
</defs>
</svg>
