<svg width="22" height="22" viewBox="0 0 22 22" fill="none" xmlns="http://www.w3.org/2000/svg">
<g filter="url(#filter0_b_5571_10352)">
<circle cx="11" cy="11" r="10" fill="url(#paint0_radial_5571_10352)" fill-opacity="0.09"/>
<circle cx="11" cy="11" r="10" fill="white" fill-opacity="0.12"/>
<circle cx="11" cy="11" r="10.5" stroke="url(#paint1_linear_5571_10352)" stroke-opacity="0.6"/>
</g>
<path fill-rule="evenodd" clip-rule="evenodd" d="M9.44228 10.529C9.43684 10.8813 9.44152 11.5987 9.44152 11.5987L9.44163 11.5988L10.603 11.0465C10.603 11.0465 10.6413 9.56738 10.6598 8.60843C10.6705 8.05006 10.6797 7.49162 10.6889 6.93319C10.6958 6.51418 10.7027 6.09517 10.7103 5.6762C10.7138 5.48217 11.0371 5.29162 11.2004 5.38576C12.7648 6.28692 14.329 7.1884 15.8922 8.09152C15.937 8.11742 16.0028 8.16128 16.0045 8.19926C16.0065 8.24178 16.0092 8.28463 16.0118 8.32761C16.0233 8.5125 16.035 8.69971 15.9937 8.87331C15.9777 8.94099 15.8776 8.98943 15.7788 9.03729C15.7369 9.05753 15.6954 9.07767 15.6604 9.09911C15.5866 9.14441 15.5109 9.1869 15.4354 9.22936C15.4205 9.2377 15.4057 9.24604 15.3909 9.2544C15.0104 9.46878 14.2408 9.90179 14.2408 9.90179L15.4619 10.609C15.4619 10.609 16.3584 10.0667 17.0575 9.67957C17.1556 9.62516 17.1948 9.56422 17.1936 9.45039C17.1928 9.36506 17.1918 9.27971 17.1908 9.19435C17.1852 8.71735 17.1796 8.24006 17.1981 7.76386C17.2071 7.53 17.1155 7.4239 16.9263 7.31682C16.139 6.87099 15.3558 6.41782 14.5726 5.96464C14.2894 5.8008 14.0063 5.63696 13.7229 5.47347C13.5937 5.3989 13.4645 5.32431 13.3352 5.24971C12.6301 4.84271 11.9251 4.43574 11.2174 4.0332C11.1606 4.00088 11.0594 3.98684 11.0072 4.01557C10.5529 4.26586 10.1036 4.52519 9.65765 4.79006C9.60617 4.82064 9.55927 4.89932 9.55372 4.95961C9.5337 5.17823 9.52836 5.39849 9.52455 5.6182C9.49593 7.25511 9.46797 8.89202 9.44228 10.529ZM12.6518 12.1403C12.6518 12.1403 12.2295 12.3878 12.0196 12.5054C10.8759 13.1456 9.73189 13.7851 8.58785 14.4247L8.58305 14.4274L7.59586 14.9792C7.51695 15.0234 7.43786 15.0672 7.35877 15.111C7.17107 15.215 6.98336 15.319 6.79808 15.4271C6.71657 15.4747 6.6565 15.4833 6.56901 15.4315C6.10205 15.1549 5.6315 14.8843 5.15888 14.6176C5.05311 14.5579 5.00065 14.4933 5.00087 14.3623C5.00479 12.1196 5.00446 9.87686 5 7.63413C4.99978 7.51127 5.04625 7.44434 5.14463 7.3883C5.31214 7.29293 5.47924 7.1968 5.64634 7.10068L5.64635 7.10067C5.92312 6.94145 6.1999 6.78223 6.47858 6.62643C6.5257 6.6001 6.61123 6.59574 6.65726 6.62088C7.24854 6.94309 7.62476 7.15171 8.08004 7.40416L8.08021 7.40425C8.28869 7.51986 8.51376 7.64466 8.78366 7.79377C8.80412 7.80509 8.74514 9.11412 8.74514 9.11412C8.74514 9.11412 8.1206 8.77448 7.8134 8.60559C7.66251 8.52259 7.51181 8.43925 7.36111 8.3559L7.36061 8.35563C7.1327 8.22958 6.90478 8.10353 6.6762 7.97866C6.64137 7.95962 6.58838 7.93851 6.55867 7.95178C6.54064 7.95983 6.5221 7.96771 6.50341 7.97565C6.41288 8.01412 6.31867 8.05416 6.26049 8.12253C6.20227 8.19098 6.18943 8.31438 6.18922 8.41352C6.18751 9.17593 6.18714 9.93835 6.18678 10.7008C6.18631 11.686 6.18584 12.6713 6.18247 13.6566C6.18193 13.8014 6.24439 13.8623 6.34962 13.9437C6.58816 14.1282 6.7823 14.0903 7.03531 13.9458C8.68702 13.0028 11.3529 11.5019 11.3529 11.5019L12.6518 12.1403ZM11.3347 10.6273L11.3743 9.21555C11.3743 9.21555 12.3239 9.73355 12.7935 9.99178C13.1783 10.2034 13.5629 10.4153 13.9476 10.6271L13.9484 10.6276L13.9485 10.6277C14.9683 11.1893 15.9881 11.7509 17.0099 12.3086C17.145 12.3823 17.1981 12.4604 17.1951 12.6183C17.1841 13.2047 17.1882 13.7913 17.1929 14.3779C17.1938 14.4821 17.1623 14.5399 17.07 14.5928C16.1952 15.0941 15.3223 15.5985 14.4494 16.1029L14.4491 16.1031L13.8376 16.4564C13.6365 16.5726 13.4353 16.6886 13.234 16.8046L13.2336 16.8048C12.5793 17.1821 11.9249 17.5594 11.2738 17.9422C11.1397 18.0209 11.0442 18.0187 10.9114 17.9389C10.4346 17.6528 9.95023 17.3793 9.4659 17.1058L9.4377 17.0899C9.34183 17.0357 9.30842 16.9804 9.31244 16.8608C9.33802 16.1039 9.36468 15.0674 9.36468 15.0674L10.5498 14.3858C10.5498 14.3858 10.5519 14.6237 10.5494 14.7367L10.5445 14.9547C10.5352 15.3704 10.5259 15.7862 10.5117 16.2019C10.508 16.3084 10.5581 16.3516 10.6363 16.4155C10.9487 16.6714 11.2105 16.6314 11.5571 16.4229C12.7425 15.7098 13.944 15.0235 15.1454 14.3373C15.3732 14.2073 15.6009 14.0772 15.8285 13.9469C15.9686 13.8667 16.001 13.7757 16.0215 13.6204C16.0727 13.2305 15.9129 13.0403 15.5683 12.8587C14.1715 12.1222 11.3348 10.6275 11.3348 10.6275L11.3347 10.6273Z" fill="url(#paint2_linear_5571_10352)"/>
<defs>
<filter id="filter0_b_5571_10352" x="-20" y="-20" width="62" height="62" filterUnits="userSpaceOnUse" color-interpolation-filters="sRGB">
<feFlood flood-opacity="0" result="BackgroundImageFix"/>
<feGaussianBlur in="BackgroundImageFix" stdDeviation="10"/>
<feComposite in2="SourceAlpha" operator="in" result="effect1_backgroundBlur_5571_10352"/>
<feBlend mode="normal" in="SourceGraphic" in2="effect1_backgroundBlur_5571_10352" result="shape"/>
</filter>
<radialGradient id="paint0_radial_5571_10352" cx="0" cy="0" r="1" gradientUnits="userSpaceOnUse" gradientTransform="translate(11 15.2857) rotate(90) scale(12.1429 12.6868)">
<stop stop-color="#E7E1F6" stop-opacity="0.2"/>
<stop offset="1" stop-color="white"/>
</radialGradient>
<linearGradient id="paint1_linear_5571_10352" x1="11" y1="1" x2="11" y2="21" gradientUnits="userSpaceOnUse">
<stop stop-color="#D3DC68"/>
<stop offset="1" stop-color="#B3D562"/>
</linearGradient>
<linearGradient id="paint2_linear_5571_10352" x1="7.1361" y1="6.12245" x2="16.3974" y2="15.0257" gradientUnits="userSpaceOnUse">
<stop stop-color="#F9F720"/>
<stop offset="1" stop-color="#6BF607"/>
</linearGradient>
</defs>
</svg>
