<svg width="24" height="24" viewBox="0 0 24 24" fill="none" xmlns="http://www.w3.org/2000/svg">
<circle cx="12" cy="12" r="12" fill="url(#paint0_linear_5491_6980)"/>
<circle cx="11.9984" cy="12.0004" r="9.6" stroke="black" stroke-width="0.5"/>
<path d="M18.1152 14.2484C18.1152 16.1989 16.1952 17.4636 13.2542 17.7227V19.2008H10.4047V17.6617C7.66185 17.2655 5.95518 15.9246 6.0009 14.0503H8.77423C8.75899 14.7665 9.67328 15.5132 11.8676 15.5436C13.9095 15.5589 15.479 15.2846 15.479 14.3398C15.479 12.2674 6.22947 14.6903 6.22947 10.1189C6.22947 8.27507 7.85994 7.04078 10.4047 6.70554V4.80078H13.2542V6.6903C15.9666 7.04078 17.7342 8.39697 17.7647 10.3322H14.9761C14.9914 9.60078 14.199 8.85412 12.0657 8.83888C10.2218 8.8084 8.8809 9.09792 8.8809 9.99697C8.8809 11.9932 18.1152 9.78364 18.1152 14.2484Z" fill="#17171A"/>
<defs>
<linearGradient id="paint0_linear_5491_6980" x1="0" y1="0" x2="30" y2="27.5" gradientUnits="userSpaceOnUse">
<stop stop-color="white"/>
<stop offset="1" stop-color="white" stop-opacity="0.54"/>
</linearGradient>
</defs>
</svg>
