<svg width="20" height="20" viewBox="0 0 20 20" fill="none" xmlns="http://www.w3.org/2000/svg">
<circle cx="10" cy="10" r="10" fill="url(#paint0_linear_5323_3851)"/>
<circle cx="10" cy="10" r="8" stroke="black" stroke-width="0.5"/>
<path d="M15.096 11.873C15.096 13.4984 13.496 14.5524 11.0452 14.7683V16H8.67059V14.7175C6.38487 14.3873 4.96265 13.2698 5.00075 11.7079H7.31186C7.29916 12.3048 8.06106 12.927 9.88964 12.9524C11.5912 12.9651 12.8992 12.7365 12.8992 11.9492C12.8992 10.2222 5.19122 12.2413 5.19122 8.43175C5.19122 6.89524 6.54995 5.86667 8.67059 5.5873V4H11.0452V5.5746C13.3055 5.86667 14.7785 6.99683 14.8039 8.60952H12.4801C12.4928 8 11.8325 7.37778 10.0547 7.36508C8.51821 7.33968 7.40075 7.58095 7.40075 8.33016C7.40075 9.99365 15.096 8.15238 15.096 11.873Z" fill="#17171A"/>
<defs>
<linearGradient id="paint0_linear_5323_3851" x1="7.37607e-08" y1="3" x2="18.5" y2="20" gradientUnits="userSpaceOnUse">
<stop stop-color="#08C761"/>
<stop offset="1" stop-color="#0A964B"/>
</linearGradient>
</defs>
</svg>
