<svg width="16" height="16" viewBox="0 0 16 16" fill="none" xmlns="http://www.w3.org/2000/svg">
<path fill-rule="evenodd" clip-rule="evenodd" d="M8 0C12.4184 0 16 3.58165 16 8C16 12.418 12.4184 16 8 16C3.58162 16 0 12.418 0 8C0 3.58165 3.58162 0 8 0Z" fill="#2775CA"/>
<path fill-rule="evenodd" clip-rule="evenodd" d="M6.54175 13.3801C6.54175 13.5648 6.39441 13.6697 6.21246 13.6139C3.7943 12.8566 2.04102 10.6305 2.04102 8.00384C2.04102 5.37728 3.7943 3.15109 6.21246 2.39374C6.39441 2.33833 6.54175 2.44292 6.54175 2.62761V3.08354C6.54175 3.2065 6.44468 3.35122 6.32536 3.39129C4.41213 4.08102 3.04157 5.88543 3.04157 8.00073C3.04157 10.116 4.41213 11.9208 6.32536 12.6101C6.44468 12.6533 6.54175 12.7948 6.54175 12.9182V13.3801Z" fill="white"/>
<path fill-rule="evenodd" clip-rule="evenodd" d="M8.53853 11.6831C8.53853 11.8187 8.42563 11.9295 8.28767 11.9295H7.7889C7.65093 11.9295 7.53806 11.8187 7.53806 11.6831V10.9073C6.44652 10.7626 5.91349 10.1621 5.76915 9.34617C5.74398 9.20741 5.85685 9.08127 6.00119 9.08127H6.57204C6.69119 9.08127 6.79161 9.16452 6.8167 9.28131C6.9234 9.76785 7.20878 10.1405 8.08372 10.1405C8.72983 10.1405 9.18791 9.78632 9.18791 9.25695C9.18791 8.72712 8.91805 8.52708 7.97085 8.37298C6.57204 8.18828 5.91029 7.77249 5.91029 6.69481C5.91029 5.86349 6.55022 5.21695 7.54124 5.07831V4.31773C7.54124 4.18221 7.65421 4.07129 7.79207 4.07129H8.29087C8.42883 4.07129 8.5417 4.18221 8.5417 4.31773V5.09989C9.34776 5.24177 9.85898 5.69103 10.0253 6.43614C10.0566 6.57802 9.94371 6.71015 9.79637 6.71015H9.26933C9.15644 6.71015 9.06239 6.63618 9.02795 6.5285C8.88678 6.05452 8.5417 5.85136 7.94258 5.85136C7.28086 5.85136 6.93895 6.16534 6.93895 6.60559C6.93895 7.07053 7.13352 7.30441 8.1498 7.4494C9.52334 7.6341 10.2324 8.01893 10.2324 9.16771C10.2324 10.039 9.5736 10.7442 8.5417 10.9073V11.6831H8.53853Z" fill="white"/>
<path fill-rule="evenodd" clip-rule="evenodd" d="M9.8703 13.6139C9.68853 13.6697 9.54102 13.5647 9.54102 13.38V12.9245C9.54102 12.7889 9.62572 12.6627 9.75741 12.6163C11.6706 11.9266 13.0412 10.1222 13.0412 8.00694C13.0412 5.89164 11.6706 4.08723 9.75741 3.3975C9.63826 3.35432 9.54102 3.2128 9.54102 3.08941V2.63382C9.54102 2.44913 9.68853 2.34143 9.8703 2.39961C12.2885 3.15739 14.0418 5.38351 14.0418 8.01005C14.0388 10.6304 12.2885 12.8534 9.8703 13.6139Z" fill="white"/>
</svg>
