<svg width="24" height="24" viewBox="0 0 24 24" fill="none" xmlns="http://www.w3.org/2000/svg">
<path d="M12 24C18.6274 24 24 18.6274 24 12C24 5.37258 18.6274 0 12 0C5.37258 0 0 5.37258 0 12C0 18.6274 5.37258 24 12 24Z" fill="#20B16C"/>
<path fill-rule="evenodd" clip-rule="evenodd" d="M13.557 12.5253V12.5237C13.4698 12.53 13.0207 12.5568 12.0188 12.5568C11.2188 12.5568 10.6556 12.5332 10.4576 12.5237V12.5261C7.37805 12.3917 5.07947 11.8596 5.07947 11.2229C5.07947 10.587 7.37805 10.0549 10.4576 9.91809V11.9963C10.6588 12.0105 11.2354 12.0443 12.0322 12.0443C12.9883 12.0443 13.4675 12.005 13.557 11.9971V9.91966C16.6302 10.0556 18.9232 10.5878 18.9232 11.2229C18.9232 11.8596 16.6302 12.3901 13.557 12.5253ZM13.557 9.70351V7.84378H17.8452V5.00781H6.16936V7.84378H10.4576V9.70272C6.97251 9.8615 4.35156 10.5469 4.35156 11.3675C4.35156 12.1881 6.97251 12.8727 10.4576 13.0323V18.9919H13.557V13.0307C17.0365 12.872 19.6511 12.1873 19.6511 11.3675C19.6511 10.5477 17.0365 9.86307 13.557 9.70351Z" fill="white"/>
</svg>
