<svg width="27" height="30" viewBox="0 0 27 30" fill="none" xmlns="http://www.w3.org/2000/svg">
<path fill-rule="evenodd" clip-rule="evenodd" d="M9.5184 13.9905C9.50674 14.7454 9.51677 16.2825 9.51677 16.2825L9.517 16.2828L12.0056 15.0993C12.0056 15.0993 12.0877 11.9299 12.1273 9.87502C12.1503 8.67843 12.17 7.48169 12.1897 6.28498C12.2045 5.38721 12.2193 4.48946 12.2355 3.5918C12.243 3.17602 12.9358 2.76771 13.2858 2.96942C16.6378 4.90044 19.9897 6.83216 23.3394 8.76738C23.4355 8.82288 23.5763 8.91686 23.58 8.99824C23.5843 9.08936 23.59 9.18117 23.5957 9.27326C23.6204 9.66945 23.6453 10.0706 23.557 10.4426C23.5226 10.5876 23.3081 10.6914 23.0963 10.794C23.0067 10.8374 22.9176 10.8805 22.8427 10.9265C22.6845 11.0235 22.5225 11.1145 22.3606 11.2055C22.3287 11.2234 22.2969 11.2413 22.2651 11.2592C21.4499 11.7186 19.8008 12.6465 19.8008 12.6465L22.4174 14.1619C22.4174 14.1619 24.3384 12.9997 25.8364 12.1703C26.0467 12.0537 26.1306 11.9231 26.1281 11.6792C26.1262 11.4963 26.1241 11.3134 26.122 11.1305C26.11 10.1084 26.0981 9.08564 26.1376 8.06526C26.157 7.56414 25.9607 7.33678 25.5554 7.10733C23.8682 6.15201 22.1901 5.18098 20.5118 4.20992C19.905 3.85882 19.2983 3.50773 18.691 3.15737C18.4142 2.99766 18.1374 2.83789 17.8607 2.67812C16.3496 1.80592 14.8387 0.933782 13.3221 0.0711385C13.2004 0.00188189 12.9836 -0.0281992 12.8716 0.0333621C11.8983 0.569692 10.9355 1.12538 9.97988 1.69295C9.86958 1.75848 9.76908 1.92707 9.75718 2.05626C9.71428 2.52473 9.70285 2.9967 9.69469 3.46751C9.63336 6.97511 9.57343 10.4827 9.5184 13.9905ZM16.3963 17.4438C16.3963 17.4438 15.4916 17.9743 15.0417 18.2261C12.5878 19.5999 10.133 20.9721 7.67829 22.3443L5.56245 23.5271C5.39367 23.6215 5.2245 23.7153 5.05534 23.809L5.05438 23.8096C4.65217 24.0324 4.24997 24.2553 3.85295 24.4869C3.6783 24.5888 3.54958 24.6073 3.36209 24.4963C2.36149 23.9035 1.35319 23.3238 0.340456 22.7523C0.113799 22.6242 0.00140237 22.486 0.00186875 22.2052C0.0102635 17.3995 0.00956392 12.5937 1.61918e-06 7.78795C-0.000463124 7.52468 0.0991077 7.38127 0.309909 7.26118C0.668834 7.05683 1.02687 6.85086 1.3849 6.6449L1.38498 6.64485L1.38502 6.64483C1.97809 6.30365 2.57116 5.96247 3.16832 5.62864C3.26929 5.57221 3.45257 5.56288 3.55121 5.61674C4.81818 6.30717 5.62436 6.75419 6.59993 7.29515L6.59997 7.29517C7.04681 7.54295 7.5292 7.81043 8.10769 8.13004C8.15152 8.15429 8.02514 10.9593 8.02514 10.9593C8.02514 10.9593 6.68688 10.2315 6.02859 9.86961C5.7049 9.69156 5.38162 9.51277 5.05834 9.33397L5.0583 9.33395L5.05819 9.33389C4.56987 9.06383 4.08155 8.79376 3.59178 8.52622C3.51716 8.48541 3.4036 8.44017 3.33994 8.46862C3.30131 8.48587 3.26158 8.50275 3.22152 8.51977C3.02754 8.6022 2.82567 8.68799 2.70101 8.83449C2.57625 8.98117 2.54874 9.2456 2.54827 9.45804C2.54461 11.0916 2.54383 12.7252 2.54305 14.3588V14.3592C2.54205 16.4705 2.54104 18.5817 2.53381 20.693C2.53265 21.0034 2.6665 21.1337 2.89199 21.3081C3.40314 21.7036 3.81914 21.6222 4.3613 21.3128C7.90061 19.292 13.613 16.0759 13.613 16.0759L16.3963 17.4438ZM13.5746 14.2017L13.6594 11.1765C13.6594 11.1765 15.6942 12.2865 16.7004 12.8399C17.5251 13.2935 18.3496 13.7475 19.174 14.2016L19.1757 14.2025L19.1758 14.2026C21.3608 15.4059 23.546 16.6094 25.7355 17.8044C26.0249 17.9623 26.1387 18.1297 26.1324 18.4681C26.1088 19.7245 26.1175 20.9816 26.1277 22.2385C26.1296 22.4619 26.062 22.5857 25.8642 22.699C23.9898 23.7731 22.1192 24.854 20.2487 25.9349L20.2485 25.9351L18.9379 26.6923C18.5068 26.9413 18.0756 27.19 17.6443 27.4386L17.6435 27.4391C16.2414 28.2474 14.8393 29.0558 13.444 29.8761C13.1567 30.0449 12.9522 30.04 12.6675 29.8691C11.6459 29.256 10.608 28.6699 9.57019 28.0839L9.50963 28.0497C9.3042 27.9336 9.23261 27.8151 9.24124 27.5589C9.29603 25.9371 9.35317 23.7159 9.35317 23.7159L11.8926 22.2555C11.8926 22.2555 11.8972 22.7652 11.8919 23.0073L11.8814 23.4746V23.4746C11.8614 24.3655 11.8415 25.2564 11.811 26.1469C11.803 26.3752 11.9105 26.4678 12.078 26.6047C12.7474 27.1531 13.3085 27.0673 14.0512 26.6205C16.5911 25.0925 19.1659 23.6219 21.7403 22.1516L21.7411 22.1511C22.2288 21.8726 22.7165 21.594 23.204 21.3151C23.5041 21.1432 23.5736 20.948 23.6175 20.6153C23.7273 19.7797 23.3847 19.3724 22.6465 18.9832C19.6533 17.405 13.5748 14.2021 13.5748 14.2021L13.5746 14.2017Z" fill="url(#paint0_linear_6951_10086)"/>
<defs>
<linearGradient id="paint0_linear_6951_10086" x1="4.57717" y1="4.5481" x2="24.4228" y2="23.6256" gradientUnits="userSpaceOnUse">
<stop stop-color="#F9F720"/>
<stop offset="1" stop-color="#6BF607"/>
</linearGradient>
</defs>
</svg>
