<svg width="154" height="36" viewBox="0 0 154 36" fill="none" xmlns="http://www.w3.org/2000/svg">
<g filter="url(#filter0_b_5610_6361)">
<path d="M0 8C0 3.58172 3.58172 0 8 0H146C150.418 0 154 3.58172 154 8V22.6863C154 24.808 153.157 26.8429 151.657 28.3431L146.343 33.6569C144.843 35.1571 142.808 36 140.686 36H50H8C3.58172 36 0 32.4183 0 28V8Z" fill="url(#paint0_radial_5610_6361)" fill-opacity="0.5"/>
<path d="M0 8C0 3.58172 3.58172 0 8 0H146C150.418 0 154 3.58172 154 8V22.6863C154 24.808 153.157 26.8429 151.657 28.3431L146.343 33.6569C144.843 35.1571 142.808 36 140.686 36H50H8C3.58172 36 0 32.4183 0 28V8Z" fill="#05170E" fill-opacity="0.7"/>
<path d="M0.5 8C0.5 3.85786 3.85786 0.5 8 0.5H146C150.142 0.5 153.5 3.85787 153.5 8V22.6863C153.5 24.6754 152.71 26.5831 151.303 27.9896L145.99 33.3033C144.583 34.7098 142.675 35.5 140.686 35.5H50H8C3.85787 35.5 0.5 32.1421 0.5 28V8Z" stroke="url(#paint1_linear_5610_6361)"/>
</g>
<g filter="url(#filter1_i_5610_6361)">
<path d="M28.2344 20.3828C28.2344 24.5829 24.8173 28 20.6172 28C16.4171 28 13 24.5829 13 20.3828C13 18.7389 13.5656 17.1266 14.5925 15.8429L14.6909 15.7199C14.8741 15.4909 15.1984 15.4326 15.4499 15.5835L16.6045 16.2762C16.9376 16.4761 17.2133 16.2911 17.2899 16.2297C17.3665 16.1682 17.6069 15.9391 17.484 15.5706L17.4593 15.4965C17.0715 14.333 17.2218 13.0691 17.8719 12.0291C18.5179 10.9955 18.8594 9.80485 18.8594 8.58595V8.58657C18.8594 8.16028 19.3002 7.87669 19.6881 8.05337L19.6882 8.05341V8.0527C19.7273 8.07056 20.6596 8.49829 21.7776 9.27981C23.13 10.2252 23.9375 11.7751 23.9375 13.4257C23.9375 13.7613 24.119 14.0467 24.423 14.1891C24.7269 14.3315 25.0623 14.2882 25.3202 14.0733C25.5882 13.85 25.9907 13.9088 26.1835 14.1994C27.506 16.1923 28.2344 18.3883 28.2344 20.3828Z" fill="url(#paint2_linear_5610_6361)"/>
</g>
<path d="M23.3513 18.6254C23.78 18.6254 24.0636 19.0707 23.8823 19.4591L21.1479 25.3185C20.8975 25.8551 20.1 25.7239 20.0346 25.1354L19.7018 22.141H17.8825C17.4539 22.141 17.1703 21.6957 17.3516 21.3073L20.0859 15.4479C20.3364 14.9113 21.1339 15.0425 21.1993 15.631L21.532 18.6254H23.3513Z" fill="url(#paint3_radial_5610_6361)"/>
<path d="M44.1164 23L40.3784 18.226H38.9364L43.3744 12.78H45.6564L41.6524 17.68L41.5964 16.7L46.5384 23H44.1164ZM37.4944 23V12.78H39.4824V23H37.4944ZM50.7092 23.266C50.0558 23.266 49.4818 23.154 48.9872 22.93C48.5018 22.706 48.0958 22.4073 47.7692 22.034C47.4518 21.6513 47.2092 21.2267 47.0412 20.76C46.8825 20.2933 46.8032 19.8173 46.8032 19.332V19.066C46.8032 18.562 46.8825 18.0767 47.0412 17.61C47.2092 17.134 47.4518 16.714 47.7692 16.35C48.0958 15.9767 48.4972 15.6827 48.9732 15.468C49.4492 15.244 49.9998 15.132 50.6252 15.132C51.4465 15.132 52.1325 15.314 52.6832 15.678C53.2432 16.0327 53.6632 16.504 53.9432 17.092C54.2232 17.6707 54.3632 18.296 54.3632 18.968V19.668H47.6292V18.478H53.1452L52.5432 19.066C52.5432 18.5807 52.4732 18.1653 52.3332 17.82C52.1932 17.4747 51.9785 17.2087 51.6892 17.022C51.4092 16.8353 51.0545 16.742 50.6252 16.742C50.1958 16.742 49.8318 16.84 49.5332 17.036C49.2345 17.232 49.0058 17.5167 48.8472 17.89C48.6978 18.254 48.6232 18.6927 48.6232 19.206C48.6232 19.682 48.6978 20.1067 48.8472 20.48C48.9965 20.844 49.2252 21.1333 49.5332 21.348C49.8412 21.5533 50.2332 21.656 50.7092 21.656C51.1852 21.656 51.5725 21.5627 51.8712 21.376C52.1698 21.18 52.3612 20.942 52.4452 20.662H54.2372C54.1252 21.1847 53.9105 21.642 53.5932 22.034C53.2758 22.426 52.8698 22.7293 52.3752 22.944C51.8898 23.1587 51.3345 23.266 50.7092 23.266ZM55.6965 25.996V24.33H57.1245C57.3951 24.33 57.6191 24.2927 57.7965 24.218C57.9831 24.1527 58.1371 24.0407 58.2585 23.882C58.3798 23.7327 58.4731 23.5227 58.5385 23.252L60.5825 15.398H62.4445L60.1905 23.672C60.0411 24.2413 59.8311 24.694 59.5605 25.03C59.2898 25.3753 58.9398 25.6227 58.5105 25.772C58.0905 25.9213 57.5678 25.996 56.9425 25.996H55.6965ZM58.0625 22.832V21.292H59.6865V22.832H58.0625ZM57.4045 22.832L54.9405 15.398H56.9005L59.2385 22.832H57.4045ZM66.9573 23V12.78H70.2193L74.5173 21.348H74.9793L74.6993 21.6V12.78H76.5753V23H73.2993L69.0013 14.432H68.5253L68.8053 14.18V23H66.9573ZM82.5979 23.266C81.9259 23.266 81.3332 23.1587 80.8199 22.944C80.3066 22.7293 79.8726 22.44 79.5179 22.076C79.1632 21.7027 78.8926 21.2827 78.7059 20.816C78.5286 20.3493 78.4399 19.864 78.4399 19.36V19.066C78.4399 18.5433 78.5332 18.0487 78.7199 17.582C78.9159 17.106 79.1912 16.686 79.5459 16.322C79.9099 15.9487 80.3486 15.6593 80.8619 15.454C81.3752 15.2393 81.9539 15.132 82.5979 15.132C83.2419 15.132 83.8206 15.2393 84.3339 15.454C84.8472 15.6593 85.2812 15.9487 85.6359 16.322C85.9999 16.686 86.2752 17.106 86.4619 17.582C86.6486 18.0487 86.7419 18.5433 86.7419 19.066V19.36C86.7419 19.864 86.6486 20.3493 86.4619 20.816C86.2846 21.2827 86.0186 21.7027 85.6639 22.076C85.3092 22.44 84.8752 22.7293 84.3619 22.944C83.8486 23.1587 83.2606 23.266 82.5979 23.266ZM82.5979 21.6C83.0739 21.6 83.4752 21.4973 83.8019 21.292C84.1286 21.0773 84.3759 20.7927 84.5439 20.438C84.7119 20.074 84.7959 19.6633 84.7959 19.206C84.7959 18.7393 84.7072 18.3287 84.5299 17.974C84.3619 17.61 84.1099 17.3253 83.7739 17.12C83.4472 16.9053 83.0552 16.798 82.5979 16.798C82.1406 16.798 81.7439 16.9053 81.4079 17.12C81.0812 17.3253 80.8292 17.61 80.6519 17.974C80.4746 18.3287 80.3859 18.7393 80.3859 19.206C80.3859 19.6633 80.4699 20.074 80.6379 20.438C80.8152 20.7927 81.0672 21.0773 81.3939 21.292C81.7206 21.4973 82.1219 21.6 82.5979 21.6ZM91.5958 23.252C91.0638 23.252 90.5738 23.154 90.1258 22.958C89.6778 22.762 89.2905 22.4867 88.9638 22.132C88.6372 21.7773 88.3852 21.3667 88.2078 20.9C88.0305 20.424 87.9418 19.9107 87.9418 19.36V19.066C87.9418 18.5247 88.0258 18.016 88.1938 17.54C88.3712 17.064 88.6138 16.6487 88.9218 16.294C89.2392 15.9393 89.6172 15.664 90.0558 15.468C90.5038 15.2627 90.9985 15.16 91.5398 15.16C92.1372 15.16 92.6598 15.2907 93.1078 15.552C93.5652 15.804 93.9292 16.1867 94.1998 16.7C94.4705 17.2133 94.6198 17.8573 94.6478 18.632L94.0738 17.96V12.78H96.0198V23H94.4798V19.766H94.8158C94.7878 20.5407 94.6292 21.1893 94.3398 21.712C94.0505 22.2253 93.6678 22.6127 93.1918 22.874C92.7252 23.126 92.1932 23.252 91.5958 23.252ZM92.0298 21.614C92.4125 21.614 92.7625 21.53 93.0798 21.362C93.3972 21.1847 93.6492 20.9327 93.8358 20.606C94.0318 20.27 94.1298 19.878 94.1298 19.43V18.87C94.1298 18.422 94.0318 18.0487 93.8358 17.75C93.6398 17.442 93.3832 17.2087 93.0658 17.05C92.7485 16.882 92.4032 16.798 92.0298 16.798C91.6098 16.798 91.2365 16.9007 90.9098 17.106C90.5925 17.302 90.3405 17.582 90.1538 17.946C89.9765 18.31 89.8878 18.7347 89.8878 19.22C89.8878 19.7053 89.9812 20.13 90.1678 20.494C90.3545 20.8487 90.6065 21.124 90.9238 21.32C91.2505 21.516 91.6192 21.614 92.0298 21.614ZM101.637 23.266C100.984 23.266 100.41 23.154 99.9149 22.93C99.4296 22.706 99.0236 22.4073 98.6969 22.034C98.3796 21.6513 98.1369 21.2267 97.9689 20.76C97.8102 20.2933 97.7309 19.8173 97.7309 19.332V19.066C97.7309 18.562 97.8102 18.0767 97.9689 17.61C98.1369 17.134 98.3796 16.714 98.6969 16.35C99.0236 15.9767 99.4249 15.6827 99.9009 15.468C100.377 15.244 100.928 15.132 101.553 15.132C102.374 15.132 103.06 15.314 103.611 15.678C104.171 16.0327 104.591 16.504 104.871 17.092C105.151 17.6707 105.291 18.296 105.291 18.968V19.668H98.5569V18.478H104.073L103.471 19.066C103.471 18.5807 103.401 18.1653 103.261 17.82C103.121 17.4747 102.906 17.2087 102.617 17.022C102.337 16.8353 101.982 16.742 101.553 16.742C101.124 16.742 100.76 16.84 100.461 17.036C100.162 17.232 99.9336 17.5167 99.7749 17.89C99.6256 18.254 99.5509 18.6927 99.5509 19.206C99.5509 19.682 99.6256 20.1067 99.7749 20.48C99.9242 20.844 100.153 21.1333 100.461 21.348C100.769 21.5533 101.161 21.656 101.637 21.656C102.113 21.656 102.5 21.5627 102.799 21.376C103.098 21.18 103.289 20.942 103.373 20.662H105.165C105.053 21.1847 104.838 21.642 104.521 22.034C104.204 22.426 103.798 22.7293 103.303 22.944C102.818 23.1587 102.262 23.266 101.637 23.266ZM113.578 23.266C112.673 23.266 111.907 23.1213 111.282 22.832C110.666 22.5427 110.195 22.146 109.868 21.642C109.541 21.1287 109.378 20.55 109.378 19.906H111.324C111.324 20.1767 111.399 20.4427 111.548 20.704C111.697 20.956 111.935 21.1613 112.262 21.32C112.598 21.4787 113.037 21.558 113.578 21.558C114.063 21.558 114.469 21.488 114.796 21.348C115.123 21.208 115.365 21.026 115.524 20.802C115.683 20.5687 115.762 20.3073 115.762 20.018C115.762 19.654 115.608 19.3647 115.3 19.15C114.992 18.926 114.516 18.786 113.872 18.73L112.976 18.66C111.996 18.576 111.212 18.2727 110.624 17.75C110.045 17.218 109.756 16.518 109.756 15.65C109.756 14.9967 109.91 14.4367 110.218 13.97C110.526 13.494 110.955 13.13 111.506 12.878C112.066 12.6167 112.719 12.486 113.466 12.486C114.241 12.486 114.908 12.6213 115.468 12.892C116.028 13.1627 116.462 13.5453 116.77 14.04C117.078 14.5253 117.232 15.0993 117.232 15.762H115.286C115.286 15.482 115.216 15.2253 115.076 14.992C114.945 14.7493 114.745 14.558 114.474 14.418C114.213 14.2687 113.877 14.194 113.466 14.194C113.074 14.194 112.747 14.2593 112.486 14.39C112.225 14.5207 112.029 14.698 111.898 14.922C111.767 15.146 111.702 15.3887 111.702 15.65C111.702 15.9673 111.819 16.2473 112.052 16.49C112.285 16.7233 112.654 16.8587 113.158 16.896L114.054 16.98C114.782 17.036 115.421 17.19 115.972 17.442C116.523 17.694 116.947 18.0347 117.246 18.464C117.554 18.8933 117.708 19.4113 117.708 20.018C117.708 20.662 117.54 21.2313 117.204 21.726C116.868 22.2113 116.387 22.5893 115.762 22.86C115.146 23.1307 114.418 23.266 113.578 23.266ZM123.978 23V20.746H123.656V18.24C123.656 17.8013 123.548 17.4747 123.334 17.26C123.119 17.0453 122.788 16.938 122.34 16.938C122.106 16.938 121.826 16.9427 121.5 16.952C121.173 16.9613 120.842 16.9753 120.506 16.994C120.179 17.0033 119.885 17.0173 119.624 17.036V15.384C119.838 15.3653 120.081 15.3467 120.352 15.328C120.622 15.3093 120.898 15.3 121.178 15.3C121.467 15.2907 121.738 15.286 121.99 15.286C122.774 15.286 123.422 15.3887 123.936 15.594C124.458 15.7993 124.85 16.1213 125.112 16.56C125.382 16.9987 125.518 17.5727 125.518 18.282V23H123.978ZM121.528 23.196C120.977 23.196 120.492 23.098 120.072 22.902C119.661 22.706 119.339 22.426 119.106 22.062C118.882 21.698 118.77 21.2593 118.77 20.746C118.77 20.186 118.905 19.7287 119.176 19.374C119.456 19.0193 119.843 18.7533 120.338 18.576C120.842 18.3987 121.43 18.31 122.102 18.31H123.866V19.472H122.074C121.626 19.472 121.28 19.584 121.038 19.808C120.804 20.0227 120.688 20.3027 120.688 20.648C120.688 20.9933 120.804 21.2733 121.038 21.488C121.28 21.7027 121.626 21.81 122.074 21.81C122.344 21.81 122.592 21.7633 122.816 21.67C123.049 21.5673 123.24 21.3993 123.39 21.166C123.548 20.9233 123.637 20.5967 123.656 20.186L124.132 20.732C124.085 21.264 123.954 21.712 123.74 22.076C123.534 22.44 123.245 22.72 122.872 22.916C122.508 23.1027 122.06 23.196 121.528 23.196ZM127.7 23V12.78H129.646V23H127.7ZM126.748 14.236V12.78H129.646V14.236H126.748ZM135.27 23.266C134.616 23.266 134.042 23.154 133.548 22.93C133.062 22.706 132.656 22.4073 132.33 22.034C132.012 21.6513 131.77 21.2267 131.602 20.76C131.443 20.2933 131.364 19.8173 131.364 19.332V19.066C131.364 18.562 131.443 18.0767 131.602 17.61C131.77 17.134 132.012 16.714 132.33 16.35C132.656 15.9767 133.058 15.6827 133.534 15.468C134.01 15.244 134.56 15.132 135.186 15.132C136.007 15.132 136.693 15.314 137.244 15.678C137.804 16.0327 138.224 16.504 138.504 17.092C138.784 17.6707 138.924 18.296 138.924 18.968V19.668H132.19V18.478H137.706L137.104 19.066C137.104 18.5807 137.034 18.1653 136.894 17.82C136.754 17.4747 136.539 17.2087 136.25 17.022C135.97 16.8353 135.615 16.742 135.186 16.742C134.756 16.742 134.392 16.84 134.094 17.036C133.795 17.232 133.566 17.5167 133.408 17.89C133.258 18.254 133.184 18.6927 133.184 19.206C133.184 19.682 133.258 20.1067 133.408 20.48C133.557 20.844 133.786 21.1333 134.094 21.348C134.402 21.5533 134.794 21.656 135.27 21.656C135.746 21.656 136.133 21.5627 136.432 21.376C136.73 21.18 136.922 20.942 137.006 20.662H138.798C138.686 21.1847 138.471 21.642 138.154 22.034C137.836 22.426 137.43 22.7293 136.936 22.944C136.45 23.1587 135.895 23.266 135.27 23.266Z" fill="#08D96A"/>
<defs>
<filter id="filter0_b_5610_6361" x="-20" y="-20" width="194" height="76" filterUnits="userSpaceOnUse" color-interpolation-filters="sRGB">
<feFlood flood-opacity="0" result="BackgroundImageFix"/>
<feGaussianBlur in="BackgroundImageFix" stdDeviation="10"/>
<feComposite in2="SourceAlpha" operator="in" result="effect1_backgroundBlur_5610_6361"/>
<feBlend mode="normal" in="SourceGraphic" in2="effect1_backgroundBlur_5610_6361" result="shape"/>
</filter>
<filter id="filter1_i_5610_6361" x="11" y="6" width="17.2344" height="22" filterUnits="userSpaceOnUse" color-interpolation-filters="sRGB">
<feFlood flood-opacity="0" result="BackgroundImageFix"/>
<feBlend mode="normal" in="SourceGraphic" in2="BackgroundImageFix" result="shape"/>
<feColorMatrix in="SourceAlpha" type="matrix" values="0 0 0 0 0 0 0 0 0 0 0 0 0 0 0 0 0 0 127 0" result="hardAlpha"/>
<feOffset dx="-2" dy="-2"/>
<feGaussianBlur stdDeviation="2"/>
<feComposite in2="hardAlpha" operator="arithmetic" k2="-1" k3="1"/>
<feColorMatrix type="matrix" values="0 0 0 0 0 0 0 0 0 0.712053 0 0 0 0 0.0356026 0 0 0 1 0"/>
<feBlend mode="normal" in2="shape" result="effect1_innerShadow_5610_6361"/>
</filter>
<radialGradient id="paint0_radial_5610_6361" cx="0" cy="0" r="1" gradientUnits="userSpaceOnUse" gradientTransform="translate(77 32) rotate(90) scale(16 64.0791)">
<stop stop-color="#09B75A"/>
<stop offset="1" stop-color="#1F313B"/>
</radialGradient>
<linearGradient id="paint1_linear_5610_6361" x1="50" y1="0" x2="50" y2="36" gradientUnits="userSpaceOnUse">
<stop stop-color="#056230"/>
<stop offset="1" stop-color="#09B057"/>
</linearGradient>
<linearGradient id="paint2_linear_5610_6361" x1="29.3636" y1="30.7273" x2="17.5455" y2="4.81818" gradientUnits="userSpaceOnUse">
<stop offset="0.095938" stop-color="#0E465E"/>
<stop offset="0.293628" stop-color="#449793"/>
<stop offset="0.595854" stop-color="white"/>
<stop offset="0.874382" stop-color="#78E1F0"/>
</linearGradient>
<radialGradient id="paint3_radial_5610_6361" cx="0" cy="0" r="1" gradientUnits="userSpaceOnUse" gradientTransform="translate(23.909 23.4545) rotate(-127.875) scale(10.3652 10.3652)">
<stop stop-color="#0B362A"/>
<stop offset="0.856414" stop-color="#1A6E4A"/>
</radialGradient>
</defs>
</svg>
