<svg width="22" height="24" viewBox="0 0 22 24" fill="none" xmlns="http://www.w3.org/2000/svg">
<path fill-rule="evenodd" clip-rule="evenodd" d="M8.15895 11.1927C8.14962 11.7966 8.15764 13.0264 8.15764 13.0264L8.15783 13.0265L10.1487 12.0798C10.1487 12.0798 10.2144 9.54414 10.2461 7.90022C10.2646 6.94297 10.2803 5.9856 10.2961 5.02825C10.3079 4.30998 10.3197 3.59171 10.3327 2.87351C10.3386 2.54088 10.8929 2.21423 11.1729 2.3756C13.8546 3.92045 16.5362 5.46587 19.216 7.01409C19.2929 7.05849 19.4056 7.13367 19.4086 7.19877C19.412 7.27167 19.4165 7.34513 19.4211 7.4188C19.4408 7.73576 19.4608 8.0567 19.3901 8.35429C19.3626 8.47032 19.191 8.55336 19.0215 8.6354C18.9499 8.6701 18.8786 8.70463 18.8187 8.74139C18.6921 8.81904 18.5625 8.89186 18.4329 8.96465C18.4075 8.97896 18.382 8.99327 18.3566 9.00761C17.7044 9.37512 16.3851 10.1174 16.3851 10.1174L18.4784 11.3298C18.4784 11.3298 20.0152 10.4 21.2137 9.73647C21.3819 9.6432 21.4491 9.53873 21.447 9.34359C21.4456 9.19728 21.4439 9.05093 21.4421 8.90457C21.4326 8.08689 21.423 7.26869 21.4547 6.45237C21.4702 6.05147 21.3131 5.86958 20.9889 5.68601C19.6391 4.92172 18.2965 4.14486 16.9538 3.36798C16.4684 3.08711 15.983 2.80624 15.4973 2.52596C15.2757 2.39816 15.0543 2.27031 14.8328 2.14247C13.624 1.44472 12.4153 0.747018 11.202 0.0569122C11.1046 0.00150555 10.9311 -0.02256 10.8416 0.0266904C10.0629 0.455766 9.29264 0.900325 8.52814 1.3544C8.4399 1.40682 8.35949 1.5417 8.34998 1.64505C8.31565 2.01984 8.30651 2.39742 8.29998 2.77408C8.25092 5.58023 8.20297 8.38638 8.15895 11.1927ZM13.6613 13.9548C13.6613 13.9548 12.9375 14.3792 12.5776 14.5806C10.6136 15.6802 8.64879 16.7785 6.68405 17.8768L4.99402 18.8216C4.85873 18.8973 4.72313 18.9724 4.58753 19.0475C4.26576 19.2258 3.944 19.4041 3.62639 19.5894C3.48666 19.671 3.38368 19.6857 3.23369 19.5969C2.43318 19.1227 1.62652 18.6589 0.816316 18.2017C0.634985 18.0993 0.545066 17.9886 0.545439 17.764C0.552155 13.9193 0.551595 10.0746 0.543945 6.22991C0.543574 6.01929 0.623232 5.90456 0.791877 5.80849C1.079 5.64502 1.36542 5.48025 1.65183 5.31549L1.65194 5.31542L1.65202 5.31538C2.12648 5.04244 2.60094 4.76949 3.07866 4.50242C3.15944 4.45727 3.30607 4.44981 3.38498 4.49291C4.39858 5.04525 5.04353 5.40288 5.824 5.83565L5.82437 5.83586C6.18177 6.03403 6.5676 6.24797 7.03026 6.50359C7.06533 6.52299 6.96422 8.76705 6.96422 8.76705C6.96422 8.76705 5.89358 8.18482 5.36694 7.89529C5.10797 7.75283 4.84932 7.60979 4.59067 7.46674C4.19999 7.25067 3.80929 7.0346 3.41744 6.82055C3.35775 6.7879 3.2669 6.75171 3.21597 6.77447C3.18506 6.78826 3.15328 6.80177 3.12123 6.81539C2.96604 6.88133 2.80454 6.94997 2.70481 7.06717C2.605 7.18451 2.58299 7.39607 2.58261 7.56602C2.57968 8.87303 2.57906 10.18 2.57844 11.487C2.57764 13.1761 2.57683 14.8652 2.57105 16.5542C2.57011 16.8025 2.6772 16.9068 2.85759 17.0463C3.26652 17.3627 3.59934 17.2976 4.03307 17.0501C6.8646 15.4334 11.4346 12.8604 11.4346 12.8604L13.6613 13.9548ZM11.4039 11.3611L11.4718 8.94094C11.4718 8.94094 13.0997 9.82894 13.9047 10.2716C14.5647 10.6347 15.2246 10.9981 15.8845 11.3616L15.8847 11.3616C17.6329 12.3244 19.3811 13.2872 21.1329 14.2434C21.3644 14.3697 21.4554 14.5036 21.4504 14.7743C21.4316 15.7795 21.4385 16.7852 21.4467 17.7907C21.4482 17.9694 21.3941 18.0685 21.2359 18.1592C19.7366 19.0183 18.2403 19.8829 16.7442 20.7475L16.7428 20.7483L15.6946 21.3539C15.3499 21.553 15.005 21.7519 14.6601 21.9507L14.6593 21.9512C13.5375 22.598 12.4157 23.2447 11.2994 23.9009C11.0696 24.036 10.906 24.0321 10.6782 23.8953C9.861 23.4049 9.0307 22.9361 8.20051 22.4673L8.20031 22.4672L8.15187 22.4398C7.98752 22.3469 7.93024 22.2522 7.93715 22.0471C7.98099 20.7497 8.02669 18.9727 8.02669 18.9727L10.0583 17.8043C10.0583 17.8043 10.062 18.2121 10.0577 18.4058L10.0493 18.7796C10.0334 19.4923 10.0174 20.2051 9.99298 20.9176C9.98663 21.1002 10.0726 21.1743 10.2066 21.2838C10.7422 21.7225 11.191 21.6539 11.7852 21.2964C13.8172 20.074 15.877 18.8975 17.9366 17.7212C18.327 17.4982 18.7174 17.2753 19.1077 17.052C19.3477 16.9145 19.4033 16.7583 19.4384 16.4921C19.5263 15.8237 19.2522 15.4978 18.6616 15.1864C16.267 13.9238 11.4041 11.3615 11.4041 11.3615L11.4039 11.3611Z" fill="#090909"/>
</svg>
