<svg width="16" height="16" viewBox="0 0 16 16" fill="none" xmlns="http://www.w3.org/2000/svg">
<g opacity="0.6">
<path d="M8 1C4.1375 1 1 4.1375 1 8C1 11.8625 4.1375 15 8 15C11.8625 15 15 11.8625 15 8C15 4.1375 11.8625 1 8 1ZM8.5 12H7.5V11H8.5V12ZM8.675 8.825L8.5875 8.9C8.5375 8.9375 8.5 9.025 8.5 9.1V10.0125H7.5V9.1C7.5 8.7125 7.675 8.35 7.9625 8.1125L8.05 8.0375C8.925 7.3375 9.35 6.975 9.35 6.35C9.35 5.6 8.75 5 8 5C7.225 5 6.65 5.575 6.65 6.35H5.65C5.65 5.0375 6.6875 4 8 4C9.3 4 10.35 5.05 10.35 6.35C10.35 7.4875 9.575 8.1125 8.675 8.825Z" fill="#AFAFAF"/>
</g>
</svg>
