<svg width="40" height="40" viewBox="0 0 40 40" fill="none" xmlns="http://www.w3.org/2000/svg">
<path d="M35.7498 22.7337V24.4004C35.7498 24.8504 35.3998 25.2171 34.9331 25.2337H32.4998C31.6165 25.2337 30.8165 24.5837 30.7498 23.7171C30.6998 23.2004 30.8998 22.7171 31.2331 22.3837C31.5331 22.0671 31.9498 21.9004 32.3998 21.9004H34.9165C35.3998 21.9171 35.7498 22.2837 35.7498 22.7337Z" fill="white"/>
<path d="M29.984 21.1491C29.1507 21.9658 28.7507 23.1824 29.084 24.4491C29.5173 25.9991 31.034 26.9824 32.634 26.9824H34.084C35.0007 26.9824 35.7507 27.7324 35.7507 28.6491V28.9658C35.7507 32.4158 32.934 35.2324 29.484 35.2324H10.3507C6.90065 35.2324 4.08398 32.4158 4.08398 28.9658V17.7491C4.08398 15.6991 5.06732 13.8824 6.58398 12.7491C7.63398 11.9491 8.93398 11.4824 10.3507 11.4824H29.484C32.934 11.4824 35.7507 14.2991 35.7507 17.7491V18.4824C35.7507 19.3991 35.0007 20.1491 34.084 20.1491H32.384C31.4506 20.1491 30.6007 20.5158 29.984 21.1491Z" fill="white"/>
<path d="M26.9998 8.03398C27.4498 8.48398 27.0664 9.18398 26.4331 9.18398L13.6331 9.16732C12.8998 9.16732 12.5164 8.26732 13.0498 7.75065L15.7498 5.03398C18.0331 2.76732 21.7331 2.76732 24.0164 5.03398L26.9331 7.98398C26.9498 8.00065 26.9831 8.01732 26.9998 8.03398Z" fill="white"/>
</svg>
