<?xml version="1.0" standalone="no"?><!DOCTYPE svg PUBLIC "-//W3C//DTD SVG 1.1//EN" "http://www.w3.org/Graphics/SVG/1.1/DTD/svg11.dtd"><svg t="1734858257363" class="icon" viewBox="0 0 1040 1024" version="1.1" xmlns="http://www.w3.org/2000/svg" p-id="13901" width="30.46875" height="30" xmlns:xlink="http://www.w3.org/1999/xlink"><path d="M986.407 263.666h-75.878v75.877c0 20.938-16.997 37.936-37.935 37.936-20.945 0-37.942-16.999-37.942-37.936v-75.877h-75.878c-20.943 0-37.936-17-37.936-37.942 0-20.943 16.993-37.935 37.936-37.935h75.878v-75.878c0-20.943 16.997-37.94 37.942-37.94 20.938 0 37.935 16.997 37.935 37.94v75.878h75.878c20.943 0 37.94 16.992 37.94 37.935 0 20.944-16.997 37.942-37.94 37.942zM758.774 396.447c0 31.413-25.491 56.91-56.909 56.91-31.413 0-56.904-25.498-56.904-56.91s25.49-56.904 56.904-56.904c31.417 0 56.91 25.493 56.91 56.904zM607.02 263.667H75.877v528.748c0.077-0.265 83.048-372.256 225.244-372.256 93.667 0 188.932 287.69 248.31 374.65 0 0 46.55-188.482 126.867-189.697 79.442-1.178 120.418 187.302 120.418 187.302h37.936V567.176c0-20.943 16.997-37.943 37.942-37.943 20.938 0 37.935 17 37.935 37.943v303.51c0 41.919-33.99 75.876-75.877 75.876H75.877C33.957 946.562 0 912.605 0 870.685V263.666c0-41.925 33.957-75.877 75.877-75.877H607.02c20.943 0 37.942 16.992 37.942 37.935 0 20.944-16.999 37.942-37.942 37.942z m0 0" p-id="13902" fill="#000000"></path></svg>