<svg width="14" height="14" viewBox="0 0 14 14" fill="none" xmlns="http://www.w3.org/2000/svg">
<g clip-path="url(#clip0_2872_3514)">
<path d="M10.7997 4.68414H9.56608C9.42352 4.68414 9.28678 4.62304 9.19077 4.51539L8.69036 3.95097C8.61471 3.8666 8.50997 3.81714 8.39651 3.81714C8.28304 3.81714 8.1783 3.8666 8.10266 3.95097L7.67207 4.43684C7.53242 4.59395 7.32876 4.68705 7.11928 4.68705H0.366584C0.174564 5.2311 0.0494597 5.81007 0 6.41232H6.37448C6.48795 6.41232 6.59268 6.36577 6.67124 6.2843L7.26475 5.6646C7.33749 5.58605 7.44223 5.54241 7.54697 5.54241H7.57024C7.68371 5.54241 7.78844 5.59187 7.86409 5.67624L8.3645 6.24066C8.46052 6.34831 8.59726 6.40941 8.73982 6.40941H13.9418C13.8924 5.81007 13.7672 5.22819 13.5752 4.68123L10.7997 4.68414Z" fill="white"/>
<path d="M3.85755 10.0432C3.97101 10.0432 4.07575 9.99665 4.15431 9.91518L4.74782 9.29548C4.82347 9.21693 4.9253 9.17329 5.03294 9.17329H5.05622C5.16968 9.17329 5.27733 9.22275 5.35007 9.30421L5.85048 9.86863C5.94649 9.97628 6.08323 10.0374 6.22579 10.0374H13.2782C13.5429 9.49041 13.7349 8.90562 13.8513 8.29174H7.08116C6.9386 8.29174 6.80185 8.23065 6.70584 8.123L6.20543 7.56439C6.12978 7.48002 6.02505 7.43347 5.91158 7.43347C5.79811 7.43347 5.69047 7.48293 5.61773 7.56439L5.18714 8.05026C5.04749 8.21028 4.84383 8.30047 4.63145 8.30047H0.0957031C0.212079 8.91435 0.404099 9.49914 0.668854 10.0461L3.85755 10.0432Z" fill="white"/>
<path d="M8.85894 2.79593C8.9724 2.79593 9.07714 2.74938 9.15569 2.66791L9.74921 2.04821C9.82195 1.96966 9.92668 1.92602 10.0343 1.92602H10.0576C10.1711 1.92602 10.2758 1.97548 10.3515 2.05985L10.8519 2.62718C10.9479 2.73483 11.0846 2.79593 11.2272 2.79593H12.5684C11.2912 1.09684 9.26043 0 6.97365 0C4.68687 0 2.6532 1.09684 1.37598 2.79593H8.85894Z" fill="white"/>
<path d="M6.16817 11.7744H4.33525C4.19269 11.7744 4.05595 11.7133 3.95994 11.6056L3.45952 11.0412C3.38388 10.9568 3.27914 10.9103 3.16567 10.9103C3.05221 10.9103 2.94456 10.9597 2.87182 11.0412L2.44123 11.5271C2.30158 11.6871 2.09793 11.7773 1.88554 11.7773H1.85645C3.13367 13.1447 4.95204 14.003 6.97407 14.003C8.9961 14.003 10.8116 13.1447 12.0917 11.7773L6.16817 11.7744Z" fill="white"/>
</g>
<defs>
<clipPath id="clip0_2872_3514">
<rect width="13.9447" height="14" fill="white"/>
</clipPath>
</defs>
</svg>
