<svg width="14" height="14" viewBox="0 0 14 14" fill="none" xmlns="http://www.w3.org/2000/svg">
<g clip-path="url(#clip0_2872_3522)">
<path d="M7 14C10.866 14 14 10.866 14 7C14 3.13401 10.866 0 7 0C3.13401 0 0 3.13401 0 7C0 10.866 3.13401 14 7 14Z" fill="#EAB90C"/>
<path fill-rule="evenodd" clip-rule="evenodd" d="M6.8249 2.625L4.24452 5.20551L5.19371 6.15469L6.8249 4.52349L8.45709 6.15555L9.40627 5.20644L6.8249 2.625ZM2.625 6.82484L3.57411 7.77396L4.52336 6.82477L3.57418 5.87566L2.625 6.82484ZM5.19371 7.49521L6.8249 9.1264L8.45702 7.49434L9.40667 8.44299L9.40627 8.44359L6.8249 11.0248L4.24446 8.44439L4.24307 8.44306L5.19371 7.49521ZM9.12664 6.82526L10.0758 7.77437L11.025 6.82526L10.0758 5.87608L9.12664 6.82526ZM6.11312 6.57305L6.82493 5.86124L7.78811 6.82442H7.78771L7.78857 6.82489L7.78811 6.82542L6.82493 7.7886L5.86261 6.82628L5.86128 6.82489L5.86261 6.82356L6.03132 6.65485L6.11306 6.57305H6.11312Z" fill="#100E0E"/>
</g>
<defs>
<clipPath id="clip0_2872_3522">
<rect width="14" height="14" fill="white"/>
</clipPath>
</defs>
</svg>
