<svg width="24" height="24" viewBox="0 0 24 24" fill="none" xmlns="http://www.w3.org/2000/svg">
<path fill-rule="evenodd" clip-rule="evenodd" d="M20.1682 12.0078L20.1501 12.0466C19.9126 12.552 19.1527 12.3513 19.1995 11.7948C19.2851 10.7778 19.1593 9.72646 18.7928 8.70275C17.6033 5.37984 13.6094 1.59627 10.0728 1.55521C9.69513 1.55083 9.47828 1.98319 9.70118 2.28808C9.99835 2.69451 10.2397 3.15268 10.4105 3.65524C10.9714 5.30493 10.6261 7.06131 9.63861 8.36623C9.22692 8.91022 8.35278 8.64156 8.3384 7.9595L8.33811 7.94466C8.33231 7.58308 8.39163 7.23593 8.50543 6.91441C8.55562 6.77263 8.42419 6.63311 8.2802 6.67651C6.27526 7.28082 4.7507 10.2311 4.7507 12.3355C4.7507 12.4892 4.75925 12.6409 4.77513 12.7904C4.77709 13.0699 4.82432 13.3542 4.92307 13.6338L4.93378 13.6639C4.96455 13.7498 4.99723 13.8345 5.03083 13.9186C4.55599 13.3381 4.15206 12.6973 3.83258 12.0093C3.68414 11.6897 3.2143 11.7531 3.15661 12.1008C3.05382 12.72 3 13.324 3 13.8981C3 17.8812 5.58749 21.26 9.1733 22.4452C8.44843 21.7583 8 20.8088 8 19.76C8 19.5179 8.0239 19.2632 8.0696 19.0021C8.09525 18.8555 8.30405 18.8287 8.37003 18.9635C8.51205 19.2536 8.69154 19.5238 8.9026 19.7686C8.88769 19.7332 8.87316 19.6975 8.85948 19.6612L8.85474 19.6485C8.81086 19.5306 8.78985 19.4108 8.78899 19.2929C8.78195 19.2299 8.77813 19.1659 8.77813 19.1011C8.77813 18.2137 9.4557 16.9696 10.3468 16.7148C10.4108 16.6965 10.4692 16.7553 10.4469 16.8151C10.3963 16.9507 10.3699 17.0971 10.3725 17.2495L10.3726 17.2558C10.379 17.5434 10.7675 17.6567 10.9505 17.4273C11.3894 16.8771 11.5428 16.1364 11.2936 15.4408C11.2177 15.2288 11.1104 15.0356 10.9783 14.8642C10.8792 14.7357 10.9756 14.5533 11.1435 14.5552C12.7153 14.5725 14.4903 16.168 15.019 17.5692C15.1819 18.0009 15.2378 18.4442 15.1998 18.8731C15.179 19.1078 15.5167 19.1924 15.6223 18.9793L15.6303 18.9629C15.6961 18.8284 15.9048 18.8558 15.9304 19.002C15.9761 19.2632 16 19.5179 16 19.76C16 20.8088 15.5516 21.7583 14.8267 22.4452C18.4125 21.26 21 17.8812 21 13.8981C21 13.3239 20.9462 12.7199 20.8433 12.1007C20.7858 11.7538 20.3162 11.6888 20.1682 12.0078ZM3.96218 9.03055C4.62068 9.16561 5.14542 8.48839 4.88255 7.8697C4.68608 7.40732 4.71693 6.85849 5.01327 6.40696L5.01473 6.4047C5.08964 6.29099 5.02982 6.13792 4.89697 6.10799C4.28311 5.96972 3.62081 6.21466 3.25515 6.77179C2.78394 7.48978 2.98399 8.45383 3.70198 8.92509C3.78239 8.97778 3.87013 9.01167 3.96218 9.03055Z" fill="url(#paint0_linear_1461_1658)"/>
<defs>
<linearGradient id="paint0_linear_1461_1658" x1="3.44615" y1="6.79367" x2="5.28856" y2="8.33895" gradientUnits="userSpaceOnUse">
<stop stop-color="#FFA1AE"/>
<stop offset="1" stop-color="#FF4565"/>
</linearGradient>
</defs>
</svg>
