<svg width="24" height="24" viewBox="0 0 24 24" fill="none" xmlns="http://www.w3.org/2000/svg">
<path d="M7 5.5C7 4.39543 7.89543 3.5 9 3.5H15C16.1046 3.5 17 4.39543 17 5.5H7Z" fill="url(#paint0_linear_1467_2332)"/>
<path fill-rule="evenodd" clip-rule="evenodd" d="M4 6.5C1.79086 6.5 0 8.29086 0 10.5V16.5C0 18.7091 1.79086 20.5 4 20.5H20C22.2091 20.5 24 18.7091 24 16.5V10.5C24 8.29086 22.2091 6.5 20 6.5H4ZM4 12.5C3.44772 12.5 3 12.9477 3 13.5C3 14.0523 3.44772 14.5 4 14.5H5V15.5C5 16.0523 5.44771 16.5 6 16.5C6.55228 16.5 7 16.0523 7 15.5V14.5H8C8.55228 14.5 9 14.0523 9 13.5C9 12.9477 8.55228 12.5 8 12.5H7V11.5C7 10.9477 6.55228 10.5 6 10.5C5.44772 10.5 5 10.9477 5 11.5V12.5H4ZM18 16.5C19.6569 16.5 21 15.1569 21 13.5C21 11.8431 19.6569 10.5 18 10.5C16.3431 10.5 15 11.8431 15 13.5C15 15.1569 16.3431 16.5 18 16.5Z" fill="url(#paint1_linear_1467_2332)"/>
<defs>
<linearGradient id="paint0_linear_1467_2332" x1="12" y1="4.83333" x2="12" y2="23.5" gradientUnits="userSpaceOnUse">
<stop stop-color="#7B46FF"/>
<stop offset="1" stop-color="#4A2A99"/>
</linearGradient>
<linearGradient id="paint1_linear_1467_2332" x1="11.5" y1="6.5" x2="11.5" y2="20.5" gradientUnits="userSpaceOnUse">
<stop stop-color="#7B46FF"/>
<stop offset="1" stop-color="#4A2A99"/>
</linearGradient>
</defs>
</svg>
