<svg width="24" height="24" viewBox="0 0 24 24" fill="none" xmlns="http://www.w3.org/2000/svg">
<rect x="3" y="2.0542" width="18" height="1" rx="0.5" fill="url(#paint0_linear_1467_3231)" fill-opacity="0.66"/>
<path fill-rule="evenodd" clip-rule="evenodd" d="M5 4.0542C3.89543 4.0542 3 4.94963 3 6.0542V17.6127C3 18.4735 3.55086 19.2378 4.36754 19.51L11.3675 21.8434C11.7781 21.9802 12.2219 21.9802 12.6325 21.8434L19.6325 19.51C20.4491 19.2378 21 18.4735 21 17.6127V6.0542C21 4.94963 20.1046 4.0542 19 4.0542H5ZM12.4321 7.79599C12.2392 7.46486 11.7608 7.46486 11.5679 7.79599L10.4945 9.63901C10.4238 9.76031 10.3054 9.84632 10.1682 9.87603L8.08372 10.3274C7.70919 10.4085 7.56137 10.8635 7.81669 11.1493L9.23779 12.7397C9.33132 12.8444 9.37654 12.9835 9.3624 13.1232L9.14755 15.2452C9.10895 15.6265 9.49596 15.9076 9.84663 15.7531L11.7984 14.893C11.9268 14.8364 12.0732 14.8364 12.2016 14.893L14.1534 15.7531C14.504 15.9076 14.8911 15.6265 14.8525 15.2452L14.6376 13.1232C14.6235 12.9835 14.6687 12.8444 14.7622 12.7397L16.1833 11.1493C16.4386 10.8635 16.2908 10.4085 15.9163 10.3274L13.8318 9.87603C13.6946 9.84632 13.5762 9.76031 13.5055 9.63901L12.4321 7.79599Z" fill="url(#paint1_linear_1467_3231)"/>
<defs>
<linearGradient id="paint0_linear_1467_3231" x1="6.5" y1="2.3616" x2="6.55159" y2="3.66219" gradientUnits="userSpaceOnUse">
<stop stop-color="#D8AD16"/>
<stop offset="1" stop-color="#E98D21" stop-opacity="0.64"/>
</linearGradient>
<linearGradient id="paint1_linear_1467_3231" x1="6.5" y1="9.5542" x2="17.5" y2="25.0542" gradientUnits="userSpaceOnUse">
<stop stop-color="#D8AD16"/>
<stop offset="1" stop-color="#E98D21" stop-opacity="0.64"/>
</linearGradient>
</defs>
</svg>
