<svg xmlns="http://www.w3.org/2000/svg" xmlns:xlink="http://www.w3.org/1999/xlink" fill="none" version="1.1" width="20" height="20" viewBox="0 0 20 20"><g transform="matrix(0,-1,1,0,-20,20)"><g transform="matrix(1,-6.1232369099038e-17,6.1232369099038e-17,1,-1.7763568394002505e-15,0)"><path d="M13.879760000000001,27.912625441259767C13.764230000000001,27.830399441259765,13.60277,27.856020301259765,13.50233,27.956284841259766C13.50233,27.956284841259766,10.00329,31.455486041259764,10.00329,31.455486041259764C10.00329,31.455486041259764,6.501639,27.953766841259764,6.501639,27.953766841259764C6.398928,27.851083861259767,6.232441,27.822902141259764,6.115817,27.909253741259764C5.9732584,28.014810041259764,5.9623188,28.219223041259767,6.0829265,28.339874041259765C6.0829265,28.339874041259765,9.80199,32.05893604125976,9.80199,32.05893604125976C9.91268,32.16962604125977,10.09376,32.16964604125977,10.20431,32.05895604125976C10.20431,32.05895604125976,13.916879999999999,28.346389041259766,13.916879999999999,28.346389041259766C14.03894,28.224601041259767,14.02657,28.017186041259766,13.879760000000001,27.912625441259767Z" fill="#898989" fill-opacity="1"/><path d="M5.601634,28.091361041259766Q5.580145,28.402700041259767,5.800034,28.622666041259766L9.51915,32.34177604125976Q9.71932,32.54194604125976,10.00319,32.54196604125977Q10.287230000000001,32.541976041259765,10.48734,32.34161604125977L14.19972,28.629232041259765Q14.42226,28.407183041259767,14.39796,28.092271041259767Q14.37333,27.773069441259764,14.11181,27.586813041259767L14.11171,27.586740041259766Q13.898900000000001,27.435279041259765,13.63438,27.469286041259764Q13.392900000000001,27.500332041259767,13.21973,27.673202041259767L10.00328,30.889796041259764L6.784485,27.670927041259766Q6.609595,27.496086041259765,6.366143,27.464043041259767Q6.0933955,27.428144041259767,5.877791,27.587782041259764Q5.623389,27.776152941259767,5.601634,28.091361041259766ZM10.00329,31.455486041259764L10.28612,31.172636041259764L13.50233,27.956284841259766C13.60277,27.856020301259765,13.764230000000001,27.830399441259765,13.879760000000001,27.912625441259767C14.02657,28.017186041259766,14.03894,28.224601041259767,13.916879999999999,28.346389041259766L10.20431,32.05895604125976C10.09376,32.16964604125977,9.91268,32.16962604125977,9.80199,32.05893604125976L6.0829265,28.339874041259765C5.9623188,28.219223041259767,5.9732584,28.014810041259764,6.115817,27.909253741259764C6.232441,27.822902141259764,6.398928,27.851083861259767,6.501639,27.953766841259764L9.72045,31.172646041259767L10.00329,31.455486041259764Z" fill-rule="evenodd" fill="#898989" fill-opacity="1"/></g></g></svg>