<svg xmlns="http://www.w3.org/2000/svg" xmlns:xlink="http://www.w3.org/1999/xlink" fill="none" version="1.1" width="20" height="20" viewBox="0 0 20 20"><defs><clipPath id="master_svg0_0_343"><rect x="0" y="0" width="20" height="20" rx="0"/></clipPath><clipPath id="master_svg1_0_345"><rect x="3" y="2" width="15.000000953674316" height="16" rx="0"/></clipPath></defs><g clip-path="url(#master_svg0_0_343)"><g clip-path="url(#master_svg1_0_345)"><g><path d="M5.572641374206543,1.9998391894771934C5.572641374206543,1.9998391894771934,9.861666374206543,1.9998391894771934,9.861666374206543,1.9998391894771934C14.335816374206543,1.9998391894771934,17.996166374206545,5.600217389477193,17.996166374206545,9.999837389477193C17.996166374206545,10.521247389477193,17.94596637420654,11.031237389477193,17.84576637420654,11.526007389477193C17.841866374206543,10.913257389477193,17.726166374206542,10.251027389477194,17.47546637420654,9.543127389477194C17.08976637420654,8.473677389477192,16.588366374206544,7.590707389477194,16.029066374206543,6.871387389477193C16.603766374206543,7.857117389477193,16.89306637420654,9.036947389477193,16.881466374206543,10.445127389477193C16.869866374206545,11.864727389477194,16.399366374206544,13.067427389477194,15.516066374206543,14.163527389477194C15.172766374206542,14.589727389477193,14.783266374206542,14.981727389477193,14.378246374206544,15.347127389477194C13.641556374206543,16.01312738947719,12.847006374206543,16.599227389477193,12.102596374206543,17.250027389477193C11.905886374206542,17.42132738947719,11.693756374206544,17.619227389477196,11.489326374206543,17.836227389477195C11.319616374206543,17.870427389477193,11.149906374206543,17.89712738947719,10.976346374206543,17.923727389477193C12.808436374206543,15.731527389477193,16.623066374206545,14.319527389477193,16.653866374206544,10.330957389477193C16.680866374206545,7.191087389477193,15.165066374206543,5.349027389477193,12.565436374206543,4.188227389477193C17.957566374206543,8.199647389477192,14.146826374206542,12.698227389477193,13.101566374206543,13.832427389477193C12.550016374206542,14.433727389477193,10.903056374206543,15.887527389477194,10.359216374206543,17.984627389477193C10.193366374206544,17.99602738947719,10.027516374206543,17.999827389477193,9.857806374206543,17.999827389477193C9.857806374206543,17.999827389477193,5.572641374206543,17.999827389477193,5.572641374206543,17.999827389477193C5.082797374206543,17.999827389477193,4.681666374206543,17.604027389477196,4.681666374206543,17.124527389477194C4.681666374206543,17.124527389477194,4.681666374206543,4.5535973894771935,4.681666374206543,4.5535973894771935C5.680638374206543,4.9988873894771935,6.779896374206543,5.482237389477193,6.779896374206543,5.482237389477193C6.779896374206543,5.482237389477193,6.914886374206543,5.565967389477193,6.957316374206544,5.695367389477193C6.787606374206543,6.041707389477193,6.6911763742065435,6.445127389477193,6.695036374206543,6.8980273894771935C6.706606374206543,8.622107389477193,6.980456374206543,7.978907389477193,6.328616374206543,9.387087389477195C5.680638374206543,10.795277389477194,5.395217374206543,10.795277389477194,5.225508374206543,11.103547389477193C5.225508374206543,11.103547389477193,5.090511374206543,11.282427389477194,5.225508374206543,11.404217389477193C5.364361374206543,11.529807389477194,6.158906374206543,11.986517389477193,6.382616374206543,11.986517389477193C6.529186374206543,11.986517389477193,6.841606374206544,11.716297389477193,7.042166374206543,11.533617389477193C7.146306374206543,11.438467389477193,7.2658763742065435,11.312877389477194,7.2658763742065435,11.312877389477194C7.2658763742065435,11.312877389477194,7.134736374206543,11.461307389477193,7.0460263742065425,11.594507389477194C6.891746374206543,11.815257389477193,6.706606374206543,12.127327389477193,6.806896374206543,12.211027389477193C7.022886374206543,12.340427389477194,7.323736374206543,12.332827389477194,7.4317263742065425,12.329027389477194C7.5358663742065435,12.325227389477194,7.609156374206544,12.306227389477193,7.767296374206543,12.047427389477193C7.925426374206543,11.788607389477193,8.338136374206544,10.951317389477193,8.978396374206543,10.863777389477193C9.614816374206544,10.776247389477193,10.829776374206542,10.646837389477193,11.022626374206542,9.600217389477194C11.076626374206544,9.303357389477194,11.088196374206543,9.044557389477195,11.057346374206542,8.816207389477192C11.115196374206544,8.793367389477194,11.169196374206543,8.766727389477193,11.219336374206543,8.740087389477193C11.848036374206544,10.509827389477193,12.465156374206543,11.156837389477193,11.597326374206542,12.918927389477194C14.891266374206543,10.239607389477193,14.289536374206543,4.820007389477194,10.035226374206543,3.636377389477193C9.715096374206542,3.5450373894771934,8.353566374206544,2.6163943894771933,7.867576374206543,2.7534073894771933C7.408586374206543,2.8371373894771934,8.635126374206543,4.618297389477194,7.740296374206543,4.473677389477194C7.107736374206543,4.370917389477194,5.904346374206543,4.100697389477194,4.685523314206543,3.8495073894771936C4.685523314206543,3.8495073894771936,4.685523314206543,2.8675843894771935,4.685523314206543,2.8675843894771935C4.685523314206543,2.3842353894771935,5.086654374206543,1.9922273894771934,5.576498374206543,1.9922273894771934C5.576498374206543,1.9922273894771934,5.572641374206543,1.9998391894771934,5.572641374206543,1.9998391894771934ZM11.149906374206543,3.8495073894771936C13.984826374206543,5.390897389477193,14.883566374206543,8.778147389477194,12.877856374206543,12.009327389477193C12.364876374206542,12.835227389477193,10.899206374206543,14.372827389477193,10.818206374206543,16.06642738947719C10.930056374206544,15.876127389477194,11.049626374206543,15.689627389477193,11.176906374206542,15.503127389477193C11.473896374206543,15.073127389477193,11.809466374206544,14.673527389477194,12.164306374206543,14.289127389477194C12.403446374206542,14.030327389477193,12.654156374206543,13.786727389477193,12.893286374206543,13.527927389477194C13.826686374206544,12.515527389477194,14.655956374206543,11.267207389477193,14.972266374206542,9.912307389477192C15.608666374206543,7.156837389477193,13.737976374206543,4.614487389477193,11.149906374206543,3.8495073894771936Z" fill-rule="evenodd" fill="#703CEC" fill-opacity="1"/></g><g><path d="M4.6816369275354965,3.8572784281463623C4.6816369275354965,3.8572784281463623,4.6816369275354965,4.557564428146362,4.6816369275354965,4.557564428146362C3.875512927535497,4.196003428146362,3.1349619275354965,3.8572784281463623,3.0771066275354966,3.8154134281463623C2.899683127535497,3.6745954281463624,3.0578215275354967,3.541389128146362,3.2005319275354966,3.5680303881463624C3.6710899275354967,3.6517601281463623,4.176356927535497,3.754519428146362,4.6816369275354965,3.8572784281463623Z" fill-rule="evenodd" fill="#703CEC" fill-opacity="1"/></g></g></g></svg>