<svg xmlns="http://www.w3.org/2000/svg" xmlns:xlink="http://www.w3.org/1999/xlink" fill="none" version="1.1" width="20" height="20" viewBox="0 0 20 20"><defs><clipPath id="master_svg0_0_271"><rect x="0" y="0" width="20" height="20" rx="0"/></clipPath></defs><g clip-path="url(#master_svg0_0_271)"><g style="opacity:0.9900000095367432;"><path d="M2.544229733169556,16.992886867675782C2.6573427331695556,17.28588686767578,2.8447547331695557,17.54690686767578,3.0957657331695554,17.76104686767578C3.346775733169556,17.97518686767578,3.656471733169556,18.138256867675782,4.007161733169555,18.240926867675782C4.357861733169556,18.34360686767578,4.742681733169556,18.38388686767578,5.139671733169555,18.35946686767578C5.536661733169556,18.335046867675782,5.938031733169556,18.24640686767578,6.320871733169556,18.09861686767578C6.703721733169556,17.950816867675783,7.060531733169555,17.74675686767578,7.370951733169556,17.49808686767578C7.681361733169556,17.24941686767578,7.939301733169556,16.96099686767578,8.130021733169556,16.649306867675783C8.320751733169555,16.33761686767578,8.440541733169557,16.008756867675782,8.482541733169555,15.681496867675781C8.524551733169556,15.35423686767578,8.487951733169556,15.034996867675781,8.374831733169556,14.74198686767578C8.146391733169555,14.15024486767578,7.620161733169556,13.701307867675782,6.911901733169556,13.493943867675782C6.2036417331695555,13.28657886767578,5.371371733169555,13.337771867675782,4.598191733169555,13.636258867675782C3.8250017331695556,13.93474686767578,3.1742327331695557,14.456076867675781,2.7890407331695557,15.085566867675782C2.4038484331695558,15.71505686767578,2.315786733169556,16.40113686767578,2.544229733169556,16.992886867675782Z" fill="#FFFFFF" fill-opacity="1"/></g><g style="opacity:0.9900000095367432;"><path d="M11.544581744018554,15.118096567382812C11.657682744018555,15.411116567382813,11.845086744018555,15.672146567382812,12.096094744018554,15.886306567382812C12.347102744018555,16.100456567382814,12.656795744018554,16.26352656738281,13.007495744018556,16.366216567382814C13.358195744018555,16.468896567382814,13.743035744018554,16.509186567382812,14.140025744018555,16.484766567382813C14.537025744018555,16.460356567382814,14.938405744018555,16.371716567382812,15.321255744018554,16.223916567382812C15.704115744018555,16.07611656738281,16.060935744018554,15.872046567382814,16.371355744018555,15.623366567382813C16.681775744018555,15.374686567382813,16.939705744018553,15.086266567382813,17.130435744018556,14.774556567382813C17.321165744018554,14.462856567382813,17.440945744018556,14.133986567382813,17.482935744018555,13.806726567382812C17.524935744018556,13.479456567382812,17.488315744018553,13.160206567382813,17.375185744018555,12.867206567382812C17.262085744018556,12.574186567382812,17.074685744018556,12.313151567382812,16.823675744018555,12.098998567382813C16.572665744018554,11.884846567382812,16.262965744018555,11.721771567382813,15.912275744018554,11.619086567382812C15.561575744018555,11.516400967382813,15.176735744018554,11.476116567382812,14.779745744018555,11.500532437382812C14.382745744018555,11.524948267382813,13.981365744018554,11.613586567382812,13.598505744018555,11.761386567382813C13.215655744018555,11.909185567382812,12.858835744018554,12.113251567382813,12.548415744018556,12.361932567382812C12.237993744018555,12.610616567382813,11.980056744018555,12.899036567382812,11.789330744018555,13.210736567382813C11.598605744018554,13.522446567382813,11.478825944018554,13.851316567382813,11.436831644018556,14.178576567382812C11.394837344018555,14.505846567382813,11.431450644018554,14.825096567382813,11.544581744018554,15.118096567382812Z" fill="#FFFFFF" fill-opacity="1"/></g><g style="opacity:0.9900000095367432;"><path d="M15.30833555404663,1.9249999601089478C15.30833555404663,1.9249999601089478,8.36666555404663,4.133333760108948,8.36666555404663,4.133333760108948C8.01948755404663,4.2380937601089474,7.715294554046631,4.451913760108948,7.4991535540466305,4.743103760108948C7.283013554046631,5.034293760108948,7.166425860046631,5.387363760108948,7.166665924036631,5.750003760108948C7.166665924036631,5.750003760108948,7.166665924036631,15.433343760108947,7.166665924036631,15.433343760108947C7.166665924036631,15.433343760108947,8.499995554046631,15.433343760108947,8.499995554046631,15.433343760108947C8.499995554046631,15.433343760108947,8.499995554046631,7.583333760108948,8.499995554046631,7.583333760108948C8.499995554046631,7.425003760108948,8.59999555404663,7.283333760108948,8.758335554046631,7.241663760108948C8.758335554046631,7.241663760108948,15.70833555404663,5.025003760108948,15.70833555404663,5.025003760108948C15.74166555404663,5.016663760108948,15.774995554046631,5.008333760108948,15.80833555404663,5.008333760108948C15.983335554046631,5.008333760108948,16.16666555404663,5.150003760108948,16.16666555404663,5.366663760108947C16.16666555404663,5.366663760108947,16.16666555404663,13.533343760108949,16.16666555404663,13.533343760108949C16.16666555404663,13.533343760108949,17.499965554046632,13.533343760108949,17.499965554046632,13.533343760108949C17.499965554046632,13.533343760108949,17.499965554046632,3.533333760108948,17.499965554046632,3.533333760108948C17.499965554046632,2.3999997601089476,16.399995554046633,1.5916667601089478,15.30833555404663,1.9249999601089478Z" fill="#FFFFFF" fill-opacity="1"/></g></g></svg>