<svg xmlns="http://www.w3.org/2000/svg" xmlns:xlink="http://www.w3.org/1999/xlink" fill="none" version="1.1" width="20" height="20" viewBox="0 0 20 20"><defs><clipPath id="master_svg0_0_303"><rect x="0" y="0" width="20" height="20" rx="0"/></clipPath></defs><g clip-path="url(#master_svg0_0_303)"><g><path d="M14.6009,3C14.6009,3,17.0544,3,17.0544,3C17.0544,3,11.69434,8.93026,11.69434,8.93026C11.69434,8.93026,18,17,18,17C18,17,13.0627,17,13.0627,17C13.0627,17,9.19566,12.10574,9.19566,12.10574C9.19566,12.10574,4.77086,17,4.77086,17C4.77086,17,2.31595,17,2.31595,17C2.31595,17,8.04904,10.65692,8.04904,10.65692C8.04904,10.65692,2,3,2,3C2,3,7.06263,3,7.06263,3C7.06263,3,10.55811,7.47354,10.55811,7.47354C10.55811,7.47354,14.6009,3,14.6009,3ZM13.7399,15.5785C13.7399,15.5785,15.0993,15.5785,15.0993,15.5785C15.0993,15.5785,6.32391,4.3468800000000005,6.32391,4.3468800000000005C6.32391,4.3468800000000005,4.8650400000000005,4.3468800000000005,4.8650400000000005,4.3468800000000005C4.8650400000000005,4.3468800000000005,13.7399,15.5785,13.7399,15.5785Z" fill="#000000" fill-opacity="1"/></g></g></svg>