<svg xmlns="http://www.w3.org/2000/svg" xmlns:xlink="http://www.w3.org/1999/xlink" fill="none" version="1.1" width="20" height="20" viewBox="0 0 20 20"><defs><clipPath id="master_svg0_0_282"><rect x="0" y="0" width="20" height="20" rx="0"/></clipPath></defs><g clip-path="url(#master_svg0_0_282)"><g><path d="M17.6734,5.88581C17.594099999999997,5.5082699999999996,17.413600000000002,5.16242,17.1533,4.889057C16.892899999999997,4.615691,16.5636,4.426215,16.204,4.342983C14.8978,4,10,4,10,4C10,4,4.93868,4.171291,3.7959899999999998,4.514274C3.44867,4.562786,3.1231400000000002,4.719331,2.861276,4.963761C2.599415,5.20819,2.4132160000000002,5.52932,2.326647,5.88581C2,7.25734,2.0000000111647,10,2.0000000000041247,10C1.9999999888435,10,1.9999999787128,12.74266,2.326647,14.1142C2.4059150000000002,14.4917,2.586367,14.8376,2.8467130000000003,15.1109C3.1070599999999997,15.3843,3.43644,15.5738,3.7959899999999998,15.657C5.1022,16,10,16,10,16C10,16,15.0613,16,16.204,15.657C16.5636,15.5738,16.892899999999997,15.3843,17.1533,15.1109C17.413600000000002,14.8376,17.594099999999997,14.4917,17.6734,14.1142C18,12.74266,18,10,18,10C18,10,18,7.25734,17.6734,5.88581ZM8.36753,12.40008C8.36753,12.40008,8.36753,7.42863,8.36753,7.42863C8.36753,7.42863,12.4493,10,12.4493,10C12.4493,10,8.36753,12.40008,8.36753,12.40008Z" fill="#FFFFFF" fill-opacity="1"/></g></g></svg>