<?xml version="1.0" encoding="UTF-8"?>
<svg id="_图层_1" data-name=" 图层 1" xmlns="http://www.w3.org/2000/svg" version="1.1" viewBox="0 0 300 300">
  <defs>
    <style>
      .cls-1 {
        fill: #ccc;
        stroke-width: 0px;
      }
    </style>
  </defs>
  <path class="cls-1" d="M172.3,112.5h-49.1c-7.2,0-13,5.8-13,13v49.1c0,7.2,5.8,13,13,13h49.1c7.2,0,13-5.8,13-13v-49.1c0-7.2-5.8-13-13-13ZM164.2,160.8c-1.9,3.6-5.7,7.7-7.5,8-2.1.3-3.5-.2-5.9-2.5-2.2-2.1-3.9-3-6.5-2.8-5.7.3-5.7,3.6-8.4,3.8-.9,0-3.1-.2-5.7-5.5-2.4-5.1-2.2-12.2.1-17.1,2.5-5.4,6-12.5,11.6-12.7s5.7,6.1,5.7,6.1c1.7-3.3,6.3-7,11-6.6,5.6.5,6.5,4.9,6.7,8.5.3,6.5,3.9,11.3-1.2,21v-.2Z"/>
  <path class="cls-1" d="M153,140.9c-2.1-.2-4,1.5-4.3,3.9s1.2,4.5,3.3,4.8c2.1.2,4-1.5,4.3-3.9s-1.2-4.5-3.3-4.8Z"/>
  <path class="cls-1" d="M141.1,139.6c-2.1-.2-4,1.5-4.3,3.9s1.2,4.5,3.3,4.8c2.1.2,4-1.5,4.3-3.9s-1.2-4.5-3.3-4.8Z"/>
</svg>