<svg width="1792" height="185" viewBox="0 0 1792 185" fill="none" xmlns="http://www.w3.org/2000/svg">
<path d="M1691.79 0H1785.94C1789.89 0 1792 1.84499 1792 5.79852V30.8376C1792 34.7911 1789.89 36.6361 1785.94 36.6361H1692.58C1665.17 36.6361 1657.52 44.8067 1657.52 72.4815V75.1172H1784.62C1788.57 75.1172 1790.42 76.9622 1790.42 80.9157V101.738C1790.42 105.691 1788.57 107.536 1784.62 107.536H1657.52V112.017C1657.52 139.692 1665.17 147.862 1692.58 147.862H1785.94C1789.89 147.862 1792 149.707 1792 153.661V178.7C1792 182.653 1789.89 184.498 1785.94 184.498H1691.79C1638.55 184.498 1617.99 165.521 1617.99 114.916V69.5822C1617.99 18.977 1638.55 0 1691.79 0Z" fill="#19181B"/>
<path d="M1476.74 0H1595.61C1599.56 0 1601.41 1.84499 1601.41 5.79852V31.6283C1601.41 35.5818 1599.56 37.6904 1595.61 37.6904H1478.32C1451.17 37.6904 1443.26 45.5974 1443.26 73.5358V110.963C1443.26 138.901 1451.17 147.072 1478.32 147.072H1595.61C1599.56 147.072 1601.41 148.916 1601.41 152.87V178.7C1601.41 182.653 1599.56 184.498 1595.61 184.498H1476.74C1423.5 184.498 1402.94 165.521 1402.94 114.916V69.5822C1402.94 18.977 1423.5 0 1476.74 0Z" fill="#19181B"/>
<path d="M1188.88 0H1212.08C1228.94 0 1232.63 2.10855 1242.65 15.5506L1340.7 144.172C1341.49 145.49 1342.54 146.017 1344.12 146.017H1346.5C1347.81 146.017 1348.61 145.227 1348.61 143.382V5.79852C1348.61 1.84499 1350.45 0 1354.4 0H1382.08C1386.03 0 1387.88 1.84499 1387.88 5.79852V157.087C1387.88 178.436 1380.23 184.498 1364.16 184.498H1341.49C1325.41 184.498 1321.46 182.917 1310.91 168.948L1212.6 40.3261C1211.55 39.0082 1210.76 38.4811 1209.18 38.4811H1206.81C1205.22 38.4811 1204.7 39.2718 1204.7 41.1168V178.7C1204.7 182.653 1202.85 184.498 1198.9 184.498H1171.22C1167.27 184.498 1165.16 182.653 1165.16 178.7V27.4112C1165.16 6.06209 1172.8 0 1188.88 0Z" fill="#19181B"/>
<path d="M1016.06 0H1031.61C1045.05 0 1053.22 4.21711 1061.92 20.0313L1149.16 178.436C1151.01 181.863 1150.22 184.498 1146 184.498H1112.53C1109.1 184.498 1107.78 183.708 1106.46 181.072L1087.75 147.072H963.874L945.688 181.072C944.37 183.708 942.789 184.498 939.626 184.498H905.362C900.881 184.498 900.09 181.863 901.935 178.436L988.386 20.0313C997.084 4.21711 1004.99 0 1016.06 0ZM1021.86 39.2718L980.479 116.498H1071.15L1029.24 39.2718C1028.45 37.9539 1027.66 37.4268 1026.34 37.4268H1024.76C1023.44 37.4268 1022.65 37.9539 1021.86 39.2718Z" fill="#19181B"/>
<path d="M704.084 0H732.549C736.503 0 738.348 1.84499 738.348 5.79852V110.963C738.348 138.901 746.255 147.072 773.402 147.072H880.148C884.101 147.072 885.946 148.917 885.946 152.87V178.7C885.946 182.653 884.101 184.498 880.148 184.498H771.821C718.58 184.498 698.021 165.521 698.021 114.916V5.79852C698.021 1.84499 700.13 0 704.084 0Z" fill="#19181B"/>
<path d="M548.921 0H564.472C577.914 0 586.084 4.21711 594.782 20.0313L682.023 178.436C683.868 181.863 683.078 184.498 678.861 184.498H645.387C641.961 184.498 640.643 183.708 639.325 181.072L620.612 147.072H496.734L478.548 181.072C477.23 183.708 475.649 184.498 472.486 184.498H438.222C433.741 184.498 432.951 181.863 434.796 178.436L521.246 20.0313C529.944 4.21711 537.851 0 548.921 0ZM554.72 39.2718L513.339 116.498H604.007L562.1 39.2718C561.309 37.9539 560.518 37.4268 559.2 37.4268H557.619C556.301 37.4268 555.51 37.9539 554.72 39.2718Z" fill="#19181B"/>
<path d="M7.90707 0H368.068C404.44 0 418.146 14.2327 418.146 43.4889V56.1402C418.146 71.1636 412.347 82.2335 401.278 89.6135C413.665 96.7298 419.464 108.063 419.464 123.614V138.901C419.464 166.839 407.867 184.498 372.812 184.498H7.90707C2.63569 184.498 0 181.863 0 176.591V7.90708C0 2.63569 2.63569 0 7.90707 0ZM356.734 105.428H40.3261V144.699C40.3261 147.072 41.3803 148.126 43.7525 148.126H360.161C374.13 148.126 379.665 143.118 379.665 132.048V122.032C379.665 111.226 374.13 105.428 356.734 105.428ZM40.3261 39.7989V76.6986H356.734C374.13 76.6986 379.401 71.4272 379.401 61.148V52.1867C379.401 41.3803 373.603 36.3725 359.897 36.3725H43.7525C41.3803 36.3725 40.3261 37.4268 40.3261 39.7989Z" fill="#19181B"/>
</svg>
