<svg width="143" height="40" viewBox="0 0 143 40" fill="none" xmlns="http://www.w3.org/2000/svg">
<g clip-path="url(#clip0_3783_4248)">
<path fill-rule="evenodd" clip-rule="evenodd" d="M17.2228 0.0195312L34.4395 9.84076L34.4451 16.5419L28.2686 20.115L34.4476 23.6775L34.4535 29.785L17.2793 39.9229L11.771 36.777L11.735 29.6795L5.57191 33.2447L0.0679152 30.1012L0.0498047 10.1616L5.46277 6.96623L11.6378 10.5265L11.6014 3.34315L17.2228 0.0195312ZM11.6566 14.2311L5.4818 10.671L3.25146 11.9876L3.26623 28.2428L5.5617 29.5538L11.7163 25.9934L11.6566 14.2311ZM14.9069 24.1477L14.866 16.0815L21.87 20.1196L14.9069 24.1477ZM14.9256 27.8337L14.9616 34.9141L17.2527 36.2226L31.2517 27.959L31.2494 25.5274L25.0706 21.965L14.9256 27.8337ZM25.0679 18.2696L14.8472 12.3769L14.8106 5.16317L17.2516 3.71999L31.241 11.7003L31.2436 14.6971L25.0679 18.2696Z" fill="white"/>
<path d="M55.7628 30.8552H44.4294C44.2362 30.8552 44.0801 30.699 44.0801 30.5059V12.7126C44.0801 12.5194 44.2362 12.3633 44.4294 12.3633H55.4382C59.3297 12.3633 61.7748 14.3111 61.7748 17.4301C61.7748 19.4313 60.8625 20.8572 59.4448 21.3503C61.068 21.9215 62.0953 23.2982 62.0953 25.6363C62.0953 29.0389 59.4736 30.8552 55.7587 30.8552H55.7628ZM55.1752 14.8823H47.61C47.4209 14.8823 47.2648 15.0384 47.2648 15.2275V19.6409C47.2648 19.834 47.4209 19.9902 47.6141 19.9902H55.1793C57.2134 19.9902 58.5983 19.2464 58.5983 17.5328C58.5983 15.8192 57.2134 14.8823 55.1793 14.8823H55.1752ZM55.4916 22.8995H47.6141C47.4209 22.8995 47.2648 23.0557 47.2648 23.2488V27.9869C47.2648 28.18 47.4209 28.3362 47.6141 28.3362H55.4711C57.6819 28.3362 58.9188 27.1404 58.9188 25.5048C58.9188 23.8693 57.7024 22.8995 55.4916 22.8995Z" fill="white"/>
<path d="M69.2773 30.8496H68.5089C66.0844 30.8496 64.1201 29.0292 64.1201 26.7814C64.1201 24.6076 66.0186 22.8447 68.365 22.8406L73.5387 22.8324C73.7482 22.8324 73.9167 22.6762 73.9167 22.4831V21.7352C73.9167 21.0941 73.3989 20.5763 72.7579 20.5722L65.2913 20.5599C65.0981 20.5599 64.942 20.4038 64.942 20.2106V18.4642C64.942 18.2628 65.1064 18.1025 65.3036 18.1025H73.2551C75.1824 18.1025 76.748 19.6682 76.748 21.5955V30.488C76.748 30.6852 76.5754 30.8414 76.3659 30.8414H69.2732L69.2773 30.8496ZM73.5428 25.2116H68.6486C67.6418 25.2116 66.8282 25.9678 66.8282 26.9006C66.8282 27.7923 67.6089 28.5155 68.5746 28.5155L73.5428 28.5073C73.7523 28.5073 73.9208 28.3512 73.9208 28.158V25.565C73.9208 25.3719 73.7523 25.2158 73.5469 25.2158L73.5428 25.2116Z" fill="white"/>
<path d="M80.0426 12.3301H82.3521C82.5452 12.3301 82.7014 12.4862 82.7014 12.6794L82.6932 30.5055C82.6932 30.6987 82.537 30.8548 82.3439 30.8548H80.0426C79.8495 30.8548 79.6934 30.6987 79.6934 30.5055V12.6794C79.6934 12.4862 79.8495 12.3301 80.0426 12.3301Z" fill="white"/>
<path d="M111.067 30.5048V22.6231C111.071 21.6574 110.29 20.8766 109.324 20.8766H105.305C104.344 20.8766 103.563 21.6574 103.559 22.619L103.534 30.5089C103.534 30.702 103.378 30.8582 103.185 30.8582H100.58C100.387 30.8582 100.23 30.702 100.23 30.5089L100.247 21.6245C100.247 19.6973 101.817 18.1357 103.744 18.1357H110.886C112.817 18.1357 114.383 19.7014 114.379 21.6328V30.513C114.375 30.7061 114.219 30.8623 114.025 30.8623H111.42C111.227 30.8623 111.071 30.7061 111.071 30.513L111.067 30.5048Z" fill="white"/>
<path d="M117.119 25.6185V23.3501C117.115 20.4531 119.462 18.1025 122.359 18.1025H128.124C128.317 18.1025 128.473 18.2587 128.473 18.4518V20.5311C128.473 20.7243 128.317 20.8804 128.124 20.8804H122.433C120.949 20.8804 119.749 22.0845 119.753 23.5679L119.762 25.7911C119.766 27.2663 120.966 28.4621 122.441 28.4621H128.124C128.317 28.4621 128.473 28.6183 128.473 28.8114V30.5044C128.473 30.6976 128.317 30.8537 128.124 30.8537H122.359C119.466 30.8537 117.119 28.5114 117.115 25.6185H117.119Z" fill="white"/>
<path d="M90.1289 30.8496H89.3604C86.9359 30.8496 84.9717 29.0292 84.9717 26.7814C84.9717 24.6076 86.8702 22.8447 89.2166 22.8406L94.3902 22.8324C94.5998 22.8324 94.7683 22.6762 94.7683 22.4831V21.7352C94.7683 21.0941 94.2505 20.5763 93.6094 20.5722L86.1428 20.5599C85.9497 20.5599 85.7935 20.4038 85.7935 20.2106V18.4642C85.7935 18.2628 85.9579 18.1025 86.1552 18.1025H94.1067C96.0339 18.1025 97.5996 19.6682 97.5996 21.5955V30.488C97.5996 30.6852 97.427 30.8414 97.2174 30.8414H90.1248L90.1289 30.8496ZM94.3943 25.2116H89.5001C88.4934 25.2116 87.6797 25.9678 87.6797 26.9006C87.6797 27.7923 88.4605 28.5155 89.4262 28.5155L94.3943 28.5073C94.6039 28.5073 94.7724 28.3512 94.7724 28.158V25.565C94.7724 25.3719 94.6039 25.2158 94.3984 25.2158L94.3943 25.2116Z" fill="white"/>
<path d="M138.532 18.1084C140.956 18.1084 142.921 19.9288 142.921 22.1766C142.921 22.982 142.904 24.9586 142.9 25.7599C142.9 25.9531 142.744 26.1051 142.551 26.1051L133.506 26.1215C133.297 26.1215 133.128 26.2777 133.128 26.4708V27.2187C133.128 27.8598 133.646 28.3776 134.287 28.3817L142.165 28.394C142.358 28.394 142.514 28.5501 142.514 28.7433V30.4897C142.514 30.6911 142.349 30.8514 142.152 30.8514H133.79C131.863 30.8514 130.297 29.2857 130.297 27.3584V22.1684C130.297 19.9247 132.117 18.1084 134.357 18.1084H138.536H138.532ZM133.502 23.7423H138.396C138.733 23.7423 139.436 23.7423 139.859 23.7423C140.052 23.7423 140.204 23.5902 140.209 23.3971C140.209 22.9985 140.217 22.3615 140.217 22.0533C140.217 21.1616 139.436 20.4384 138.47 20.4384L134.702 20.4466C133.831 20.4466 133.124 21.1575 133.124 22.0287V23.393C133.124 23.5861 133.293 23.7423 133.502 23.7423Z" fill="white"/>
</g>
<defs>
<clipPath id="clip0_3783_4248">
<rect width="142.918" height="40" fill="white"/>
</clipPath>
</defs>
</svg>
